<svg width="115" height="31" viewBox="0 0 115 31" fill="none" xmlns="http://www.w3.org/2000/svg">
<path fill-rule="evenodd" clip-rule="evenodd" d="M62.0975 0.335693H61.6147V7.94379H62.0975V0.335693ZM35.8058 0.766948H33.1314V7.94371H35.8058C36.5073 7.94371 37.1298 7.78971 37.6739 7.48233C38.2179 7.17495 38.6412 6.74926 38.9436 6.20586C39.246 5.66247 39.3975 5.04522 39.3975 4.35533C39.3975 3.66545 39.246 3.04819 38.9436 2.5048C38.6412 1.96141 38.2179 1.53571 37.6739 1.22833C37.1304 0.92095 36.5073 0.766948 35.8058 0.766948ZM37.4186 7.07792C36.9423 7.34148 36.3918 7.47294 35.7675 7.47294V7.47231H33.6242V1.23772H35.7675C36.3918 1.23772 36.9423 1.36982 37.4186 1.63275C37.8949 1.8963 38.2616 2.26378 38.5192 2.73518C38.7762 3.2072 38.9053 3.74684 38.9053 4.35533C38.9053 4.96383 38.7768 5.50409 38.5192 5.97549C38.2616 6.44752 37.8949 6.81499 37.4186 7.07792ZM16.9034 0.8877C15.4934 0.948424 13.801 1.87056 12.7901 3.12887C11.9301 4.1856 11.0912 5.94912 11.3123 7.72578C11.3264 7.83722 11.4119 7.92235 11.5168 7.93174C11.6123 7.93925 11.709 7.94364 11.8057 7.94364C13.1844 7.94364 14.6723 7.13293 15.6885 5.82829C16.7578 4.45104 17.2984 2.68314 17.1351 1.0993C17.1221 0.974718 17.019 0.882691 16.9034 0.8877ZM1.57091 11.5407C-0.736286 15.7921 0.730322 22.2445 3.28156 26.1566C4.55482 28.1129 5.84459 29.8683 7.61006 29.8683C7.64307 29.8683 7.67667 29.8677 7.71086 29.8658C8.54083 29.8307 9.14033 29.5597 9.71978 29.2973C10.3706 29.0025 11.0443 28.6982 12.1001 28.6982C13.1074 28.6982 13.6903 28.9667 14.2797 29.2382L14.3648 29.2773L14.3699 29.2797C14.9796 29.56 15.6077 29.8488 16.5353 29.8301C18.5241 29.7907 19.7455 27.8963 20.8231 26.2248C21.9478 24.4801 22.5119 22.7861 22.7017 22.1381L22.7094 22.1124C22.7459 21.9973 22.6941 21.8721 22.5903 21.8213L22.5827 21.8177L22.5744 21.8138C22.2243 21.6617 19.1513 20.2137 19.1189 16.2685C19.0889 13.0626 21.4238 11.3655 21.8924 11.0574L21.9142 11.0424C21.9649 11.008 22.0003 10.9529 22.0126 10.8903C22.0244 10.8271 22.0126 10.762 21.9779 10.7088C20.3662 8.20402 17.8958 7.82653 16.9013 7.78145C16.7575 7.7658 16.6084 7.75829 16.4586 7.75829C15.2903 7.75829 14.1715 8.22656 13.2719 8.60343L13.2663 8.60578C12.648 8.86458 12.1143 9.08797 11.7458 9.08797C11.3302 9.08797 10.7908 8.86072 10.1672 8.59779L10.1656 8.59711L10.1656 8.5971C9.33068 8.24544 8.38515 7.84718 7.38429 7.84718C7.36012 7.84718 7.33713 7.84718 7.31414 7.84843C4.98514 7.88474 2.78404 9.29956 1.57091 11.5407ZM41.6318 7.63699C41.2487 7.40474 40.9481 7.08171 40.7294 6.6679C40.5107 6.2541 40.401 5.78771 40.401 5.26811C40.401 4.74851 40.5107 4.28212 40.7294 3.86832C40.9481 3.45451 41.2493 3.13211 41.6318 2.89923C42.015 2.66697 42.4441 2.55053 42.921 2.55053C43.3979 2.55053 43.827 2.66697 44.2102 2.89923C44.5934 3.13148 44.894 3.45451 45.1127 3.86832C45.3314 4.28212 45.441 4.74851 45.441 5.26811C45.441 5.78771 45.3314 6.2541 45.1127 6.6679C44.894 7.08171 44.5928 7.40474 44.2102 7.63699C43.827 7.86925 43.3973 7.98569 42.921 7.98569C42.4447 7.98569 42.015 7.86925 41.6318 7.63699ZM43.9585 7.23696C44.2644 7.0454 44.5055 6.77934 44.6824 6.4369C44.8592 6.09509 44.9476 5.7057 44.9476 5.26811C44.9476 4.83052 44.8592 4.44113 44.6824 4.09932C44.5055 3.75751 44.2638 3.49082 43.9585 3.29926C43.6526 3.1077 43.3065 3.01191 42.9204 3.01191C42.5343 3.01191 42.1883 3.1077 41.8824 3.29926C41.5764 3.49082 41.3353 3.75751 41.1585 4.09932C40.9817 4.44113 40.8932 4.83114 40.8932 5.26811C40.8932 5.70508 40.9817 6.09509 41.1585 6.4369C41.3353 6.77871 41.577 7.0454 41.8824 7.23696C42.1883 7.42852 42.5343 7.52431 42.9204 7.52431C43.3065 7.52431 43.6526 7.42852 43.9585 7.23696ZM52.0839 7.94364L53.9956 2.59111H53.995H53.5511L51.8517 7.35893L50.1428 2.59111H49.7278L48.0095 7.36957L46.3295 2.59111H45.8662L47.7778 7.94364H48.2217L49.9306 3.29852L51.63 7.94364H52.0839ZM59.0757 3.13524C59.4424 3.52463 59.6263 4.08555 59.6263 4.81675V7.94437H59.1435V4.85806C59.1435 4.25645 59.0003 3.79883 58.7138 3.48394C58.4273 3.16967 58.0265 3.01254 57.5118 3.01254C56.9194 3.01254 56.4531 3.20034 56.1118 3.57659C55.7705 3.95283 55.6002 4.45866 55.6002 5.09407V7.94437H55.1174V2.59185H55.5807V3.75062C55.7546 3.37501 56.0134 3.08078 56.3582 2.86855C56.7025 2.65696 57.1098 2.55053 57.5796 2.55053C58.2104 2.55053 58.7091 2.74523 59.0763 3.13524H59.0757ZM64.8148 7.63699C64.4317 7.40474 64.1311 7.08171 63.9124 6.6679C63.6937 6.2541 63.584 5.78771 63.584 5.26811C63.584 4.74851 63.6937 4.28212 63.9124 3.86832C64.1311 3.45451 64.4323 3.13211 64.8148 2.89923C65.198 2.66697 65.6271 2.55053 66.104 2.55053C66.5809 2.55053 67.01 2.66697 67.3932 2.89923C67.7764 3.13148 68.077 3.45451 68.2963 3.86832C68.515 4.28212 68.6246 4.74851 68.6246 5.26811C68.6246 5.78771 68.515 6.2541 68.2963 6.6679C68.0776 7.08171 67.7764 7.40474 67.3932 7.63699C67.01 7.86925 66.5803 7.98569 66.104 7.98569C65.6277 7.98569 65.198 7.86925 64.8148 7.63699ZM67.1415 7.23696C67.4468 7.0454 67.6885 6.77934 67.8654 6.4369C68.0422 6.09509 68.1306 5.7057 68.1306 5.26811C68.1306 4.83052 68.0422 4.44113 67.8654 4.09932C67.6885 3.75751 67.4468 3.49082 67.1415 3.29926C66.8356 3.1077 66.4895 3.01191 66.1034 3.01191C65.7173 3.01191 65.3713 3.1077 65.0654 3.29926C64.7594 3.49082 64.5183 3.75751 64.3415 4.09932C64.1647 4.44113 64.0762 4.83114 64.0762 5.26811C64.0762 5.70508 64.1647 6.09509 64.3415 6.4369C64.5183 6.77871 64.76 7.0454 65.0654 7.23696C65.3713 7.42852 65.7173 7.52431 66.1034 7.52431C66.4895 7.52431 66.8356 7.42852 67.1415 7.23696ZM73.7407 4.55006C73.7407 3.89398 73.5733 3.39691 73.2385 3.05823H73.2391C72.9043 2.71955 72.4244 2.55053 71.8002 2.55053C71.4135 2.55053 71.0433 2.61689 70.6896 2.75023C70.3354 2.88358 70.033 3.07013 69.7818 3.30927L70.0229 3.67863C70.2357 3.47392 70.4945 3.3099 70.8004 3.18657C71.1064 3.06325 71.4265 3.0019 71.7613 3.0019C72.2506 3.0019 72.6225 3.13148 72.8766 3.39128C73.1306 3.65109 73.258 4.03045 73.258 4.5294V4.9601H71.5296C70.8735 4.9601 70.3955 5.09845 70.096 5.37516C69.7966 5.65186 69.6469 5.99868 69.6469 6.45693C69.6469 6.91518 69.809 7.28392 70.1343 7.56438C70.4591 7.84484 70.9018 7.98507 71.4618 7.98507C71.8933 7.98507 72.2635 7.89742 72.5724 7.72338C72.8813 7.54935 73.1165 7.30457 73.2774 6.99031V7.94375H73.7407V4.55006ZM73.258 6.36491C73.11 6.7543 72.8895 7.05166 72.5966 7.257H72.5972C72.3042 7.46171 71.9487 7.56438 71.5302 7.56438C71.0858 7.56438 70.7415 7.46358 70.4969 7.262C70.2522 7.06105 70.1302 6.77183 70.1302 6.4369C70.1302 6.10198 70.241 5.83905 70.4633 5.64749C70.6849 5.45592 71.0439 5.36013 71.5396 5.36013H73.258V6.36491ZM80.2188 0.335693V7.94379H79.7455V6.68235C79.5456 7.09928 79.2656 7.42043 78.9055 7.64643C78.5447 7.8718 78.1362 7.98511 77.6794 7.98511C77.2225 7.98511 76.7845 7.86867 76.4049 7.63641C76.0253 7.40416 75.7276 7.08301 75.5119 6.67234C75.2961 6.26229 75.1882 5.79402 75.1882 5.26753C75.1882 4.74104 75.2961 4.27152 75.5119 3.85772C75.7276 3.44391 76.0253 3.12276 76.4049 2.89364C76.7845 2.66451 77.2095 2.54995 77.6794 2.54995C78.1492 2.54995 78.5341 2.66263 78.8913 2.88863C79.2485 3.114 79.5303 3.42889 79.736 3.83205V0.335693H80.2188ZM78.7463 7.23638C79.0517 7.04482 79.2933 6.77876 79.4702 6.43632C79.647 6.09451 79.7354 5.70512 79.7354 5.26753C79.7354 4.82994 79.647 4.44055 79.4702 4.09874C79.2933 3.75693 79.0517 3.49024 78.7463 3.29868C78.4404 3.10712 78.0943 3.01133 77.7082 3.01133C77.3221 3.01133 76.9761 3.10712 76.6702 3.29868C76.3642 3.49024 76.1231 3.75693 75.9463 4.09874C75.7695 4.44055 75.681 4.83056 75.681 5.26753C75.681 5.7045 75.7695 6.09451 75.9463 6.43632C76.1231 6.77813 76.3648 7.04482 76.6702 7.23638C76.9761 7.42794 77.3221 7.52373 77.7082 7.52373C78.0943 7.52373 78.4404 7.42794 78.7463 7.23638ZM84.5153 6.6679C84.734 7.08171 85.0346 7.40474 85.4178 7.63699C85.8009 7.86925 86.2307 7.98569 86.707 7.98569C87.1833 7.98569 87.613 7.86925 87.9961 7.63699C88.3793 7.40474 88.6805 7.08171 88.8992 6.6679C89.1179 6.2541 89.2275 5.78771 89.2275 5.26811C89.2275 4.74851 89.1179 4.28212 88.8992 3.86832C88.6799 3.45451 88.3793 3.13148 87.9961 2.89923C87.613 2.66697 87.1838 2.55053 86.707 2.55053C86.2301 2.55053 85.8009 2.66697 85.4178 2.89923C85.0352 3.13211 84.734 3.45451 84.5153 3.86832C84.2966 4.28212 84.187 4.74851 84.187 5.26811C84.187 5.78771 84.2966 6.2541 84.5153 6.6679ZM88.4683 6.4369C88.2915 6.77934 88.0498 7.0454 87.7444 7.23696C87.4385 7.42852 87.0925 7.52431 86.7064 7.52431C86.3203 7.52431 85.9742 7.42852 85.6683 7.23696C85.363 7.0454 85.1213 6.77871 84.9444 6.4369C84.7676 6.09509 84.6792 5.70508 84.6792 5.26811C84.6792 4.83114 84.7676 4.44113 84.9444 4.09932C85.1213 3.75751 85.3624 3.49082 85.6683 3.29926C85.9742 3.1077 86.3203 3.01191 86.7064 3.01191C87.0925 3.01191 87.4385 3.1077 87.7444 3.29926C88.0498 3.49082 88.2915 3.75751 88.4683 4.09932C88.6451 4.44113 88.7336 4.83052 88.7336 5.26811C88.7336 5.7057 88.6451 6.09509 88.4683 6.4369ZM94.6811 3.13524C95.0478 3.52463 95.2317 4.08555 95.2317 4.81675V7.94437H94.7489V4.85806C94.7489 4.25645 94.6057 3.79883 94.3192 3.48394C94.0327 3.16967 93.6319 3.01254 93.1173 3.01254C92.5248 3.01254 92.0586 3.20034 91.7173 3.57659C91.376 3.95283 91.2056 4.45866 91.2056 5.09407V7.94437H90.7228V2.59185H91.1862V3.75062C91.3601 3.37501 91.6188 3.08078 91.9637 2.86855C92.3079 2.65696 92.7152 2.55053 93.1851 2.55053C93.8158 2.55053 94.3145 2.74523 94.6817 3.13524H94.6811ZM101.745 7.88717C101.929 7.82269 102.081 7.72878 102.204 7.60546L102.001 7.24674C101.795 7.44519 101.529 7.54411 101.219 7.54411C100.91 7.54411 100.676 7.45334 100.519 7.27241C100.361 7.09149 100.282 6.82668 100.282 6.47798V3.03234H101.885V2.59161H100.282V1.42282H99.7997V2.59161H98.873V3.03234H99.7997V6.52869C99.7997 6.98695 99.9187 7.34441 100.157 7.60045C100.395 7.8565 100.733 7.98483 101.171 7.98483C101.371 7.98483 101.562 7.95227 101.745 7.88717ZM107.503 3.13466C107.869 3.52405 108.053 4.08497 108.053 4.81617V7.94379H107.571V4.85748C107.571 4.25587 107.427 3.79825 107.141 3.48336C106.854 3.16909 106.454 3.01196 105.939 3.01196C105.347 3.01196 104.88 3.19976 104.539 3.57601C104.198 3.95225 104.027 4.45808 104.027 5.09349V7.94379H103.545V0.335693H104.027V3.70935C104.201 3.33999 104.458 3.05516 104.8 2.85295C105.141 2.65137 105.543 2.55057 106.006 2.55057C106.637 2.55057 107.136 2.74527 107.503 3.13529V3.13466ZM109.978 5.39083H114.313L114.313 5.38958L114.323 5.24622C114.323 4.72662 114.219 4.26148 114.009 3.85144C113.8 3.44139 113.514 3.12211 113.15 2.89299C112.786 2.66386 112.376 2.5493 111.919 2.5493C111.462 2.5493 111.05 2.66574 110.683 2.898C110.317 3.13088 110.029 3.45328 109.819 3.86709C109.61 4.28089 109.506 4.74039 109.506 5.26688C109.506 5.79337 109.617 6.26164 109.839 6.67169C110.06 7.08236 110.368 7.40351 110.761 7.63576C111.153 7.86802 111.601 7.98446 112.103 7.98446C112.489 7.98446 112.848 7.90934 113.179 7.7591C113.511 7.60885 113.786 7.39349 114.005 7.11303L113.725 6.77498C113.538 7.021 113.304 7.20756 113.024 7.33402C112.744 7.46048 112.44 7.52371 112.112 7.52371C111.713 7.52371 111.354 7.43481 111.035 7.25702C110.716 7.07923 110.464 6.82819 110.277 6.50328C110.09 6.179 109.991 5.80777 109.978 5.39083ZM110.281 3.96036C110.452 3.65612 110.679 3.42073 110.962 3.25295C111.245 3.0858 111.564 3.00192 111.918 3.00192C112.272 3.00192 112.59 3.08706 112.874 3.25796C113.157 3.42887 113.386 3.66488 113.559 3.96537C113.733 4.26649 113.829 4.6083 113.849 4.9908H109.987C110.013 4.6083 110.111 4.26461 110.281 3.96036ZM40.2797 23.8112H34.5047L33.3664 26.6496H31.1553L36.3527 14.3839H38.4647L43.6786 26.6496H41.4345L40.2797 23.8112ZM39.57 22.0239L37.3919 16.662L35.2303 22.0239H39.57ZM53.7263 19.4653C53.3414 18.741 52.8109 18.1807 52.1342 17.7832V17.7838C51.4574 17.3869 50.6905 17.1878 49.8323 17.1878C49.2275 17.1878 48.6745 17.2992 48.1741 17.5209C47.6736 17.7431 47.2527 18.0761 46.912 18.52V17.2936H44.9485V30.0501H47.0111V25.5115C47.7037 26.3522 48.6445 26.7729 49.8323 26.7729C50.6905 26.7729 51.4574 26.5744 52.1342 26.1769C52.8103 25.78 53.3414 25.216 53.7263 24.486C54.1113 23.7561 54.304 22.9178 54.304 21.9713C54.304 21.0247 54.1113 20.1896 53.7263 19.4653ZM52.2084 21.9713C52.2084 22.8477 51.9632 23.5545 51.474 24.0916C50.9841 24.6294 50.3604 24.8979 49.6012 24.8979C49.106 24.8979 48.661 24.7784 48.2649 24.5386C47.8693 24.2988 47.5557 23.957 47.3247 23.5132C47.0936 23.0693 46.9781 22.5554 46.9781 21.9713C46.9781 21.3872 47.0936 20.8732 47.3247 20.4294C47.5551 19.9855 47.8687 19.6437 48.2649 19.4039C48.661 19.1648 49.106 19.0446 49.6012 19.0446C50.3604 19.0446 50.9841 19.3138 51.474 19.8509C51.9638 20.3887 52.2084 21.0948 52.2084 21.9713ZM63.4539 17.7832C64.1306 18.1807 64.6611 18.741 65.046 19.4653C65.431 20.1896 65.6237 21.0247 65.6237 21.9713C65.6237 22.9178 65.431 23.7561 65.046 24.486C64.6611 25.216 64.13 25.78 63.4539 26.1769C62.7772 26.5744 62.0103 26.7729 61.152 26.7729C59.9642 26.7729 59.0234 26.3522 58.3308 25.5115V30.0501H56.2682V17.2936H58.2317V18.52C58.5725 18.0761 58.9933 17.7431 59.4938 17.5209C59.9943 17.2992 60.5472 17.1878 61.152 17.1878C62.0103 17.1878 62.7772 17.3869 63.4539 17.7838V17.7832ZM62.7937 24.0916C63.2829 23.5545 63.5282 22.8477 63.5282 21.9713C63.5282 21.0948 63.2835 20.3887 62.7937 19.8509C62.3038 19.3138 61.6802 19.0446 60.9209 19.0446C60.4258 19.0446 59.9807 19.1648 59.5846 19.4039C59.1885 19.6437 58.8749 19.9855 58.6444 20.4294C58.4133 20.8732 58.2978 21.3872 58.2978 21.9713C58.2978 22.5554 58.4133 23.0693 58.6444 23.5132C58.8755 23.957 59.1891 24.2988 59.5846 24.5386C59.9807 24.7784 60.4258 24.8979 60.9209 24.8979C61.6802 24.8979 62.3038 24.6294 62.7937 24.0916ZM71.3658 25.3532C71.8498 25.7971 72.507 26.1533 73.3376 26.4218L73.3382 26.4212C74.1688 26.6898 75.0294 26.8244 75.9207 26.8244C76.9322 26.8244 77.7905 26.6603 78.4943 26.3336C79.1981 26.0068 79.7234 25.5686 80.07 25.0195C80.4166 24.4705 80.5899 23.857 80.5899 23.1796C80.5899 22.3852 80.3942 21.7548 80.004 21.2872C79.6137 20.8201 79.1433 20.4727 78.5933 20.2448C78.0434 20.017 77.3395 19.7978 76.4813 19.5875C75.8541 19.4241 75.3595 19.2782 74.9964 19.1493C74.6339 19.0209 74.3338 18.8457 74.0974 18.6234C73.8605 18.4018 73.7426 18.1157 73.7426 17.7651C73.7426 17.2631 73.9489 16.8599 74.3615 16.5563C74.7742 16.2527 75.4037 16.1005 76.2508 16.1005C76.7678 16.1005 77.3012 16.1825 77.8512 16.3459C78.4012 16.51 78.9288 16.7491 79.4351 17.0646L80.1118 15.2948C79.6167 14.9443 79.0284 14.6757 78.3464 14.4885C77.6643 14.302 76.9711 14.2081 76.2673 14.2081C75.2546 14.2081 74.3998 14.3721 73.7013 14.6989C73.0028 15.0256 72.4805 15.467 72.1339 16.0217C71.7873 16.5763 71.614 17.1929 71.614 17.8703C71.614 18.6766 71.8091 19.3158 72.1999 19.7891C72.5902 20.2617 73.0576 20.6098 73.6023 20.8314C74.1469 21.0537 74.859 21.2759 75.7391 21.4975C76.3663 21.6615 76.8609 21.8074 77.224 21.9357C77.5865 22.0647 77.8866 22.2425 78.1229 22.4704C78.3593 22.6982 78.4778 22.9874 78.4778 23.338C78.4778 23.8169 78.2656 24.2026 77.8424 24.4943C77.4185 24.7866 76.7778 24.9325 75.9201 24.9325C75.2269 24.9325 74.5366 24.8073 73.8493 24.5556C73.1619 24.3046 72.5813 23.9809 72.1086 23.5834L71.3658 25.3532ZM87.8144 26.1415C87.5721 26.3519 87.278 26.5096 86.932 26.6148C86.5854 26.72 86.2199 26.7726 85.835 26.7726C84.8671 26.7726 84.119 26.504 83.5909 25.9662C83.0627 25.4291 82.7986 24.6466 82.7986 23.618V19.1144H81.3467V17.3621H82.7986V15.2243H84.8612V17.3621H87.2208V19.1144H84.8612V23.5654C84.8612 24.0212 84.9655 24.3686 85.1748 24.6078C85.3834 24.8475 85.6864 24.9671 86.082 24.9671C86.5441 24.9671 86.929 24.8388 87.2367 24.5815L87.8144 26.1409V26.1415ZM89.0934 24.4504C89.4948 25.1803 90.053 25.75 90.7681 26.1588C91.4831 26.5682 92.2753 26.7723 93.1772 26.7723C94.0791 26.7723 94.8879 26.5676 95.6029 26.1588C96.3179 25.75 96.8762 25.1803 97.2776 24.4504C97.679 23.7204 97.88 22.8934 97.88 21.9707C97.88 21.0479 97.679 20.2241 97.2776 19.4997C96.8762 18.7754 96.3179 18.2089 95.6029 17.8001C94.8873 17.3913 94.0685 17.1866 93.1772 17.1866C92.286 17.1866 91.4831 17.3913 90.7681 17.8001C90.053 18.2089 89.4948 18.7754 89.0934 19.4997C88.6914 20.2247 88.4909 21.0473 88.4909 21.9707C88.4909 22.8941 88.6919 23.7204 89.0934 24.4504ZM95.801 21.9707C95.801 22.8471 95.5534 23.5539 95.0582 24.091C94.5631 24.6288 93.9365 24.8973 93.1772 24.8973C92.418 24.8973 91.7937 24.6282 91.3045 24.091C90.8146 23.5539 90.57 22.8471 90.57 21.9707C90.57 21.0942 90.8146 20.3874 91.3045 19.8503C91.7937 19.3126 92.418 19.044 93.1772 19.044C93.9365 19.044 94.5631 19.3132 95.0582 19.8503C95.5534 20.3881 95.801 21.0942 95.801 21.9707ZM104.958 17.1874V19.2727C104.782 19.2376 104.623 19.2201 104.479 19.2201C103.676 19.2201 103.049 19.4686 102.598 19.9651C102.147 20.4615 101.922 21.1771 101.922 22.1117V26.6504H99.859V17.2932H101.823V18.6598C102.417 17.6788 103.461 17.188 104.957 17.188L104.958 17.1874ZM107.963 22.6718H114.876C114.898 22.3914 114.909 22.1754 114.909 22.0233C114.909 21.0654 114.719 20.2209 114.34 19.491C113.96 18.761 113.433 18.1945 112.756 17.7913C112.079 17.3882 111.323 17.1866 110.454 17.1866C109.585 17.1866 108.804 17.3913 108.111 17.8001C107.418 18.2089 106.876 18.7786 106.486 19.5085C106.095 20.2391 105.9 21.0473 105.9 21.9707C105.9 22.8941 106.101 23.7204 106.502 24.4504C106.904 25.1803 107.473 25.75 108.21 26.1588C108.947 26.5682 109.8 26.7723 110.768 26.7723C111.527 26.7723 112.209 26.644 112.814 26.3867C113.418 26.13 113.919 25.7506 114.315 25.2479L113.21 23.8988C112.583 24.5762 111.785 24.9149 110.817 24.9149C110.058 24.9149 109.423 24.7133 108.911 24.3101C108.4 23.907 108.084 23.3611 107.963 22.6718ZM107.946 21.2176C108.045 20.5283 108.322 19.9768 108.779 19.5617C109.236 19.1467 109.783 18.9395 110.454 18.9395C111.125 18.9395 111.686 19.1498 112.137 19.5705C112.588 19.9912 112.857 20.5402 112.946 21.2176H107.946Z" fill="white"/>
</svg>
