<svg width="15" height="12" viewBox="0 0 15 12" fill="none" xmlns="http://www.w3.org/2000/svg">
<path fill-rule="evenodd" clip-rule="evenodd" d="M0 0.832041C0 0.372518 0.372517 0 0.832041 0H14.168C14.6275 0 15 0.372518 15 0.832041C15 1.29156 14.6275 1.66408 14.168 1.66408H0.832041C0.372517 1.66408 0 1.29156 0 0.832041ZM0 5.99999C0 5.54046 0.372517 5.16794 0.832041 5.16794H14.168C14.6275 5.16794 15 5.54046 15 5.99999C15 6.45951 14.6275 6.83203 14.168 6.83203H0.832041C0.372517 6.83203 0 6.45951 0 5.99999ZM11 11.168C11 10.7084 10.6275 10.3359 10.168 10.3359H0.832041C0.372517 10.3359 0 10.7084 0 11.168C0 11.6275 0.372517 12 0.832041 12H10.168C10.6275 12 11 11.6275 11 11.168Z" fill="white"/>
</svg>
