<svg width="12" height="12" viewBox="0 0 12 12" fill="none" xmlns="http://www.w3.org/2000/svg">
<path fill-rule="evenodd" clip-rule="evenodd" d="M11.5941 1.59388C11.9222 1.26584 11.9222 0.733983 11.5941 0.405942C11.2661 0.077902 10.7342 0.077902 10.4062 0.405942L6.00016 4.81197L1.59413 0.405942C1.26609 0.077902 0.734227 0.077902 0.406187 0.405942C0.0781462 0.733983 0.0781462 1.26584 0.406187 1.59388L4.81222 5.99991L0.406187 10.4059C0.0781462 10.734 0.0781462 11.2658 0.406187 11.5939C0.734227 11.9219 1.26609 11.9219 1.59413 11.5939L6.00016 7.18785L10.4062 11.5939C10.7342 11.9219 11.2661 11.9219 11.5941 11.5939C11.9222 11.2658 11.9222 10.734 11.5941 10.4059L7.1881 5.99991L11.5941 1.59388Z" fill="white"/>
</svg>
