<svg width="624" height="449" viewBox="0 0 624 449" fill="none" xmlns="http://www.w3.org/2000/svg">
<g style="mix-blend-mode:multiply" opacity="0.3">
<path d="M13.6094 319.98L27.1394 327.84L317.019 159.99L303.489 152.13L13.6094 319.98Z" fill="#9C9C9C"/>
</g>
<g style="mix-blend-mode:multiply" opacity="0.3">
<path d="M610.02 319.98L596.49 327.84L306.52 161.87L320.05 154L610.02 319.98Z" fill="#9C9C9C"/>
</g>
<path d="M325.428 7.86011V155.72L311.898 163.58V15.7201L325.428 7.86011Z" fill="#A1A1A1"/>
<path d="M311.899 15.7201V163.58L298.289 155.72V7.86011L311.899 15.7201Z" fill="#717171"/>
<path d="M325.429 7.86L311.899 15.72L298.289 7.86L311.819 0L325.429 7.86Z" fill="#D6D6D6"/>
<path d="M321.159 74.3501L318.119 76.1101L318.039 102.38L453.419 180.54L456.459 178.77L456.539 152.5L321.159 74.3501Z" fill="#717171"/>
<path d="M453.489 154.27L453.419 180.54L318.039 102.38L318.119 76.1101L453.489 154.27Z" fill="#CFCFCF"/>
<path d="M329.441 104.98C325.571 103.24 321.771 101.25 318.051 99.0302V97.9302C322.221 100.22 327.331 103.47 329.441 104.98Z" fill="#8C8C8C"/>
<path d="M351.868 99.4002C346.648 96.8902 322.628 83.2502 318.098 80.0002V79.7102C320.878 81.3502 331.128 86.0102 351.868 99.4002Z" fill="#8C8C8C"/>
<path d="M339.319 105.85C342.089 108.99 346.019 111.26 348.679 110.77C346.369 111.92 342.039 109.86 339.249 106.87C335.589 102.98 339.459 107.5 318.059 94.06V93.73C322.679 95.95 327.339 98.58 331.969 101.18C334.429 102.56 337.019 103.25 339.319 105.84V105.85Z" fill="#8C8C8C"/>
<path d="M334.24 98.3602C328.68 95.8902 323.22 92.9802 318.07 89.4502V88.7002C322.89 91.3302 329.73 95.2102 334.24 98.3602Z" fill="#8C8C8C"/>
<path d="M369.659 128.26C360.879 123.99 336.069 109.19 333.949 107.77C349.059 115.43 359.969 121.94 369.659 128.26Z" fill="#8C8C8C"/>
<path d="M357.65 107.59L349.56 103.04C347.08 101.61 345.4 99.7202 343.44 98.5802C340.24 96.7302 339.61 97.5302 337.49 96.4702C335.37 95.3902 335.75 94.8802 331.84 93.0702C327.98 91.2902 328.26 90.6902 325.17 88.9002C323.2 87.7602 320.47 86.2002 318.09 84.5702V84.1702C326.9 89.1402 325.36 87.9302 328.13 89.8802C329.04 90.5102 330.03 91.2102 331.04 91.6502C337.09 94.3002 334.66 94.5102 340.3 96.1702C345.47 97.7802 343.3 98.5702 357.65 107.59Z" fill="#8C8C8C"/>
<path d="M344.512 102.18C346.352 103.43 347.922 105.44 349.732 106.7C353.692 109.44 357.712 111.38 361.682 113.62C365.912 116.01 370.232 118.85 374.242 121.59L354.332 110.7C346.842 106.38 348.122 105.93 345.092 103.63C337.042 97.5101 339.112 103.72 342.532 105.69C343.842 106.45 345.152 106.69 346.442 107.13C344.312 106.77 342.662 106.56 340.922 105.04C339.532 103.83 337.992 101.01 339.272 100.15C340.462 99.3601 343.322 101.37 344.512 102.17V102.18Z" fill="#8C8C8C"/>
<path d="M384.551 122.86C377.271 119.67 369.971 115.31 363.441 110.72C370.791 114.02 381.391 120.52 384.551 122.86Z" fill="#8C8C8C"/>
<path d="M386.629 133.18C391.139 135.79 385.289 131.96 396.169 138.82C399.139 140.74 401.809 141.98 401.849 142.01C400.259 141.18 398.719 140.77 397.109 139.89C395.419 138.96 389.079 135.51 387.429 134.63C383.699 132.66 377.399 128.19 373.649 126.63C370.829 125.44 366.569 122.16 362.239 119.66C358.519 117.51 356.049 116.21 353.199 114.45C356.179 116.04 362.809 119.17 364.369 120.07C366.589 121.35 368.819 122.94 371.049 124.23C373.619 125.71 374.559 125.83 376.669 127.05C382.059 130.09 381.799 130.4 386.619 133.18H386.629Z" fill="#8C8C8C"/>
<path d="M408.229 150.43C396.899 144.3 393.149 143.15 374.219 130.78C381.979 134.41 399.909 144.94 408.229 150.43Z" fill="#8C8C8C"/>
<path d="M398.02 125.84C396.05 124.81 394.51 124.55 392.59 123.27C392.27 123.06 361.95 105.76 357.66 102.84C359.56 103.84 361.18 104.23 363.08 105.35C365.2 106.59 391.77 121.67 398.02 125.84Z" fill="#8C8C8C"/>
<path d="M409.319 143.99C408.159 143.32 406.989 142.39 406.289 141.08C408.049 143.85 412.969 145.1 413.399 144.68C414.559 143.58 409.059 140.14 407.509 139.49C404.549 138.24 402.829 139.84 379.859 124.93C387.859 129.1 400.069 136.02 403.059 137.09C404.899 137.75 406.579 137.89 408.469 138.93C415.929 142.98 416.109 147.91 409.319 143.98V143.99Z" fill="#8C8C8C"/>
<path d="M414.879 139.77C419.839 143.36 424.839 145.55 430.019 149.02C423.769 145.79 419.949 144.46 415.099 141C412.989 139.48 413.459 139.18 410.749 137.61C407.859 135.94 405.099 135.36 402.219 133.7C398.429 131.49 394.729 129.1 391.039 126.74C391.039 126.74 404.639 133.93 404.729 133.97C408.319 134.71 412.209 136.79 414.889 139.77H414.879Z" fill="#8C8C8C"/>
<path d="M438.319 167.8C429.129 163.39 420.189 158.16 412.059 152.59C421.949 157.36 433.489 164.51 438.319 167.8Z" fill="#8C8C8C"/>
<path d="M428.409 157.57C418.979 153.14 421.749 154.34 416.019 151.03C412.519 149.01 410.709 149.47 405.949 144.59C414.169 150.9 411.959 145.79 428.409 157.57Z" fill="#8C8C8C"/>
<path d="M453.41 176.03V176.94C451.07 175.76 445.62 172.76 442.07 170.02C445.86 171.45 450.84 174.36 453.41 176.03Z" fill="#8C8C8C"/>
<path d="M453.42 171.67V172.58C439.1 164.31 435.55 162.03 430.84 158.9C448.64 168.3 448.63 168.6 453.42 171.67Z" fill="#8C8C8C"/>
<path d="M453.44 167.07V167.71C446.88 164.21 423.62 150.67 417.5 146.58C435.51 156.07 431.54 153.84 453.44 167.07Z" fill="#8C8C8C"/>
<path d="M453.449 162.27V163.34C452.959 163.08 435.879 152.73 435.629 152.55C454.579 162 444.339 157.12 453.449 162.28V162.27Z" fill="#8C8C8C"/>
<path d="M453.459 157.73V158.07C451.339 156.95 412.069 134.98 403.129 128.96C422.189 139.55 418.719 136.61 453.459 157.73Z" fill="#8C8C8C"/>
<path d="M321.159 27.6201L318.119 29.3901L318.039 55.6601L453.419 133.82L456.459 132.05L456.539 105.78L321.159 27.6201Z" fill="#717171"/>
<path d="M453.489 107.55L453.419 133.82L318.039 55.6601L318.119 29.3901L453.489 107.55Z" fill="#CFCFCF"/>
<path d="M453.438 125.77V126.19C445.778 122.39 416.458 104.69 414.328 103.28C429.878 110.73 442.028 118.97 453.438 125.77Z" fill="#8C8C8C"/>
<path d="M408.529 99.9402C407.199 99.3802 398.389 94.5502 397.009 93.7502C392.299 91.0602 388.759 90.7702 386.789 87.9602C389.069 90.3402 392.469 90.1202 396.039 92.0602C403.279 96.0502 404.869 97.3602 408.519 99.9302L408.529 99.9402Z" fill="#8C8C8C"/>
<path d="M431.95 108.68C421.47 103.16 411.43 98.08 397.73 89.05C407.1 93.62 426.56 105.1 431.95 108.68Z" fill="#8C8C8C"/>
<path d="M368.839 81.7301C353.409 73.4901 328.609 58.9301 318.059 52.4301V52.1301C338.779 62.9101 366.729 80.4601 368.839 81.7201V81.7301Z" fill="#8C8C8C"/>
<path d="M329.899 40.5301C326.019 38.9801 320.669 35.8501 318.109 34.1701V33.3501C321.119 34.7501 326.739 38.0501 329.899 40.5401V40.5301Z" fill="#8C8C8C"/>
<path d="M336.34 58.0601C330.14 55.1001 324.03 51.8001 318.07 48.2201V47.0901C320.19 48.2601 330.29 54.0101 336.34 58.0601Z" fill="#8C8C8C"/>
<path d="M341.12 51.4002C333.04 47.3802 320.01 40.0602 318.09 38.8502V37.9102C328.8 43.8702 340.5 50.9702 341.12 51.4002Z" fill="#8C8C8C"/>
<path d="M359.908 57.8301C351.348 53.8701 341.448 47.8701 333.648 42.6201C341.008 46.1301 353.698 53.6601 359.908 57.8301Z" fill="#8C8C8C"/>
<path d="M366.031 65.8802C358.761 62.4902 350.361 57.7902 343.551 52.9502C348.081 54.8602 361.791 62.7102 366.031 65.8802Z" fill="#8C8C8C"/>
<path d="M380.951 83.8703C369.701 78.3203 352.721 68.0803 341.961 61.5603C358.031 69.5103 377.451 81.5703 380.951 83.8703Z" fill="#8C8C8C"/>
<path d="M390.81 87.3101C388.71 86.2901 386.56 84.6701 384.98 82.7801C386.2 84.0301 391.37 87.9201 392.75 86.9601C393.29 86.5901 393.07 85.4401 392.41 84.5901C391.72 83.7101 390.71 82.9601 389.7 82.3801C382.19 78.0501 389.72 86.9501 358.23 66.1301C375.91 75.4301 380.04 79.0501 384.42 79.5901C393.61 80.6901 396.58 90.0801 390.81 87.3101Z" fill="#8C8C8C"/>
<path d="M397.76 79.7503C395.64 78.7303 374.01 67.0603 363.75 60.0703C379.62 67.9803 391.87 75.8903 397.76 79.7503Z" fill="#8C8C8C"/>
<path d="M414.299 107.93C399.929 100.82 386.639 92.7001 373.949 84.3701C386.249 91.0101 398.039 97.5101 414.299 107.93Z" fill="#8C8C8C"/>
<path d="M399.339 84.8302C402.629 86.7302 400.819 84.8802 418.769 96.5102C416.659 95.4102 395.449 83.8302 392.849 81.3902C387.649 76.5102 385.729 77.5702 382.699 76.0002C380.619 74.9302 378.559 73.1902 376.439 72.1102C374.289 71.0202 372.119 69.8202 370.109 68.5002C373.439 70.2902 376.739 71.4202 380.079 73.5602C381.569 74.5202 383.119 75.3602 384.839 75.7802C391.629 77.4102 391.359 80.2302 399.329 84.8302H399.339Z" fill="#8C8C8C"/>
<path d="M438.033 102.92C427.493 97.5801 412.823 89.0001 402.312 82.1501C413.833 87.8201 430.933 98.2401 438.033 102.92Z" fill="#8C8C8C"/>
<path d="M453.418 130.28V130.64C446.428 127.04 422.098 112.8 420.098 111.45C434.068 118.42 440.228 121.83 453.418 130.28Z" fill="#8C8C8C"/>
<path d="M453.447 120.79V121.71C449.087 119.55 439.577 113.61 437.727 112.25C444.097 115.06 440.907 113.41 453.447 120.79Z" fill="#8C8C8C"/>
<path d="M453.459 116.15V116.54C447.189 113.2 428.369 102.63 423.359 99.1902C434.959 104.89 447.879 112.53 453.459 116.15Z" fill="#8C8C8C"/>
<path d="M453.479 111.31V112.53C451.359 111.31 445.799 107.96 442.539 105.65C446.539 107.39 449.639 109.09 453.479 111.31Z" fill="#8C8C8C"/>
<path d="M335.228 52.2602C337.648 53.7402 337.588 54.0502 340.528 55.7502C349.508 60.9302 351.428 61.9602 354.488 63.9602C341.478 57.8302 338.108 55.0402 333.798 52.5602C330.908 50.8902 328.368 49.7202 325.608 48.1202C321.698 45.8702 322.348 45.7102 318.098 43.2502V42.6802C319.828 43.5002 321.338 44.4502 322.928 45.5502C324.628 46.7202 326.248 47.4102 328.028 48.4002C330.758 49.9202 329.658 48.9102 335.238 52.2702L335.228 52.2602Z" fill="#8C8C8C"/>
<path d="M321.159 121.07L318.119 122.83L318.039 149.1L453.419 227.26L456.459 225.49L456.539 199.22L321.159 121.07Z" fill="#717171"/>
<path d="M453.489 200.99L453.419 227.26L318.039 149.1L318.119 122.83L453.489 200.99Z" fill="#CFCFCF"/>
<path d="M453.419 218.47V218.92C451.299 217.7 426.739 204.34 414.309 196.25C430.459 204.35 451.309 217.1 453.419 218.46V218.47Z" fill="#8C8C8C"/>
<path d="M408.508 192.87C401.108 189.54 393.908 185.25 387.398 180.65C394.718 183.95 402.018 188.31 408.508 192.87Z" fill="#8C8C8C"/>
<path d="M336.329 151.23C331.789 148.95 321.879 143.44 318.059 141.21V140.1C324.349 143.5 330.459 147.25 336.329 151.23Z" fill="#8C8C8C"/>
<path d="M359.901 150.82C355.241 148.73 344.421 142.92 333.641 135.64C337.301 137.29 353.041 146.2 359.901 150.82Z" fill="#8C8C8C"/>
<path d="M366.021 159.08C361.711 157.24 352.101 151.94 343.551 145.95C347.581 147.8 357.741 153.24 366.021 159.08Z" fill="#8C8C8C"/>
<path d="M341.12 144.43C329.23 138.56 341.88 145.5 325.53 136.06C322.45 134.28 325.26 136.34 318.14 131.81C318.08 131.78 318.09 130.92 318.09 130.92C320.29 132.19 338.07 142.34 341.12 144.43Z" fill="#8C8C8C"/>
<path d="M354.46 157.181C352.35 156.151 335.31 146.871 318.07 136.421V135.811C324.47 139.131 334.13 144.431 354.46 157.181Z" fill="#8C8C8C"/>
<path d="M368.829 174.57L353.599 166.46C351.479 165.24 341.359 158.99 335.699 156.28C334.659 155.79 328.639 151.64 326.719 150.53C324.849 149.45 324.069 149.42 322.719 148.64C321.839 148.13 319.819 146.33 318.059 145.25V144.98C319.749 145.89 321.459 147.41 323.089 148.23C325.199 149.3 324.309 148.31 328.159 150.53C333.889 153.84 332.219 153.63 336.449 155.54C339.129 156.73 341.879 158.55 344.549 159.88C345.969 160.59 367.539 173.73 368.839 174.57H368.829Z" fill="#8C8C8C"/>
<path d="M380.927 176.95C378.807 175.86 350.958 160.53 341.938 154.51C354.337 160.9 366.057 167.08 380.927 176.95Z" fill="#8C8C8C"/>
<path d="M392.099 178.83C379.559 172.76 360.329 160.87 358.219 159.44C370.189 165.37 384.509 173.75 392.099 178.83Z" fill="#8C8C8C"/>
<path d="M397.74 172.86C395.63 171.83 378.82 162.92 363.73 153C369.88 156 387.17 165.72 397.74 172.86Z" fill="#8C8C8C"/>
<path d="M414.29 200.921C412.52 200.001 410.95 199.521 409.22 198.451C402.67 194.421 387.68 186.611 373.93 177.661C379.66 180.501 401.95 192.831 414.29 200.921Z" fill="#8C8C8C"/>
<path d="M418.759 189.34C392.909 176.21 372.229 162.47 370.109 161.19C372.229 162.3 405.769 181 418.759 189.34Z" fill="#8C8C8C"/>
<path d="M423.389 197.19C426.449 200.14 428.129 199.57 431.929 201.85C429.579 200.99 432.119 201.56 427.759 200.51C424.369 199.7 425.169 198.61 415.079 192.57C414.099 191.98 400.049 183.71 397.699 182.15C404.439 185.54 418.589 192.6 423.379 197.2L423.389 197.19Z" fill="#8C8C8C"/>
<path d="M453.41 223.35V223.7C451.58 222.96 429.64 210.81 420.09 204.15C432.3 210.11 450.78 221.95 453.41 223.36V223.35Z" fill="#8C8C8C"/>
<path d="M433.737 193.49C435.097 194.27 436.727 195.06 438.007 195.93C436.667 195.23 433.647 193.92 432.517 193.26C429.547 191.54 429.477 190.15 424.677 187.91C421.137 186.27 425.167 190.55 402.297 175.26C402.627 175.42 417.257 183.45 417.287 183.47C418.187 183.99 419.337 184.91 420.277 185.45C421.937 186.41 421.797 185.72 423.437 186.32C428.557 188.13 429.787 191.2 433.737 193.48V193.49Z" fill="#8C8C8C"/>
<path d="M453.429 213.72V214.64C448.299 212.08 440.139 206.82 437.719 205.07C444.089 207.91 450.449 212 453.429 213.72Z" fill="#8C8C8C"/>
<path d="M433.638 197.621C436.848 199.471 434.588 197.621 453.448 209.271V209.581C449.788 207.671 433.838 198.851 433.838 198.851C430.198 196.751 428.748 193.401 425.128 191.631C421.228 189.691 422.078 194.221 429.178 197.371C422.938 195.481 420.818 190.631 423.088 190.271C426.548 189.701 429.938 195.501 433.638 197.631V197.621Z" fill="#8C8C8C"/>
<path d="M453.46 204.33V205.51C449.67 203.36 446 201 442.52 198.51C444.95 199.6 451.39 203.14 453.46 204.33Z" fill="#8C8C8C"/>
<path d="M329.88 133.58C326.57 132.3 320.22 128.58 318.09 127.2V126.4C321.86 128.11 326.66 131.08 329.88 133.59V133.58Z" fill="#8C8C8C"/>
<path d="M474.819 94.05V241.91L461.289 249.77V101.92L474.819 94.05Z" fill="#A1A1A1"/>
<path d="M461.29 101.92V249.77L447.68 241.91V94.0601L461.29 101.92Z" fill="#717171"/>
<path d="M474.82 94.0499L461.29 101.92L447.68 94.0599L461.21 86.1899L474.82 94.0499Z" fill="#D6D6D6"/>
<path d="M470.547 159.17L467.508 160.93L467.438 187.2L602.807 265.36L605.847 263.59L605.927 237.32L470.547 159.17Z" fill="#717171"/>
<path d="M602.878 239.09L602.807 265.36L467.438 187.2L467.508 160.93L602.878 239.09Z" fill="#CFCFCF"/>
<path d="M478.827 189.8C474.957 188.06 471.158 186.07 467.438 183.85V182.75C471.608 185.04 476.717 188.29 478.827 189.8Z" fill="#8C8C8C"/>
<path d="M501.258 184.22C494.448 180.94 470.648 167.09 467.488 164.82V164.53C470.268 166.17 480.658 170.92 501.258 184.22Z" fill="#8C8C8C"/>
<path d="M488.709 190.67C491.479 193.81 495.409 196.08 498.069 195.59C495.759 196.74 491.429 194.68 488.639 191.69C484.929 187.75 488.959 192.38 467.449 178.88V178.55C472.069 180.77 476.729 183.4 481.359 186C483.819 187.38 486.409 188.07 488.709 190.66V190.67Z" fill="#8C8C8C"/>
<path d="M483.627 183.18C478.067 180.71 472.607 177.8 467.457 174.27V173.52C472.277 176.15 479.117 180.03 483.627 183.18Z" fill="#8C8C8C"/>
<path d="M519.05 213.08C509.14 208.26 485.45 194.01 483.34 192.59C498.45 200.25 509.36 206.76 519.05 213.08Z" fill="#8C8C8C"/>
<path d="M507.039 192.41C496.979 187.56 495.629 185.02 492.829 183.4C489.629 181.55 488.999 182.35 486.879 181.29C485.919 180.8 484.939 179.98 484.019 179.37C482.159 178.11 480.549 177.76 478.779 176.62C476.669 175.28 477.279 175.29 474.549 173.72C472.579 172.58 469.849 171.02 467.469 169.39V168.99C476.279 173.96 474.739 172.75 477.509 174.7C481.289 177.34 481.729 176.62 485.239 179.11C486.819 180.23 487.889 180.46 489.679 180.99C494.849 182.6 492.679 183.39 507.029 192.41H507.039Z" fill="#8C8C8C"/>
<path d="M493.898 187C497.068 189.16 496.008 189.94 503.468 194.25C509.318 197.63 511.888 198.4 523.628 206.41C521.568 205.39 502.558 194.99 499.188 192.69C496.968 191.17 495.778 188.91 491.878 186.66C487.798 184.3 488.328 187.37 490.438 189.39C492.188 191.06 493.718 191.22 495.828 191.95C494.458 191.72 492.968 191.57 491.488 190.71C489.598 189.62 487.098 186.03 488.658 184.97C489.848 184.18 492.708 186.19 493.898 186.99V187Z" fill="#8C8C8C"/>
<path d="M533.938 207.68C526.658 204.49 519.358 200.13 512.828 195.54C520.178 198.84 530.778 205.34 533.938 207.68Z" fill="#8C8C8C"/>
<path d="M536.02 218C537.3 218.74 538.59 219.29 539.92 220.05C541.46 220.94 547.09 224.7 548.41 225.39C549.42 225.92 550.27 226.2 551.25 226.83C548.79 225.54 547.95 225.87 541.55 221.84C539.93 220.83 538.49 220.32 536.83 219.44C534.33 218.12 528.7 214.46 526.43 213.15C523.92 211.7 522.59 211.3 521.18 210.49C515.39 207.15 518.37 208.27 508.45 202.65C506.46 201.53 504.53 200.45 502.59 199.26C505.57 200.85 512.2 203.98 513.76 204.88C515.98 206.16 518.21 207.75 520.44 209.04C523.01 210.52 523.95 210.64 526.06 211.86C531.45 214.9 531.19 215.21 536.01 217.99L536.02 218Z" fill="#8C8C8C"/>
<path d="M557.619 235.25C548.409 230.26 542.339 227.84 523.609 215.6C526.179 216.8 547.719 228.71 557.619 235.25Z" fill="#8C8C8C"/>
<path d="M547.407 210.66C545.787 209.81 544.247 209.42 542.627 208.49C542.337 208.32 540.937 207.39 539.837 206.75C537.837 205.6 536.387 205.08 535.187 204.39C534.887 204.22 507.467 187.94 507.047 187.66C508.827 188.59 510.517 189.05 512.307 190.08C514.937 191.6 540.527 206.07 547.397 210.66H547.407Z" fill="#8C8C8C"/>
<path d="M558.71 228.81C557.55 228.14 556.38 227.21 555.68 225.9C557.44 228.67 562.36 229.92 562.79 229.5C563.95 228.4 558.45 224.96 556.9 224.31C553.55 222.9 552.39 224.76 529.25 209.75C537.25 213.92 549.46 220.84 552.45 221.91C554.29 222.57 555.97 222.71 557.86 223.75C565.32 227.8 565.5 232.73 558.71 228.8V228.81Z" fill="#8C8C8C"/>
<path d="M564.27 224.59C569.23 228.18 574.23 230.37 579.41 233.84C573.16 230.61 569.34 229.28 564.49 225.82C562.38 224.3 562.85 224 560.14 222.43C557.25 220.76 554.49 220.18 551.61 218.52C547.82 216.31 544.12 213.92 540.43 211.56C540.43 211.56 554.03 218.75 554.12 218.79C557.71 219.53 561.6 221.61 564.28 224.59H564.27Z" fill="#8C8C8C"/>
<path d="M587.709 252.62C578.519 248.21 569.579 242.98 561.449 237.41C571.339 242.18 582.879 249.33 587.709 252.62Z" fill="#8C8C8C"/>
<path d="M577.796 242.39C568.366 237.96 571.136 239.16 565.406 235.85C561.906 233.83 560.096 234.29 555.336 229.41C563.556 235.72 561.346 230.61 577.796 242.39Z" fill="#8C8C8C"/>
<path d="M602.797 260.85V261.76C600.457 260.58 595.007 257.58 591.457 254.84C595.247 256.27 600.227 259.18 602.797 260.85Z" fill="#8C8C8C"/>
<path d="M602.807 256.49V257.4C591.817 251.06 591.117 250.96 580.227 243.72C597.727 252.96 597.437 253.04 602.807 256.49Z" fill="#8C8C8C"/>
<path d="M602.827 251.89V252.53C598.317 250.12 574.147 236.25 566.887 231.4C584.837 240.86 585.927 241.68 602.827 251.89Z" fill="#8C8C8C"/>
<path d="M602.836 247.09V248.16C602.556 248.02 585.256 237.54 585.016 237.36C604.426 247.04 593.606 241.86 602.836 247.09Z" fill="#8C8C8C"/>
<path d="M602.846 242.55V242.89C591.836 237.09 587.416 234.17 587.626 234.29C586.056 233.39 584.466 232.95 582.866 232.03C580.756 230.81 569.296 223.21 562.226 219.87C558.196 217.92 558.326 217.07 555.836 215.64C554.736 215.01 553.596 214.51 552.516 213.79C564.176 220.27 570.786 223.08 602.846 242.56V242.55Z" fill="#8C8C8C"/>
<path d="M470.547 112.44L467.508 114.21L467.438 140.48L602.807 218.64L605.847 216.87L605.927 190.6L470.547 112.44Z" fill="#717171"/>
<path d="M602.878 192.37L602.807 218.64L467.438 140.48L467.508 114.21L602.878 192.37Z" fill="#CFCFCF"/>
<path d="M602.829 210.59V211.01C595.159 207.2 565.859 189.52 563.719 188.1C579.269 195.55 591.419 203.79 602.829 210.59Z" fill="#8C8C8C"/>
<path d="M557.916 184.76C556.586 184.2 547.776 179.37 546.396 178.57C541.586 175.82 538.136 175.57 536.176 172.78C538.376 175.09 542.116 175.08 545.426 176.88C552.666 180.87 554.256 182.18 557.906 184.75L557.916 184.76Z" fill="#8C8C8C"/>
<path d="M581.337 193.5C576.477 190.94 562.967 184.32 547.117 173.87C554.507 177.47 573.927 188.58 581.337 193.5Z" fill="#8C8C8C"/>
<path d="M514.169 163.69C516.129 164.82 516.559 165.55 518.229 166.55C502.789 158.31 473.089 140.73 467.449 137.25V136.95C471.089 138.85 476.019 141.93 476.559 142.2C484.549 146.09 516.279 164.9 514.169 163.68V163.69Z" fill="#8C8C8C"/>
<path d="M479.286 125.35C475.406 123.8 470.056 120.67 467.496 118.99V118.17C470.506 119.57 476.126 122.87 479.286 125.36V125.35Z" fill="#8C8C8C"/>
<path d="M485.727 142.88C479.527 139.92 473.417 136.62 467.457 133.04V131.91C469.577 133.08 479.677 138.83 485.727 142.88Z" fill="#8C8C8C"/>
<path d="M490.507 136.22C481.117 131.55 469.597 125.01 467.477 123.67V122.73C479.037 129.16 489.667 135.64 490.507 136.22Z" fill="#8C8C8C"/>
<path d="M509.295 142.65C504.055 140.22 494.045 134.86 483.035 127.44C490.845 131.16 504.305 139.3 509.295 142.65Z" fill="#8C8C8C"/>
<path d="M515.417 150.7C508.147 147.31 499.747 142.61 492.938 137.77C497.468 139.68 511.177 147.53 515.417 150.7Z" fill="#8C8C8C"/>
<path d="M530.338 168.69C518.688 162.95 503.598 153.8 491.348 146.38C505.018 153.14 523.468 164.18 530.338 168.69Z" fill="#8C8C8C"/>
<path d="M540.197 172.13C538.097 171.11 535.947 169.49 534.367 167.6C535.587 168.85 540.757 172.74 542.137 171.78C542.677 171.41 542.457 170.26 541.797 169.41C541.107 168.53 540.097 167.78 539.087 167.2C531.627 162.89 539.057 171.73 507.617 150.95C525.297 160.25 529.427 163.87 533.807 164.41C542.997 165.51 545.967 174.9 540.197 172.13Z" fill="#8C8C8C"/>
<path d="M547.147 164.57C545.037 163.55 523.007 151.61 513.137 144.89C531.937 154.26 544.377 162.75 547.147 164.57Z" fill="#8C8C8C"/>
<path d="M563.686 192.76C550.136 186.06 528.686 172.71 523.336 169.2C531.066 173.37 546.056 181.47 563.686 192.76Z" fill="#8C8C8C"/>
<path d="M548.726 169.65C552.016 171.55 550.206 169.7 568.156 181.33C566.036 180.23 544.956 168.76 542.236 166.21C537.036 161.33 535.116 162.39 532.086 160.82C530.006 159.75 527.946 158.01 525.826 156.93C523.676 155.84 521.506 154.64 519.496 153.32C524.226 155.87 522.146 154.19 530.596 159.07C531.826 159.78 532.996 160.3 534.236 160.6C541.026 162.23 540.756 165.05 548.726 169.65Z" fill="#8C8C8C"/>
<path d="M587.419 187.74C574.489 181.19 583.389 185.72 569.569 177.88C552.779 168.42 554.769 168.97 551.699 166.97C553.819 168.01 573.739 178.73 587.419 187.74Z" fill="#8C8C8C"/>
<path d="M602.808 215.1V215.46C595.818 211.85 571.608 197.7 569.488 196.27C583.458 203.24 589.618 206.65 602.808 215.1Z" fill="#8C8C8C"/>
<path d="M602.837 205.61V206.53C598.477 204.37 588.967 198.43 587.117 197.07C593.487 199.88 590.297 198.23 602.837 205.61Z" fill="#8C8C8C"/>
<path d="M602.85 200.97V201.36C596.58 198.02 577.76 187.45 572.75 184.01C583.02 189.06 596.34 196.75 602.85 200.97Z" fill="#8C8C8C"/>
<path d="M602.87 196.14V197.35C600.75 196.13 595.19 192.78 591.93 190.47C595.93 192.21 599.03 193.91 602.87 196.13V196.14Z" fill="#8C8C8C"/>
<path d="M484.617 137.08C487.037 138.56 486.977 138.87 489.917 140.57C498.967 145.79 500.837 146.79 503.877 148.78C491.407 142.91 487.397 139.85 483.477 137.54C479.997 135.51 476.817 134.1 473.497 132.03C471.257 130.65 471.167 130.19 467.477 128.06V127.49C469.207 128.31 470.717 129.26 472.307 130.36C474.017 131.54 481.887 135.43 484.617 137.08Z" fill="#8C8C8C"/>
<path d="M470.547 205.89L467.508 207.66L467.438 233.92L602.807 312.08L605.847 310.31L605.927 284.04L470.547 205.89Z" fill="#717171"/>
<path d="M602.878 285.81L602.807 312.08L467.438 233.92L467.508 207.66L602.878 285.81Z" fill="#CFCFCF"/>
<path d="M602.809 303.29V303.74C600.689 302.52 578.819 290.91 563.699 281.07C578.689 288.59 600.699 301.92 602.809 303.28V303.29Z" fill="#8C8C8C"/>
<path d="M557.899 277.69C550.499 274.36 543.299 270.07 536.789 265.47C544.109 268.77 551.409 273.13 557.899 277.69Z" fill="#8C8C8C"/>
<path d="M485.719 236.05C481.179 233.77 471.269 228.26 467.449 226.03V224.92C473.739 228.32 479.849 232.07 485.719 236.05Z" fill="#8C8C8C"/>
<path d="M509.287 235.64C504.237 233.38 494.847 228.44 483.027 220.46C487.017 222.26 502.647 231.16 509.287 235.64Z" fill="#8C8C8C"/>
<path d="M515.407 243.9C511.097 242.06 501.488 236.76 492.938 230.77C496.968 232.62 507.127 238.06 515.407 243.9Z" fill="#8C8C8C"/>
<path d="M490.509 229.25C486.929 227.48 484.479 226.66 478.659 223.29C477.409 222.57 476.189 221.6 474.929 220.87C471.889 219.11 474.669 221.15 467.539 216.62C467.479 216.59 467.489 215.73 467.489 215.73C469.609 216.95 485.779 225.98 490.519 229.24L490.509 229.25Z" fill="#8C8C8C"/>
<path d="M503.847 242C501.727 240.97 485.477 232.16 467.457 221.24V220.63C471.637 222.8 483.797 229.42 503.847 242Z" fill="#8C8C8C"/>
<path d="M518.217 259.39C518.217 259.39 502.497 251 502.987 251.28C499.627 249.34 501.367 249.87 493.617 245.73C477.057 236.86 483.228 239.47 476.098 235.35C474.228 234.27 473.448 234.24 472.098 233.46C471.218 232.95 469.197 231.15 467.438 230.07V229.8C468.267 230.25 469.097 230.84 469.867 231.38C474.407 234.62 472.687 232.55 477.547 235.36C483.417 238.75 481.927 238.6 485.837 240.37C491.007 242.66 516.107 258.03 518.227 259.4L518.217 259.39Z" fill="#8C8C8C"/>
<path d="M524.438 258.27C526.408 259.47 528.358 260.47 530.318 261.77C518.068 255.45 495.378 242.03 491.328 239.33C519.378 253.79 518.628 254.71 524.438 258.27Z" fill="#8C8C8C"/>
<path d="M541.489 263.65C528.949 257.58 509.719 245.69 507.609 244.26C519.579 250.19 533.899 258.57 541.489 263.65Z" fill="#8C8C8C"/>
<path d="M547.127 257.68C540.417 254.4 527.207 247.09 513.117 237.82C515.237 238.85 534.827 249.37 547.127 257.68Z" fill="#8C8C8C"/>
<path d="M563.676 285.74C561.906 284.82 560.336 284.34 558.606 283.27C550.836 278.49 546.696 276.69 547.156 276.96C545.996 276.29 544.456 275.04 543.076 274.24C536.806 270.71 535.756 270.58 523.316 262.48C527.546 264.58 549.176 276.23 563.676 285.74Z" fill="#8C8C8C"/>
<path d="M568.146 274.16C540.146 259.94 521.616 247.28 519.496 246.01C521.606 247.12 555.506 266.04 568.146 274.16Z" fill="#8C8C8C"/>
<path d="M575.256 283.9C575.906 284.28 579.296 285.46 581.316 286.67C567.906 281.77 579.516 286.41 564.466 277.39C563.486 276.8 549.436 268.53 547.086 266.97C574.916 280.96 570.626 281.24 575.246 283.91L575.256 283.9Z" fill="#8C8C8C"/>
<path d="M602.797 308.17V308.52C600.407 307.56 578.927 295.56 569.477 288.97C582.217 295.19 599.677 306.51 602.797 308.18V308.17Z" fill="#8C8C8C"/>
<path d="M584.659 279.15C585.579 279.65 586.529 280.16 587.399 280.74C583.319 278.63 582.039 278.65 579.009 275.88C574.359 271.64 571.769 272.64 569.659 271.32C560.599 265.68 564.399 268.57 551.699 260.08C552.759 260.6 566.619 268.19 568.169 269.27C572.269 272.15 570.499 269.68 575.149 272.24C579.949 274.86 578.499 275.82 584.669 279.14L584.659 279.15Z" fill="#8C8C8C"/>
<path d="M602.827 298.54V299.46C597.697 296.9 589.537 291.64 587.117 289.89C593.487 292.73 599.847 296.82 602.827 298.54Z" fill="#8C8C8C"/>
<path d="M585.207 283.6C588.147 285.12 600.717 292.78 602.837 294.08V294.39C594.057 289.81 588.667 286.45 583.847 284C579.767 281.96 578.337 278.32 574.507 276.44C570.607 274.5 571.457 279.03 578.557 282.18C572.317 280.29 570.197 275.44 572.467 275.08C576.167 274.47 578.437 280.15 585.197 283.6H585.207Z" fill="#8C8C8C"/>
<path d="M602.846 289.15V290.33C599.056 288.18 595.386 285.82 591.906 283.33C594.336 284.42 600.776 287.96 602.846 289.15Z" fill="#8C8C8C"/>
<path d="M479.267 218.4C475.947 217.12 469.607 213.4 467.477 212.02V211.22C471.247 212.93 476.047 215.9 479.267 218.41V218.4Z" fill="#8C8C8C"/>
<path d="M623.639 179.98V327.84L610.109 335.7V187.84L623.639 179.98Z" fill="#A1A1A1"/>
<path d="M610.108 187.84V335.7L596.488 327.84V179.98L610.108 187.84Z" fill="#717171"/>
<path d="M623.638 179.98L610.108 187.84L596.488 179.98L610.018 172.12L623.638 179.98Z" fill="#D6D6D6"/>
<path d="M514.01 281.97C517.18 299.13 513.34 304.99 497.18 312.32C463.57 327.57 439.2 338.83 410.17 334.73C391.58 332.12 371.08 323.2 344.98 305.02C330.17 294.73 321.17 271.03 319.11 252.49C318.64 248.41 320.05 244.1 322.63 239.79C321.16 240.41 319.79 241.26 318.52 242.34C320.05 239.76 322.39 237.53 325.21 235.95C325.47 235.6 325.74 235.25 326 234.86L322.54 235.09L327.82 232.69C328.73 231.6 329.73 230.55 330.75 229.46C328.99 229.84 327.26 230.19 325.53 230.46C328.49 229.02 331.37 227.44 334.15 225.71L330.89 224.98L334.2 224.25C334.96 224.16 335.7 224.1 336.4 224.04C336.58 223.86 336.78 223.69 336.96 223.54C336.14 223.25 335.32 222.92 334.53 222.6C336.03 222.42 337.49 222.13 338.93 221.81C339.75 221.11 340.57 220.43 341.42 219.73C341.19 219.76 341.01 219.82 340.77 219.85C339.01 220.03 337.13 219.94 335.49 219.35C339.01 219.53 341.91 217.74 344.99 216.21L342.5 215.83L348.6 214.13C348.89 213.92 349.16 213.69 349.45 213.48C348.07 213.63 346.72 213.69 345.37 213.51C348.19 213.16 350.68 212.01 353.05 210.64C352.46 210.46 351.85 210.23 351.29 209.94C352.46 210.03 353.58 209.85 354.63 209.59C353.49 209.27 352.37 208.71 351.87 207.65C352.98 208.79 354.57 208.62 355.98 208.44L356.65 208.32C357.71 207.59 358.73 206.88 359.73 206.18C358.73 206.41 357.71 206.65 356.71 206.91C359.41 205.24 362.28 203.77 365.24 202.45C365.5 202.27 365.77 202.1 366 201.95L360.49 202.18L370.4 198.66C368.58 198.48 366.82 198.19 365.06 197.84C368.4 197.61 371.66 196.99 374.8 196.11C374.83 196.08 374.86 196.08 374.89 196.05C374.07 195.9 373.22 195.79 372.43 195.58C374.57 195.11 376.65 194.49 378.62 193.7C388.47 187.63 398.77 182.44 410.03 180.24C417.16 178.86 424.37 178.77 431.44 179.86C448.57 182.32 464.96 191.21 477.54 203.59C480.71 205.73 483.99 207.75 487.48 209.51C485.52 209.01 483.55 208.45 481.61 207.84C481.79 208.05 481.99 208.22 482.17 208.43C483.9 210.42 485.51 212.45 487.1 214.56L487.22 214.44C487.43 214.76 487.66 215.06 487.87 215.38C489.54 216.26 491.33 217.05 493.15 217.67C491.8 217.55 490.42 217.35 489.04 217.08C491.68 220.78 494.7 224.27 498.07 227.49C496.9 226.96 495.72 226.4 494.55 225.79C495.69 227.75 496.78 229.75 497.81 231.74L501.45 236.02L499.28 234.67C499.98 236.14 500.69 237.63 501.36 239.16L505.23 243.94L502.68 242.27C502.86 242.71 503.06 243.15 503.24 243.59C506.55 247.29 508.61 251.77 509.22 256.29C508.43 254.68 507.43 253.21 506.32 251.89C506.79 253.3 507.26 254.73 507.7 256.17C509.72 259.72 511.45 263.36 512.8 267.11C511.83 265.82 510.84 264.56 509.81 263.36C510.22 264.91 510.63 266.47 511.01 268.02L514.18 274.3L512.01 272.19C512.27 273.42 512.54 274.62 512.8 275.86L515.18 282.55L513.77 280.79C513.86 281.2 513.95 281.58 514 281.96L514.01 281.97Z" fill="#EDEDED"/>
<g style="mix-blend-mode:multiply">
<path d="M334.02 236.73C336.99 235.45 339.69 233.89 342.72 232.68C345.7 231.53 349.23 230.76 352.34 231.96C349.09 231.94 346.18 232.9 343.25 234.05C340.33 235.15 337.3 236.55 334.02 236.73Z" fill="#EDEDED"/>
</g>
<g style="mix-blend-mode:multiply">
<path d="M340.391 230.15C341.961 228.65 344.171 227.91 346.331 227.64C348.511 227.34 350.691 227.5 352.811 227.73C357.011 228.2 361.161 228.96 365.211 227.44C363.481 228.75 361.251 229.3 359.091 229.46C356.911 229.64 354.751 229.41 352.651 229.18C348.501 228.72 344.271 228.19 340.401 230.15H340.391Z" fill="#EDEDED"/>
</g>
<g style="mix-blend-mode:multiply">
<path d="M355.27 223.16C358.28 222.06 361.57 222.58 364.54 222.85C367.54 223.15 370.5 223.31 373.4 222.1C372.28 223.22 370.71 223.85 369.14 224.16C367.56 224.49 365.95 224.44 364.39 224.3C361.26 223.96 358.39 223.21 355.27 223.15V223.16Z" fill="#EDEDED"/>
</g>
<g style="mix-blend-mode:multiply">
<path d="M349.449 221.3C353.969 218.27 359.239 216.37 364.629 215.44C370.029 214.56 375.629 214.64 380.889 216.02C375.469 215.78 370.129 215.98 364.869 216.88C359.599 217.74 354.489 219.29 349.449 221.29V221.3Z" fill="#EDEDED"/>
</g>
<g style="mix-blend-mode:multiply">
<path d="M368.891 211.14C370.081 210.18 371.621 209.71 373.131 209.51C374.661 209.28 376.181 209.38 377.671 209.51C380.641 209.82 383.411 210.36 386.401 209.99C383.691 211.5 380.391 211.23 377.531 210.97C374.611 210.67 371.801 210.33 368.901 211.15L368.891 211.14Z" fill="#EDEDED"/>
</g>
<g style="mix-blend-mode:multiply">
<path d="M330.99 251.49C332.55 247.45 335.81 244.1 339.65 242C343.5 239.92 348.09 238.99 352.32 239.88C343.77 240.38 336.05 244.57 330.98 251.49H330.99Z" fill="#EDEDED"/>
</g>
<g style="mix-blend-mode:multiply">
<path d="M345.191 247.79C346.471 246.59 348.041 245.89 349.661 245.42C351.291 245.01 353.011 244.82 354.721 245.22C353.141 245.96 351.601 246.39 350.041 246.83C348.471 247.22 346.921 247.63 345.191 247.78V247.79Z" fill="#EDEDED"/>
</g>
<g style="mix-blend-mode:multiply">
<path d="M334.149 265.13C333.649 264.35 333.639 263.31 333.879 262.38C334.159 261.44 334.739 260.62 335.399 259.94C336.749 258.58 338.339 257.67 339.969 256.82C341.619 256.03 343.329 255.38 345.079 254.92C346.829 254.45 348.589 254.07 350.389 253.86C347.119 255.42 343.739 256.56 340.619 258.13C339.069 258.9 337.499 259.76 336.159 260.77C334.859 261.76 333.819 263.31 334.159 265.13H334.149Z" fill="#EDEDED"/>
</g>
<g style="mix-blend-mode:multiply">
<path d="M375.191 202.89C377.221 200.76 379.841 199.24 382.571 198.12C385.301 196.98 388.171 196.28 391.011 195.63C396.711 194.39 402.401 193.53 407.721 191.07C405.361 192.82 402.601 193.99 399.821 194.9C397.031 195.82 394.161 196.42 391.331 197.06C385.681 198.29 380.031 199.54 375.191 202.89Z" fill="#EDEDED"/>
</g>
<g style="mix-blend-mode:multiply">
<path d="M389.559 205.09C392.259 202.79 395.709 201.43 399.239 200.9C402.769 200.41 406.469 200.73 409.709 202.17C406.199 201.86 402.809 201.85 399.449 202.36C396.079 202.83 392.829 203.8 389.559 205.1V205.09Z" fill="#EDEDED"/>
</g>
<g style="mix-blend-mode:multiply">
<path d="M399.08 188.59C403.3 185.09 408.8 183.15 414.32 182.74C419.84 182.36 425.56 183.51 430.23 186.39C425.08 184.58 419.73 183.81 414.42 184.21C409.11 184.57 403.92 186.07 399.07 188.6L399.08 188.59Z" fill="#EDEDED"/>
</g>
<g style="mix-blend-mode:multiply">
<path d="M408.891 197.3C411.351 196.22 413.901 195.57 416.461 195.03C419.041 194.54 421.641 194.15 424.321 194.19C421.861 195.27 419.311 195.92 416.751 196.46C414.171 196.95 411.571 197.34 408.891 197.3Z" fill="#EDEDED"/>
</g>
<g style="mix-blend-mode:multiply">
<path d="M343.761 274.9C343.201 273.6 343.681 272.05 344.381 270.86C345.121 269.64 346.121 268.66 347.071 267.67C349.021 265.71 351.221 264.02 353.541 262.53C355.901 261.09 358.381 259.85 360.991 258.95C363.601 258.05 366.291 257.41 369.011 257.18C363.791 258.79 358.851 260.92 354.311 263.77C352.031 265.18 349.891 266.79 347.821 268.5C346.801 269.38 345.761 270.23 344.961 271.27C344.131 272.27 343.531 273.53 343.751 274.9H343.761Z" fill="#EDEDED"/>
</g>
<g style="mix-blend-mode:multiply">
<path d="M357.668 253.51C361.398 251.85 365.248 250.61 369.138 249.47C373.038 248.38 376.958 247.4 381.008 246.83C377.278 248.5 373.428 249.74 369.538 250.87C365.638 251.96 361.718 252.94 357.668 253.51Z" fill="#EDEDED"/>
</g>
<g style="mix-blend-mode:multiply">
<path d="M355.918 236.81C357.358 235.43 359.008 234.44 360.698 233.55C362.418 232.7 364.178 231.95 366.138 231.59C364.698 232.97 363.048 233.96 361.358 234.85C359.638 235.69 357.878 236.44 355.918 236.81Z" fill="#EDEDED"/>
</g>
<g style="mix-blend-mode:multiply">
<path d="M451.789 196.82C455.749 197.99 459.409 200.11 462.619 202.71C465.799 205.35 468.599 208.52 470.509 212.18C467.669 209.2 464.819 206.38 461.689 203.84C458.589 201.26 455.269 199.02 451.789 196.82Z" fill="#EDEDED"/>
</g>
<g style="mix-blend-mode:multiply">
<path d="M468.359 202.53C471.419 203.5 474.109 205.48 476.249 207.89C478.349 210.33 479.939 213.28 480.479 216.44C478.859 213.69 477.169 211.15 475.149 208.85C473.149 206.52 470.869 204.5 468.369 202.52L468.359 202.53Z" fill="#EDEDED"/>
</g>
<g style="mix-blend-mode:multiply">
<path d="M461.828 212.89C464.038 213.77 465.748 215.69 466.938 217.74C468.168 219.81 468.928 222.07 469.648 224.29C470.328 226.5 471.058 228.67 472.048 230.7C473.038 232.72 474.408 234.59 476.368 235.89C474.108 235.13 472.318 233.27 471.068 231.25C469.778 229.21 468.978 226.95 468.258 224.73C467.578 222.51 466.878 220.33 465.948 218.26C465.008 216.21 463.718 214.3 461.828 212.89Z" fill="#EDEDED"/>
</g>
<g style="mix-blend-mode:multiply">
<path d="M473.328 219.64C474.888 221.42 476.058 223.4 477.138 225.42C478.168 227.47 479.108 229.57 479.648 231.88C478.088 230.1 476.908 228.12 475.838 226.1C474.808 224.05 473.878 221.95 473.328 219.64Z" fill="#EDEDED"/>
</g>
<g style="mix-blend-mode:multiply">
<path d="M484.209 221.58C485.019 226.36 488.119 229.99 490.809 233.9C493.499 237.83 496.109 241.82 498.349 246.06C495.159 242.47 492.339 238.64 489.599 234.74C488.269 232.78 486.869 230.81 485.809 228.61C484.739 226.44 483.989 223.99 484.199 221.58H484.209Z" fill="#EDEDED"/>
</g>
<g style="mix-blend-mode:multiply">
<path d="M482.678 242.08C486.408 243.96 489.578 246.91 492.038 250.32C494.458 253.75 496.208 257.72 496.758 261.86C495.098 258.04 493.208 254.46 490.838 251.17C488.508 247.85 485.738 244.9 482.668 242.08H482.678Z" fill="#EDEDED"/>
</g>
<g style="mix-blend-mode:multiply">
<path d="M499.91 252.67C501.09 256.01 501.84 259.43 502.48 262.87C503.07 266.32 503.56 269.78 503.61 273.33C502.43 269.99 501.68 266.57 501.04 263.13C500.45 259.68 499.97 256.22 499.91 252.67Z" fill="#EDEDED"/>
</g>
<g style="mix-blend-mode:multiply">
<path d="M477.26 244.58C479.44 245.97 481.09 248.07 482.23 250.38C483.34 252.71 483.97 255.31 483.71 257.88C482.83 255.47 482 253.21 480.91 251.02C479.87 248.82 478.6 246.76 477.25 244.58H477.26Z" fill="#EDEDED"/>
</g>
<g style="mix-blend-mode:multiply">
<path d="M488.848 263.76C490.688 266.58 491.588 269.98 491.748 273.37C491.868 276.75 491.258 280.22 489.658 283.18C490.158 279.86 490.438 276.66 490.288 273.43C490.178 270.2 489.628 267.03 488.848 263.76Z" fill="#EDEDED"/>
</g>
<g style="mix-blend-mode:multiply">
<path d="M439.07 195.14C443.13 196.93 446.74 199.69 449.79 202.92C452.81 206.19 455.33 209.97 456.83 214.14C454.3 210.51 451.69 207.07 448.72 203.92C445.78 200.74 442.52 197.9 439.07 195.14Z" fill="#EDEDED"/>
</g>
<g style="mix-blend-mode:multiply">
<path d="M345 288.45C345.69 284.98 347.33 281.73 349.44 278.87C351.59 276.05 354.25 273.57 357.39 271.93C354.95 274.48 352.65 276.99 350.61 279.75C348.53 282.48 346.76 285.39 345 288.45Z" fill="#EDEDED"/>
</g>
<g style="mix-blend-mode:multiply">
<path d="M360.801 246.37C361.771 244.35 363.081 242.62 364.471 240.95C365.901 239.32 367.411 237.76 369.251 236.48C368.281 238.5 366.971 240.23 365.581 241.9C364.151 243.53 362.641 245.09 360.801 246.37Z" fill="#EDEDED"/>
</g>
<g style="mix-blend-mode:multiply">
<path d="M498.221 281.79C499.711 283.8 500.431 286.32 500.581 288.82C500.681 291.32 500.221 293.9 498.931 296.05C499.111 293.57 499.251 291.25 499.111 288.9C499.021 286.55 498.641 284.25 498.211 281.8L498.221 281.79Z" fill="#EDEDED"/>
</g>
<g style="mix-blend-mode:multiply">
<path d="M496.768 269.18C497.758 270.54 498.328 272.03 498.798 273.54C499.218 275.07 499.528 276.63 499.428 278.31C498.438 276.95 497.868 275.46 497.398 273.95C496.988 272.42 496.668 270.86 496.768 269.18Z" fill="#EDEDED"/>
</g>
<g style="mix-blend-mode:multiply">
<path d="M506.429 273.64C507.679 277.62 508.039 281.86 507.809 286.03C507.529 290.2 506.669 294.36 504.949 298.17C505.569 294.05 506.129 290.02 506.349 285.95C506.619 281.88 506.549 277.81 506.429 273.65V273.64Z" fill="#EDEDED"/>
</g>
<g style="mix-blend-mode:multiply">
<path d="M371.238 229.3C372.708 226.9 374.858 224.98 377.238 223.5C379.648 222.06 382.338 221.03 385.148 220.83C382.668 222.13 380.288 223.33 378.008 224.75C375.698 226.13 373.538 227.69 371.248 229.3H371.238Z" fill="#EDEDED"/>
</g>
<g style="mix-blend-mode:multiply">
<path d="M458.061 220.15C460.561 221.78 462.501 224.19 463.891 226.85C465.231 229.52 466.061 232.51 465.911 235.49C464.911 232.69 463.901 230.04 462.581 227.51C461.301 224.96 459.751 222.59 458.051 220.15H458.061Z" fill="#EDEDED"/>
</g>
<g style="mix-blend-mode:multiply">
<path d="M354.569 290.81C354.799 288.38 355.839 286.1 357.249 284.12C358.699 282.18 360.559 280.49 362.809 279.54C361.259 281.41 359.769 283.12 358.429 284.99C357.049 286.83 355.869 288.77 354.559 290.81H354.569Z" fill="#EDEDED"/>
</g>
<g style="mix-blend-mode:multiply">
<path d="M362.809 271.81C363.059 269.7 364.179 267.76 365.659 266.24C367.169 264.75 369.089 263.6 371.209 263.34C369.559 264.66 368.069 265.87 366.699 267.27C365.309 268.64 364.109 270.15 362.809 271.81Z" fill="#EDEDED"/>
</g>
<g style="mix-blend-mode:multiply">
<path d="M377.969 237.1C379.749 234.74 381.819 232.72 383.969 230.77C386.149 228.86 388.399 227.03 390.939 225.53C389.159 227.89 387.089 229.92 384.939 231.86C382.759 233.77 380.509 235.6 377.969 237.1Z" fill="#EDEDED"/>
</g>
<g style="mix-blend-mode:multiply">
<path d="M396.758 215.6C399.508 211.92 403.488 209.18 407.808 207.51C412.138 205.88 416.938 205.29 421.438 206.22C416.878 206.45 412.478 207.28 408.328 208.88C404.158 210.44 400.328 212.73 396.758 215.6Z" fill="#EDEDED"/>
</g>
<g style="mix-blend-mode:multiply">
<path d="M355.729 304.05C355.659 299.27 356.999 294.48 359.209 290.2C361.459 285.95 364.639 282.12 368.619 279.46C365.419 282.99 362.649 286.75 360.509 290.89C358.329 295 356.799 299.42 355.729 304.06V304.05Z" fill="#EDEDED"/>
</g>
<g style="mix-blend-mode:multiply">
<path d="M367.949 275.12C369.429 272.39 371.709 270.14 374.289 268.4C376.889 266.7 379.849 265.46 382.939 265.15C380.189 266.56 377.569 267.95 375.099 269.62C372.599 271.25 370.309 273.13 367.949 275.12Z" fill="#EDEDED"/>
</g>
<g style="mix-blend-mode:multiply">
<path d="M441.539 190.67C446.119 189.48 451.129 190.04 455.569 191.82C459.989 193.63 463.989 196.71 466.449 200.75C463.099 197.45 459.259 194.87 455.019 193.18C450.789 191.45 446.239 190.64 441.539 190.68V190.67Z" fill="#EDEDED"/>
</g>
<g style="mix-blend-mode:multiply">
<path d="M485.098 218.82C487.308 220.59 489.188 222.64 490.988 224.76C492.748 226.91 494.418 229.13 495.748 231.64C493.528 229.87 491.658 227.82 489.858 225.7C488.108 223.55 486.428 221.33 485.098 218.82Z" fill="#EDEDED"/>
</g>
<g style="mix-blend-mode:multiply">
<path d="M467.348 242.01C470.488 243.79 473.078 246.5 475.038 249.55C476.958 252.63 478.288 256.13 478.548 259.73C477.168 256.41 475.678 253.27 473.798 250.33C471.958 247.37 469.758 244.68 467.348 242.01Z" fill="#EDEDED"/>
</g>
<g style="mix-blend-mode:multiply">
<path d="M479.559 265.29C483.169 271.12 485.309 277.88 486.099 284.73C486.849 291.59 486.269 298.65 484.039 305.14C485.139 298.38 485.419 291.6 484.639 284.89C483.909 278.18 482.139 271.62 479.559 265.28V265.29Z" fill="#EDEDED"/>
</g>
<g style="mix-blend-mode:multiply">
<path d="M491.868 289.4C492.498 291.03 492.688 292.67 492.778 294.32C492.808 295.97 492.738 297.63 492.228 299.3C491.598 297.67 491.398 296.03 491.318 294.38C491.288 292.73 491.358 291.07 491.868 289.4Z" fill="#EDEDED"/>
</g>
<g style="mix-blend-mode:multiply">
<path d="M375.01 242.28C375.6 241.05 376.77 240.17 377.97 239.52C379.2 238.9 380.5 238.5 381.75 238.06C384.24 237.18 386.71 236.25 389.08 235.13C391.48 234.05 393.79 232.79 396.07 231.45C398.35 230.11 400.53 228.6 402.73 227.07C399.11 231.04 394.58 234.18 389.69 236.45C387.23 237.57 384.68 238.49 382.06 239.13C379.51 239.79 376.78 240.18 375 242.27L375.01 242.28Z" fill="#EDEDED"/>
</g>
<g style="mix-blend-mode:multiply">
<path d="M373.551 256.92C375.501 254.47 377.731 252.36 380.031 250.32C382.371 248.32 384.781 246.41 387.481 244.82C385.541 247.27 383.301 249.39 381.001 251.42C378.661 253.41 376.251 255.33 373.551 256.92Z" fill="#EDEDED"/>
</g>
<g style="mix-blend-mode:multiply">
<path d="M392.891 227.85C395.361 224.38 398.641 221.51 402.251 219.22C405.881 216.97 409.901 215.27 414.101 214.57C410.251 216.37 406.541 218.24 403.031 220.46C399.491 222.65 396.191 225.17 392.891 227.85Z" fill="#EDEDED"/>
</g>
<g style="mix-blend-mode:multiply">
<path d="M443.471 206.14C448.501 210.19 452.551 215.48 455.501 221.27C458.421 227.08 460.281 233.46 460.571 239.92C459.141 233.63 457.081 227.59 454.191 221.93C451.341 216.25 447.691 211.01 443.461 206.14H443.471Z" fill="#EDEDED"/>
</g>
<g style="mix-blend-mode:multiply">
<path d="M419.418 201.74C422.008 199.7 424.598 197.83 427.078 195.8C429.598 193.81 431.988 191.69 434.538 189.6C432.858 192.45 430.548 194.86 427.998 196.94C425.418 198.98 422.558 200.71 419.418 201.74Z" fill="#EDEDED"/>
</g>
<g style="mix-blend-mode:multiply">
<path d="M462.121 250.55C464.231 251.75 465.831 253.73 466.891 255.91C467.911 258.11 468.431 260.61 468.021 263C467.281 260.7 466.561 258.58 465.571 256.54C464.621 254.48 463.431 252.57 462.121 250.55Z" fill="#EDEDED"/>
</g>
<g style="mix-blend-mode:multiply">
<path d="M364.941 301.49C364.531 297.55 365.631 293.47 367.641 290.01C369.681 286.57 372.711 283.62 376.361 282.07C373.341 284.6 370.811 287.47 368.901 290.75C366.961 294.02 365.671 297.62 364.941 301.49Z" fill="#EDEDED"/>
</g>
<g style="mix-blend-mode:multiply">
<path d="M384.449 258.52C386.199 255.06 388.299 251.85 390.489 248.7C392.729 245.58 395.049 242.53 397.729 239.73C395.989 243.19 393.879 246.4 391.689 249.55C389.449 252.66 387.129 255.72 384.449 258.52Z" fill="#EDEDED"/>
</g>
<g style="mix-blend-mode:multiply">
<path d="M325.648 265.66C326.428 263.15 327.588 260.85 328.838 258.61C330.138 256.39 331.528 254.23 333.298 252.28C332.518 254.8 331.358 257.09 330.108 259.33C328.808 261.55 327.418 263.71 325.648 265.66Z" fill="#EDEDED"/>
</g>
<g style="mix-blend-mode:multiply">
<path d="M324.289 254.2C324.429 251.83 325.289 249.59 326.459 247.56C327.679 245.56 329.239 243.73 331.249 242.47C330.069 244.52 328.839 246.36 327.719 248.31C326.549 250.23 325.519 252.19 324.289 254.21V254.2Z" fill="#EDEDED"/>
</g>
<g style="mix-blend-mode:multiply">
<path d="M474.061 265.16C475.051 267.38 475.621 269.67 476.081 271.99C476.491 274.32 476.791 276.66 476.661 279.09C475.661 276.87 475.101 274.58 474.641 272.26C474.241 269.93 473.931 267.59 474.061 265.16Z" fill="#EDEDED"/>
</g>
<g style="mix-blend-mode:multiply">
<path d="M477.65 291.27C478.94 296.16 479.42 301.24 479.43 306.29C479.38 311.34 478.85 316.41 477.52 321.29C477.71 316.24 477.97 311.27 477.96 306.28C478.01 301.29 477.8 296.32 477.65 291.27Z" fill="#EDEDED"/>
</g>
<g style="mix-blend-mode:multiply">
<path d="M373.788 314.33C373.838 314.73 373.898 315.13 373.918 315.54H373.558C372.968 312.25 373.088 308.82 373.828 305.54C374.568 302.27 375.858 299.08 377.848 296.39C376.818 299.57 375.888 302.66 375.248 305.84C374.598 309.01 374.168 312.22 373.918 315.52H373.558C373.618 315.12 373.698 314.73 373.778 314.33H373.788Z" fill="#EDEDED"/>
</g>
<g style="mix-blend-mode:multiply">
<path d="M381.848 284.46C382.158 282.51 382.858 280.76 383.648 279.05C384.488 277.36 385.428 275.72 386.768 274.27C386.468 276.22 385.768 277.97 384.968 279.68C384.118 281.37 383.178 283.01 381.848 284.46Z" fill="#EDEDED"/>
</g>
<g style="mix-blend-mode:multiply">
<path d="M386.721 308.47C385.951 302.63 386.881 296.56 389.021 291.03C391.201 285.51 394.621 280.42 399.161 276.65C395.461 281.21 392.471 286.19 390.391 291.56C388.271 296.92 387.101 302.61 386.721 308.47Z" fill="#EDEDED"/>
</g>
<g style="mix-blend-mode:multiply">
<path d="M392.148 270.64C394.338 268.21 396.438 265.87 398.318 263.32C400.238 260.8 401.908 258.13 403.628 255.36C402.968 258.57 401.438 261.57 399.488 264.2C397.498 266.81 395.048 269.11 392.148 270.64Z" fill="#EDEDED"/>
</g>
<g style="mix-blend-mode:multiply">
<path d="M409.508 243.85C409.738 241.97 410.378 240.28 411.098 238.62C411.878 236.99 412.748 235.4 414.018 234C413.788 235.88 413.158 237.58 412.428 239.23C411.648 240.86 410.778 242.44 409.508 243.85Z" fill="#EDEDED"/>
</g>
<g style="mix-blend-mode:multiply">
<path d="M432.48 203.95C434.89 206.16 436.67 209 437.94 212.01C439.16 215.04 439.9 218.31 439.75 221.58C438.76 218.47 437.81 215.48 436.59 212.57C435.41 209.64 433.98 206.85 432.48 203.95Z" fill="#EDEDED"/>
</g>
<g style="mix-blend-mode:multiply">
<path d="M443.371 228.27C447.431 230.46 450.771 233.97 453.121 237.98C455.441 242.01 456.841 246.65 456.731 251.26C455.691 246.79 454.121 242.58 451.851 238.72C449.621 234.84 446.741 231.39 443.371 228.27Z" fill="#EDEDED"/>
</g>
<g style="mix-blend-mode:multiply">
<path d="M449.068 252.01C449.408 256.81 451.668 260.92 454.078 264.94C456.498 268.99 458.908 273.09 460.898 277.43C457.928 273.69 455.318 269.75 452.818 265.69C451.618 263.63 450.478 261.48 449.738 259.16C448.998 256.86 448.638 254.37 449.068 252V252.01Z" fill="#EDEDED"/>
</g>
<g style="mix-blend-mode:multiply">
<path d="M464.919 275.08C465.879 279.36 466.129 283.76 465.979 288.13C465.779 292.5 465.179 296.87 463.879 301.05L464.519 288.07L464.919 275.08Z" fill="#EDEDED"/>
</g>
<g style="mix-blend-mode:multiply">
<path d="M392.91 324.21C391.19 319.79 391.05 314.77 392.11 310.11C393.21 305.45 395.55 301.01 399.05 297.81C396.45 301.75 394.56 305.97 393.53 310.44C392.47 314.9 392.3 319.53 392.9 324.21H392.91Z" fill="#EDEDED"/>
</g>
<g style="mix-blend-mode:multiply">
<path d="M413.379 227.08C414.159 225.25 415.279 223.7 416.479 222.21C417.719 220.76 419.049 219.38 420.709 218.28C419.929 220.11 418.809 221.67 417.609 223.15C416.369 224.6 415.039 225.98 413.379 227.08Z" fill="#EDEDED"/>
</g>
<g style="mix-blend-mode:multiply">
<path d="M428.451 227.78C430.611 230.49 432.091 233.68 433.101 236.99C434.061 240.31 434.551 243.8 434.201 247.24C433.401 243.88 432.671 240.62 431.691 237.4C430.761 234.17 429.601 231.03 428.441 227.78H428.451Z" fill="#EDEDED"/>
</g>
<g style="mix-blend-mode:multiply">
<path d="M427.66 207.29C430.24 209.68 432.03 212.88 433.07 216.25C434.08 219.64 434.36 223.29 433.55 226.71C433.21 223.23 432.67 219.9 431.67 216.68C430.71 213.44 429.32 210.37 427.66 207.29Z" fill="#EDEDED"/>
</g>
<g style="mix-blend-mode:multiply">
<path d="M457.098 289.02C458.238 293.39 458.578 297.95 458.438 302.46C458.248 306.97 457.568 311.49 456.098 315.76C456.438 311.26 456.828 306.85 456.968 302.4C457.158 297.96 457.098 293.53 457.088 289.02H457.098Z" fill="#EDEDED"/>
</g>
<g style="mix-blend-mode:multiply">
<path d="M405.141 282.93C407.231 278.83 409.051 274.71 410.381 270.4C411.761 266.11 412.631 261.69 413.291 257.13C413.791 261.72 413.161 266.41 411.781 270.84C410.361 275.25 408.181 279.46 405.141 282.93Z" fill="#EDEDED"/>
</g>
<g style="mix-blend-mode:multiply">
<path d="M425.359 243.58C426.059 247.03 426.669 250.39 427.519 253.72C428.319 257.06 429.339 260.32 430.319 263.7C428.299 260.81 426.969 257.48 426.099 254.07C425.289 250.64 424.919 247.08 425.359 243.58Z" fill="#EDEDED"/>
</g>
<g style="mix-blend-mode:multiply">
<path d="M436.93 271.03C438.89 274.76 439.91 278.95 440.24 283.16C440.52 287.37 440.11 291.67 438.71 295.64C438.98 291.45 439.1 287.36 438.78 283.27C438.51 279.17 437.81 275.14 436.93 271.04V271.03Z" fill="#EDEDED"/>
</g>
<g style="mix-blend-mode:multiply">
<path d="M414.65 288.8C413.69 292.55 412.89 296.23 412.5 299.98C412.06 303.73 412.02 307.49 412.12 311.36C410.89 307.68 410.63 303.69 411.04 299.82C411.5 295.95 412.63 292.12 414.65 288.8Z" fill="#EDEDED"/>
</g>
<g style="mix-blend-mode:multiply">
<path d="M404.451 313.19C404.581 315.02 404.601 316.67 404.771 318.34C404.891 320.02 405.161 321.64 405.351 323.47C404.101 322.1 403.491 320.28 403.311 318.47C403.181 316.65 403.461 314.76 404.451 313.19Z" fill="#EDEDED"/>
</g>
<g style="mix-blend-mode:multiply">
<path d="M445.379 327.43C446.779 323.8 447.979 320.22 448.749 316.52C449.569 312.82 449.949 309.07 450.169 305.19C451.099 308.98 450.979 313 450.179 316.83C449.329 320.65 447.779 324.36 445.379 327.43Z" fill="#EDEDED"/>
</g>
<g style="mix-blend-mode:multiply">
<path d="M465.871 323.87C465.871 321.24 466.301 318.71 466.831 316.2C467.411 313.7 468.101 311.23 469.221 308.85C469.221 311.48 468.791 314.01 468.261 316.52C467.671 319.02 466.991 321.49 465.871 323.87Z" fill="#EDEDED"/>
</g>
<g style="mix-blend-mode:multiply">
<path d="M470.898 298.18C470.228 295.39 469.998 292.58 469.868 289.77C469.798 286.96 469.828 284.14 470.298 281.31C470.968 284.1 471.208 286.91 471.328 289.72C471.398 292.53 471.368 295.35 470.898 298.18Z" fill="#EDEDED"/>
</g>
<g style="mix-blend-mode:multiply">
<path d="M461.871 270.67C460.651 268.84 459.851 266.87 459.141 264.86C458.491 262.84 457.931 260.78 457.801 258.58C459.021 260.41 459.821 262.38 460.531 264.39C461.181 266.41 461.731 268.47 461.871 270.67Z" fill="#EDEDED"/>
</g>
<g style="mix-blend-mode:multiply">
<path d="M447.548 225.59C446.568 224.09 446.008 222.47 445.548 220.83C445.138 219.17 444.838 217.49 444.968 215.7C445.958 217.2 446.508 218.82 446.968 220.46C447.368 222.12 447.668 223.8 447.548 225.59Z" fill="#EDEDED"/>
</g>
<g style="mix-blend-mode:multiply" opacity="0.5">
<path d="M514.011 281.97C517.181 299.13 513.341 304.99 497.181 312.32C463.571 327.57 439.201 338.83 410.171 334.73C407.881 330.1 407.301 324.61 408.031 319.45C409.001 312.53 412.021 306.11 415.271 299.92C422.251 286.72 430.401 274.14 436.861 260.71C443.341 247.28 448.151 232.64 447.771 217.75C447.591 210.1 445.921 202.41 442.671 195.49C440.561 190.94 433.111 184.61 431.471 179.89C448.601 182.35 464.991 191.24 477.571 203.62C480.741 205.76 484.021 207.78 487.511 209.54C485.551 209.04 483.581 208.48 481.641 207.87C481.821 208.08 482.021 208.25 482.201 208.46C483.931 210.45 485.541 212.48 487.131 214.59L487.251 214.47C487.461 214.79 487.691 215.09 487.901 215.41C489.571 216.29 491.361 217.08 493.181 217.7C491.831 217.58 490.451 217.38 489.071 217.11C491.711 220.81 494.731 224.3 498.101 227.52C496.931 226.99 495.751 226.43 494.581 225.82C495.721 227.78 496.811 229.78 497.841 231.77L501.481 236.05L499.311 234.7C500.011 236.17 500.721 237.66 501.391 239.19L505.261 243.97L502.711 242.3C502.891 242.74 503.091 243.18 503.271 243.62C506.581 247.32 508.641 251.8 509.251 256.32C508.461 254.71 507.461 253.24 506.351 251.92C506.821 253.33 507.291 254.76 507.731 256.2C509.751 259.75 511.481 263.39 512.831 267.14C511.861 265.85 510.871 264.59 509.841 263.39C510.251 264.94 510.661 266.5 511.041 268.05L514.211 274.33L512.041 272.22C512.301 273.45 512.571 274.65 512.831 275.89L515.211 282.58L513.801 280.82C513.891 281.23 513.981 281.61 514.031 281.99L514.011 281.97Z" fill="#C4C4C4"/>
</g>
<path d="M325.428 7.86011V155.72L311.898 163.58V15.7201L325.428 7.86011Z" fill="#A1A1A1"/>
<path d="M311.899 15.7201V163.58L298.289 155.72V7.86011L311.899 15.7201Z" fill="#717171"/>
<path d="M325.429 7.86L311.899 15.72L298.289 7.86L311.819 0L325.429 7.86Z" fill="#D6D6D6"/>
<path d="M302.472 74.3501L305.522 76.1101L305.592 102.38L170.222 180.54L167.172 178.77L167.102 152.5L302.472 74.3501Z" fill="#717171"/>
<path d="M170.152 154.27L170.222 180.54L305.592 102.38L305.522 76.1101L170.152 154.27Z" fill="#CFCFCF"/>
<path d="M294.203 104.98C298.073 103.24 301.873 101.25 305.593 99.0302V97.9302C301.423 100.22 296.313 103.47 294.203 104.98Z" fill="#8C8C8C"/>
<path d="M271.773 99.4002C276.993 96.8902 301.013 83.2502 305.543 80.0002V79.7102C302.763 81.3502 292.513 86.0102 271.773 99.4002Z" fill="#8C8C8C"/>
<path d="M284.321 105.85C281.551 108.99 277.621 111.26 274.961 110.77C277.271 111.92 281.601 109.86 284.391 106.87C288.051 102.98 284.181 107.5 305.581 94.06V93.73C300.961 95.95 296.301 98.58 291.671 101.18C289.211 102.56 286.621 103.25 284.321 105.84V105.85Z" fill="#8C8C8C"/>
<path d="M289.402 98.3602C294.962 95.8902 300.422 92.9802 305.572 89.4502V88.7002C300.752 91.3302 293.912 95.2102 289.402 98.3602Z" fill="#8C8C8C"/>
<path d="M253.98 128.26C262.76 123.99 287.57 109.19 289.69 107.77C274.58 115.43 263.67 121.94 253.98 128.26Z" fill="#8C8C8C"/>
<path d="M265.992 107.59L274.082 103.04C276.562 101.61 278.242 99.7202 280.202 98.5802C283.402 96.7302 284.032 97.5302 286.152 96.4702C288.272 95.3902 287.892 94.8802 291.802 93.0702C295.662 91.2902 295.382 90.6902 298.472 88.9002C300.442 87.7602 303.172 86.2002 305.552 84.5702V84.1702C296.742 89.1402 298.282 87.9302 295.512 89.8802C294.602 90.5102 293.612 91.2102 292.602 91.6502C286.552 94.3002 288.982 94.5102 283.342 96.1702C278.172 97.7802 280.342 98.5702 265.992 107.59Z" fill="#8C8C8C"/>
<path d="M279.121 102.18C277.281 103.43 275.711 105.44 273.901 106.7C269.941 109.44 265.921 111.38 261.951 113.62C257.721 116.01 253.401 118.85 249.391 121.59L269.301 110.7C276.791 106.38 275.511 105.93 278.541 103.63C286.591 97.5101 284.521 103.72 281.101 105.69C279.791 106.45 278.481 106.69 277.191 107.13C279.321 106.77 280.971 106.56 282.711 105.04C284.101 103.83 285.641 101.01 284.361 100.15C283.171 99.3601 280.311 101.37 279.121 102.17V102.18Z" fill="#8C8C8C"/>
<path d="M239.082 122.86C246.362 119.67 253.662 115.31 260.192 110.72C252.842 114.02 242.242 120.52 239.082 122.86Z" fill="#8C8C8C"/>
<path d="M237.013 133.18C232.503 135.79 238.353 131.96 227.473 138.82C224.503 140.74 221.833 141.98 221.793 142.01C223.383 141.18 224.923 140.77 226.533 139.89C228.223 138.96 234.563 135.51 236.213 134.63C239.943 132.66 246.243 128.19 249.993 126.63C252.813 125.44 257.073 122.16 261.403 119.66C265.123 117.51 267.593 116.21 270.443 114.45C267.463 116.04 260.833 119.17 259.273 120.07C257.053 121.35 254.823 122.94 252.593 124.23C250.023 125.71 249.083 125.83 246.973 127.05C241.583 130.09 241.843 130.4 237.023 133.18H237.013Z" fill="#8C8C8C"/>
<path d="M215.41 150.43C226.74 144.3 230.49 143.15 249.42 130.78C241.66 134.41 223.73 144.94 215.41 150.43Z" fill="#8C8C8C"/>
<path d="M225.621 125.84C227.591 124.81 229.131 124.55 231.051 123.27C231.371 123.06 261.691 105.76 265.981 102.84C264.081 103.84 262.461 104.23 260.561 105.35C258.451 106.59 231.871 121.67 225.621 125.84Z" fill="#8C8C8C"/>
<path d="M214.312 143.99C215.472 143.32 216.642 142.39 217.342 141.08C215.582 143.85 210.662 145.1 210.232 144.68C209.072 143.58 214.572 140.14 216.122 139.49C219.082 138.24 220.802 139.84 243.772 124.93C235.772 129.1 223.562 136.02 220.572 137.09C218.732 137.75 217.052 137.89 215.162 138.93C207.702 142.98 207.522 147.91 214.312 143.98V143.99Z" fill="#8C8C8C"/>
<path d="M208.761 139.77C203.801 143.36 198.801 145.55 193.621 149.02C199.871 145.79 203.691 144.46 208.541 141C210.651 139.48 210.181 139.18 212.891 137.61C215.781 135.94 218.541 135.36 221.421 133.7C225.211 131.49 228.911 129.1 232.601 126.74C232.601 126.74 219.001 133.93 218.911 133.97C215.321 134.71 211.431 136.79 208.751 139.77H208.761Z" fill="#8C8C8C"/>
<path d="M185.32 167.8C194.51 163.39 203.45 158.16 211.58 152.59C201.69 157.36 190.15 164.51 185.32 167.8Z" fill="#8C8C8C"/>
<path d="M195.223 157.57C204.653 153.14 201.883 154.34 207.613 151.03C211.113 149.01 212.923 149.47 217.683 144.59C209.463 150.9 211.673 145.79 195.223 157.57Z" fill="#8C8C8C"/>
<path d="M170.23 176.03V176.94C172.57 175.76 178.02 172.76 181.57 170.02C177.78 171.45 172.8 174.36 170.23 176.03Z" fill="#8C8C8C"/>
<path d="M170.211 171.67V172.58C184.531 164.31 188.081 162.03 192.791 158.9C174.991 168.3 175.001 168.6 170.211 171.67Z" fill="#8C8C8C"/>
<path d="M170.203 167.07V167.71C176.763 164.21 200.023 150.67 206.143 146.58C188.133 156.07 192.103 153.84 170.203 167.07Z" fill="#8C8C8C"/>
<path d="M170.191 162.27V163.34C170.681 163.08 187.761 152.73 188.011 152.55C169.061 162 179.301 157.12 170.191 162.28V162.27Z" fill="#8C8C8C"/>
<path d="M170.172 157.73V158.07C172.292 156.95 211.562 134.98 220.502 128.96C201.442 139.55 204.912 136.61 170.172 157.73Z" fill="#8C8C8C"/>
<path d="M302.472 27.6201L305.522 29.3901L305.592 55.6601L170.222 133.82L167.172 132.05L167.102 105.78L302.472 27.6201Z" fill="#717171"/>
<path d="M170.152 107.55L170.222 133.82L305.592 55.6601L305.522 29.3901L170.152 107.55Z" fill="#CFCFCF"/>
<path d="M170.203 125.77V126.19C177.863 122.39 207.183 104.69 209.313 103.28C193.763 110.73 181.613 118.97 170.203 125.77Z" fill="#8C8C8C"/>
<path d="M215.113 99.9402C216.443 99.3802 225.253 94.5502 226.633 93.7502C231.343 91.0602 234.883 90.7702 236.853 87.9602C234.573 90.3402 231.173 90.1202 227.603 92.0602C220.363 96.0502 218.773 97.3602 215.123 99.9302L215.113 99.9402Z" fill="#8C8C8C"/>
<path d="M191.68 108.68C202.16 103.16 212.2 98.08 225.9 89.05C216.53 93.62 197.07 105.1 191.68 108.68Z" fill="#8C8C8C"/>
<path d="M254.801 81.7301C270.231 73.4901 295.031 58.9301 305.581 52.4301V52.1301C284.861 62.9101 256.911 80.4601 254.801 81.7201V81.7301Z" fill="#8C8C8C"/>
<path d="M293.742 40.5301C297.622 38.9801 302.972 35.8501 305.532 34.1701V33.3501C302.522 34.7501 296.902 38.0501 293.742 40.5401V40.5301Z" fill="#8C8C8C"/>
<path d="M287.289 58.0601C293.489 55.1001 299.599 51.8001 305.559 48.2201V47.0901C303.439 48.2601 293.339 54.0101 287.289 58.0601Z" fill="#8C8C8C"/>
<path d="M282.512 51.4002C290.592 47.3802 303.622 40.0602 305.542 38.8502V37.9102C294.832 43.8702 283.132 50.9702 282.512 51.4002Z" fill="#8C8C8C"/>
<path d="M263.73 57.8301C272.29 53.8701 282.19 47.8701 289.99 42.6201C282.63 46.1301 269.94 53.6601 263.73 57.8301Z" fill="#8C8C8C"/>
<path d="M257.613 65.8802C264.883 62.4902 273.283 57.7902 280.093 52.9502C275.563 54.8602 261.853 62.7102 257.613 65.8802Z" fill="#8C8C8C"/>
<path d="M242.691 83.8703C253.941 78.3203 270.921 68.0803 281.681 61.5603C265.611 69.5103 246.191 81.5703 242.691 83.8703Z" fill="#8C8C8C"/>
<path d="M232.834 87.3101C234.934 86.2901 237.084 84.6701 238.664 82.7801C237.444 84.0301 232.274 87.9201 230.894 86.9601C230.354 86.5901 230.574 85.4401 231.234 84.5901C231.924 83.7101 232.934 82.9601 233.944 82.3801C241.454 78.0501 233.924 86.9501 265.414 66.1301C247.734 75.4301 243.604 79.0501 239.224 79.5901C230.034 80.6901 227.064 90.0801 232.834 87.3101Z" fill="#8C8C8C"/>
<path d="M225.883 79.7503C228.003 78.7303 249.633 67.0603 259.893 60.0703C244.023 67.9803 231.773 75.8903 225.883 79.7503Z" fill="#8C8C8C"/>
<path d="M209.344 107.93C223.714 100.82 237.004 92.7001 249.694 84.3701C237.394 91.0101 225.604 97.5101 209.344 107.93Z" fill="#8C8C8C"/>
<path d="M224.305 84.8302C221.015 86.7302 222.825 84.8802 204.875 96.5102C206.985 95.4102 228.195 83.8302 230.795 81.3902C235.995 76.5102 237.915 77.5702 240.945 76.0002C243.025 74.9302 245.085 73.1902 247.205 72.1102C249.355 71.0202 251.525 69.8202 253.535 68.5002C250.205 70.2902 246.905 71.4202 243.565 73.5602C242.075 74.5202 240.525 75.3602 238.805 75.7802C232.015 77.4102 232.285 80.2302 224.315 84.8302H224.305Z" fill="#8C8C8C"/>
<path d="M185.613 102.92C196.153 97.5801 210.823 89.0001 221.333 82.1501C209.813 87.8201 192.713 98.2401 185.613 102.92Z" fill="#8C8C8C"/>
<path d="M170.211 130.28V130.64C177.201 127.04 201.531 112.8 203.531 111.45C189.561 118.42 183.401 121.83 170.211 130.28Z" fill="#8C8C8C"/>
<path d="M170.191 120.79V121.71C174.551 119.55 184.061 113.61 185.911 112.25C179.541 115.06 182.731 113.41 170.191 120.79Z" fill="#8C8C8C"/>
<path d="M170.172 116.15V116.54C176.442 113.2 195.262 102.63 200.272 99.1902C188.672 104.89 175.752 112.53 170.172 116.15Z" fill="#8C8C8C"/>
<path d="M170.16 111.31V112.53C172.28 111.31 177.84 107.96 181.1 105.65C177.1 107.39 174 109.09 170.16 111.31Z" fill="#8C8C8C"/>
<path d="M288.412 52.2602C285.992 53.7402 286.052 54.0502 283.112 55.7502C274.132 60.9302 272.212 61.9602 269.152 63.9602C282.162 57.8302 285.532 55.0402 289.842 52.5602C292.732 50.8902 295.272 49.7202 298.032 48.1202C301.942 45.8702 301.292 45.7102 305.542 43.2502V42.6802C303.812 43.5002 302.302 44.4502 300.712 45.5502C299.012 46.7202 297.392 47.4102 295.612 48.4002C292.882 49.9202 293.982 48.9102 288.402 52.2702L288.412 52.2602Z" fill="#8C8C8C"/>
<path d="M302.472 121.07L305.522 122.83L305.592 149.1L170.222 227.26L167.172 225.49L167.102 199.22L302.472 121.07Z" fill="#717171"/>
<path d="M170.152 200.99L170.222 227.26L305.592 149.1L305.522 122.83L170.152 200.99Z" fill="#CFCFCF"/>
<path d="M170.211 218.47V218.92C172.331 217.7 196.891 204.34 209.321 196.25C193.171 204.35 172.321 217.1 170.211 218.46V218.47Z" fill="#8C8C8C"/>
<path d="M215.121 192.87C222.521 189.54 229.721 185.25 236.231 180.65C228.911 183.95 221.611 188.31 215.121 192.87Z" fill="#8C8C8C"/>
<path d="M287.312 151.23C291.852 148.95 301.762 143.44 305.582 141.21V140.1C299.292 143.5 293.182 147.25 287.312 151.23Z" fill="#8C8C8C"/>
<path d="M263.742 150.82C268.402 148.73 279.222 142.92 290.002 135.64C286.342 137.29 270.602 146.2 263.742 150.82Z" fill="#8C8C8C"/>
<path d="M257.621 159.08C261.931 157.24 271.541 151.94 280.091 145.95C276.061 147.8 265.901 153.24 257.621 159.08Z" fill="#8C8C8C"/>
<path d="M282.523 144.43C294.413 138.56 281.763 145.5 298.113 136.06C301.193 134.28 298.383 136.34 305.503 131.81C305.563 131.78 305.553 130.92 305.553 130.92C303.353 132.19 285.573 142.34 282.523 144.43Z" fill="#8C8C8C"/>
<path d="M269.172 157.181C271.282 156.151 288.322 146.871 305.562 136.421V135.811C299.162 139.131 289.502 144.431 269.172 157.181Z" fill="#8C8C8C"/>
<path d="M254.811 174.57L270.041 166.46C272.161 165.24 282.281 158.99 287.941 156.28C288.981 155.79 295.001 151.64 296.921 150.53C298.791 149.45 299.571 149.42 300.921 148.64C301.801 148.13 303.821 146.33 305.581 145.25V144.98C303.891 145.89 302.181 147.41 300.551 148.23C298.441 149.3 299.331 148.31 295.481 150.53C289.751 153.84 291.421 153.63 287.191 155.54C284.511 156.73 281.761 158.55 279.091 159.88C277.671 160.59 256.101 173.73 254.801 174.57H254.811Z" fill="#8C8C8C"/>
<path d="M242.711 176.95C244.831 175.86 272.681 160.53 281.701 154.51C269.301 160.9 257.581 167.08 242.711 176.95Z" fill="#8C8C8C"/>
<path d="M231.543 178.83C244.083 172.76 263.313 160.87 265.423 159.44C253.453 165.37 239.133 173.75 231.543 178.83Z" fill="#8C8C8C"/>
<path d="M225.902 172.86C228.022 171.83 244.822 162.92 259.912 153C253.762 156 236.472 165.72 225.902 172.86Z" fill="#8C8C8C"/>
<path d="M209.344 200.921C211.114 200.001 212.684 199.521 214.414 198.451C220.964 194.421 235.954 186.611 249.704 177.661C243.974 180.501 221.684 192.831 209.344 200.921Z" fill="#8C8C8C"/>
<path d="M204.883 189.34C230.733 176.21 251.413 162.47 253.533 161.19C251.413 162.3 217.863 181 204.883 189.34Z" fill="#8C8C8C"/>
<path d="M200.243 197.19C197.183 200.14 195.503 199.57 191.703 201.85C194.053 200.99 191.513 201.56 195.873 200.51C199.263 199.7 198.463 198.61 208.553 192.57C209.533 191.98 223.583 183.71 225.933 182.15C219.193 185.54 205.043 192.6 200.253 197.2L200.243 197.19Z" fill="#8C8C8C"/>
<path d="M170.23 223.35V223.7C172.06 222.96 194 210.81 203.55 204.15C191.34 210.11 172.86 221.95 170.23 223.36V223.35Z" fill="#8C8C8C"/>
<path d="M189.891 193.49C188.531 194.27 186.901 195.06 185.621 195.93C186.961 195.23 189.981 193.92 191.111 193.26C194.081 191.54 194.151 190.15 198.951 187.91C202.491 186.27 198.461 190.55 221.331 175.26C221.001 175.42 206.371 183.45 206.341 183.47C205.441 183.99 204.291 184.91 203.351 185.45C201.691 186.41 201.831 185.72 200.191 186.32C195.071 188.13 193.841 191.2 189.891 193.48V193.49Z" fill="#8C8C8C"/>
<path d="M170.203 213.72V214.64C175.333 212.08 183.493 206.82 185.913 205.07C179.543 207.91 173.183 212 170.203 213.72Z" fill="#8C8C8C"/>
<path d="M190.001 197.621C186.791 199.471 189.051 197.621 170.191 209.271V209.581C173.851 207.671 189.801 198.851 189.801 198.851C193.441 196.751 194.891 193.401 198.511 191.631C202.411 189.691 201.561 194.221 194.461 197.371C200.701 195.481 202.821 190.631 200.551 190.271C197.091 189.701 193.701 195.501 190.001 197.631V197.621Z" fill="#8C8C8C"/>
<path d="M170.172 204.33V205.51C173.962 203.36 177.632 201 181.112 198.51C178.682 199.6 172.242 203.14 170.172 204.33Z" fill="#8C8C8C"/>
<path d="M293.75 133.58C297.07 132.3 303.41 128.58 305.54 127.2V126.4C301.77 128.11 296.97 131.08 293.75 133.59V133.58Z" fill="#8C8C8C"/>
<path d="M148.809 94.0503V241.91L162.349 249.77V101.92L148.809 94.0503Z" fill="#717171"/>
<path d="M162.348 101.92V249.77L175.958 241.91V94.0601L162.348 101.92Z" fill="#A1A1A1"/>
<path d="M148.809 94.0502L162.349 101.92L175.959 94.0602L162.429 86.1902L148.809 94.0502Z" fill="#D6D6D6"/>
<path d="M153.081 159.17L156.131 160.93L156.201 187.2L20.8309 265.36L17.7809 263.59L17.7109 237.32L153.081 159.17Z" fill="#717171"/>
<path d="M20.75 239.09L20.83 265.36L156.2 187.2L156.13 160.93L20.75 239.09Z" fill="#CFCFCF"/>
<path d="M144.812 189.8C148.682 188.06 152.482 186.07 156.202 183.85V182.75C152.032 185.04 146.922 188.29 144.812 189.8Z" fill="#8C8C8C"/>
<path d="M122.383 184.22C129.193 180.94 152.993 167.09 156.153 164.82V164.53C153.373 166.17 142.983 170.92 122.383 184.22Z" fill="#8C8C8C"/>
<path d="M134.93 190.67C132.16 193.81 128.23 196.08 125.57 195.59C127.88 196.74 132.21 194.68 135 191.69C138.71 187.75 134.68 192.38 156.19 178.88V178.55C151.57 180.77 146.91 183.4 142.28 186C139.82 187.38 137.23 188.07 134.93 190.66V190.67Z" fill="#8C8C8C"/>
<path d="M140.012 183.18C145.572 180.71 151.032 177.8 156.182 174.27V173.52C151.362 176.15 144.522 180.03 140.012 183.18Z" fill="#8C8C8C"/>
<path d="M104.59 213.08C114.5 208.26 138.19 194.01 140.3 192.59C125.19 200.25 114.28 206.76 104.59 213.08Z" fill="#8C8C8C"/>
<path d="M116.602 192.41C126.662 187.56 128.012 185.02 130.812 183.4C134.012 181.55 134.642 182.35 136.762 181.29C137.722 180.8 138.702 179.98 139.622 179.37C141.482 178.11 143.092 177.76 144.862 176.62C146.972 175.28 146.362 175.29 149.092 173.72C151.062 172.58 153.792 171.02 156.172 169.39V168.99C147.362 173.96 148.902 172.75 146.132 174.7C142.352 177.34 141.912 176.62 138.402 179.11C136.822 180.23 135.752 180.46 133.962 180.99C128.792 182.6 130.962 183.39 116.612 192.41H116.602Z" fill="#8C8C8C"/>
<path d="M129.73 187C126.56 189.16 127.62 189.94 120.16 194.25C114.31 197.63 111.74 198.4 100 206.41C102.06 205.39 121.07 194.99 124.44 192.69C126.66 191.17 127.85 188.91 131.75 186.66C135.83 184.3 135.3 187.37 133.19 189.39C131.44 191.06 129.91 191.22 127.8 191.95C129.17 191.72 130.66 191.57 132.14 190.71C134.03 189.62 136.53 186.03 134.97 184.97C133.78 184.18 130.92 186.19 129.73 186.99V187Z" fill="#8C8C8C"/>
<path d="M89.6914 207.68C96.9714 204.49 104.271 200.13 110.801 195.54C103.451 198.84 92.8514 205.34 89.6914 207.68Z" fill="#8C8C8C"/>
<path d="M87.6206 218C86.3406 218.74 85.0506 219.29 83.7206 220.05C82.1806 220.94 76.5506 224.7 75.2306 225.39C74.2206 225.92 73.3706 226.2 72.3906 226.83C74.8506 225.54 75.6906 225.87 82.0906 221.84C83.7106 220.83 85.1506 220.32 86.8106 219.44C89.3106 218.12 94.9406 214.46 97.2106 213.15C99.7206 211.7 101.051 211.3 102.461 210.49C108.251 207.15 105.271 208.27 115.191 202.65C117.181 201.53 119.111 200.45 121.051 199.26C118.071 200.85 111.441 203.98 109.881 204.88C107.661 206.16 105.431 207.75 103.201 209.04C100.631 210.52 99.6906 210.64 97.5806 211.86C92.1906 214.9 92.4506 215.21 87.6306 217.99L87.6206 218Z" fill="#8C8C8C"/>
<path d="M66.0195 235.25C75.2295 230.26 81.2995 227.84 100.03 215.6C97.4595 216.8 75.9195 228.71 66.0195 235.25Z" fill="#8C8C8C"/>
<path d="M76.2305 210.66C77.8505 209.81 79.3905 209.42 81.0105 208.49C81.3005 208.32 82.7005 207.39 83.8005 206.75C85.8005 205.6 87.2505 205.08 88.4505 204.39C88.7505 204.22 116.17 187.94 116.59 187.66C114.81 188.59 113.12 189.05 111.33 190.08C108.7 191.6 83.1105 206.07 76.2405 210.66H76.2305Z" fill="#8C8C8C"/>
<path d="M64.9218 228.81C66.0818 228.14 67.2518 227.21 67.9518 225.9C66.1918 228.67 61.2718 229.92 60.8418 229.5C59.6818 228.4 65.1818 224.96 66.7318 224.31C70.0818 222.9 71.2418 224.76 94.3818 209.75C86.3818 213.92 74.1718 220.84 71.1818 221.91C69.3418 222.57 67.6618 222.71 65.7718 223.75C58.3118 227.8 58.1318 232.73 64.9218 228.8V228.81Z" fill="#8C8C8C"/>
<path d="M59.3705 224.59C54.4105 228.18 49.4105 230.37 44.2305 233.84C50.4805 230.61 54.3005 229.28 59.1505 225.82C61.2605 224.3 60.7905 224 63.5005 222.43C66.3905 220.76 69.1505 220.18 72.0305 218.52C75.8205 216.31 79.5205 213.92 83.2105 211.56C83.2105 211.56 69.6105 218.75 69.5205 218.79C65.9305 219.53 62.0405 221.61 59.3605 224.59H59.3705Z" fill="#8C8C8C"/>
<path d="M35.9297 252.62C45.1197 248.21 54.0597 242.98 62.1897 237.41C52.2997 242.18 40.7597 249.33 35.9297 252.62Z" fill="#8C8C8C"/>
<path d="M45.832 242.39C55.262 237.96 52.492 239.16 58.222 235.85C61.722 233.83 63.532 234.29 68.292 229.41C60.072 235.72 62.282 230.61 45.832 242.39Z" fill="#8C8C8C"/>
<path d="M20.8398 260.85V261.76C23.1798 260.58 28.6298 257.58 32.1798 254.84C28.3898 256.27 23.4098 259.18 20.8398 260.85Z" fill="#8C8C8C"/>
<path d="M20.8203 256.49V257.4C31.8103 251.06 32.5103 250.96 43.4003 243.72C25.9003 252.96 26.1903 253.04 20.8203 256.49Z" fill="#8C8C8C"/>
<path d="M20.8125 251.89V252.53C25.3225 250.12 49.4925 236.25 56.7525 231.4C38.8025 240.86 37.7125 241.68 20.8125 251.89Z" fill="#8C8C8C"/>
<path d="M20.8008 247.09V248.16C21.0808 248.02 38.3808 237.54 38.6208 237.36C19.2108 247.04 30.0308 241.86 20.8008 247.09Z" fill="#8C8C8C"/>
<path d="M20.7812 242.55V242.89C31.7913 237.09 36.2112 234.17 36.0012 234.29C37.5712 233.39 39.1612 232.95 40.7612 232.03C42.8712 230.81 54.3313 223.21 61.4013 219.87C65.4313 217.92 65.3013 217.07 67.7913 215.64C68.8913 215.01 70.0312 214.51 71.1113 213.79C59.4513 220.27 52.8413 223.08 20.7812 242.56V242.55Z" fill="#8C8C8C"/>
<path d="M153.081 112.44L156.131 114.21L156.201 140.48L20.8309 218.64L17.7809 216.87L17.7109 190.6L153.081 112.44Z" fill="#717171"/>
<path d="M20.75 192.37L20.83 218.64L156.2 140.48L156.13 114.21L20.75 192.37Z" fill="#CFCFCF"/>
<path d="M20.8125 210.59V211.01C28.4825 207.2 57.7825 189.52 59.9225 188.1C44.3725 195.55 32.2225 203.79 20.8125 210.59Z" fill="#8C8C8C"/>
<path d="M65.7227 184.76C67.0527 184.2 75.8627 179.37 77.2427 178.57C82.0527 175.82 85.5027 175.57 87.4627 172.78C85.2627 175.09 81.5227 175.08 78.2127 176.88C70.9727 180.87 69.3827 182.18 65.7327 184.75L65.7227 184.76Z" fill="#8C8C8C"/>
<path d="M42.2891 193.5C47.1491 190.94 60.6591 184.32 76.5091 173.87C69.1191 177.47 49.6991 188.58 42.2891 193.5Z" fill="#8C8C8C"/>
<path d="M109.47 163.69C107.51 164.82 107.08 165.55 105.41 166.55C120.85 158.31 150.55 140.73 156.19 137.25V136.95C152.55 138.85 147.62 141.93 147.08 142.2C139.09 146.09 107.36 164.9 109.47 163.68V163.69Z" fill="#8C8C8C"/>
<path d="M144.352 125.35C148.232 123.8 153.582 120.67 156.142 118.99V118.17C153.132 119.57 147.512 122.87 144.352 125.36V125.35Z" fill="#8C8C8C"/>
<path d="M137.898 142.88C144.098 139.92 150.208 136.62 156.168 133.04V131.91C154.048 133.08 143.948 138.83 137.898 142.88Z" fill="#8C8C8C"/>
<path d="M133.121 136.22C142.511 131.55 154.031 125.01 156.151 123.67V122.73C144.591 129.16 133.961 135.64 133.121 136.22Z" fill="#8C8C8C"/>
<path d="M114.34 142.65C119.58 140.22 129.59 134.86 140.6 127.44C132.79 131.16 119.33 139.3 114.34 142.65Z" fill="#8C8C8C"/>
<path d="M108.223 150.7C115.493 147.31 123.893 142.61 130.703 137.77C126.173 139.68 112.463 147.53 108.223 150.7Z" fill="#8C8C8C"/>
<path d="M93.3008 168.69C104.951 162.95 120.041 153.8 132.291 146.38C118.621 153.14 100.171 164.18 93.3008 168.69Z" fill="#8C8C8C"/>
<path d="M83.443 172.13C85.543 171.11 87.693 169.49 89.273 167.6C88.053 168.85 82.883 172.74 81.503 171.78C80.963 171.41 81.183 170.26 81.843 169.41C82.533 168.53 83.543 167.78 84.553 167.2C92.013 162.89 84.583 171.73 116.023 150.95C98.343 160.25 94.213 163.87 89.833 164.41C80.643 165.51 77.673 174.9 83.443 172.13Z" fill="#8C8C8C"/>
<path d="M76.4922 164.57C78.6022 163.55 100.632 151.61 110.502 144.89C91.7022 154.26 79.2622 162.75 76.4922 164.57Z" fill="#8C8C8C"/>
<path d="M59.9531 192.76C73.5031 186.06 94.9631 172.71 100.303 169.2C92.5731 173.37 77.5831 181.47 59.9531 192.76Z" fill="#8C8C8C"/>
<path d="M74.9144 169.65C71.6244 171.55 73.4344 169.7 55.4844 181.33C57.6044 180.23 78.6844 168.76 81.4044 166.21C86.6044 161.33 88.5244 162.39 91.5544 160.82C93.6344 159.75 95.6944 158.01 97.8144 156.93C99.9644 155.84 102.134 154.64 104.144 153.32C99.4144 155.87 101.494 154.19 93.0444 159.07C91.8144 159.78 90.6444 160.3 89.4044 160.6C82.6144 162.23 82.8844 165.05 74.9144 169.65Z" fill="#8C8C8C"/>
<path d="M36.2227 187.74C49.1527 181.19 40.2527 185.72 54.0727 177.88C70.8627 168.42 68.8727 168.97 71.9427 166.97C69.8227 168.01 49.9027 178.73 36.2227 187.74Z" fill="#8C8C8C"/>
<path d="M20.8203 215.1V215.46C27.8103 211.85 52.0203 197.7 54.1403 196.27C40.1803 203.24 34.0103 206.65 20.8203 215.1Z" fill="#8C8C8C"/>
<path d="M20.8008 205.61V206.53C25.1608 204.37 34.6708 198.43 36.5208 197.07C30.1508 199.88 33.3408 198.23 20.8008 205.61Z" fill="#8C8C8C"/>
<path d="M20.7812 200.97V201.36C27.0512 198.02 45.8713 187.45 50.8813 184.01C40.6112 189.06 27.2913 196.75 20.7812 200.97Z" fill="#8C8C8C"/>
<path d="M20.7695 196.14V197.35C22.8895 196.13 28.4495 192.78 31.7095 190.47C27.7095 192.21 24.6095 193.91 20.7695 196.13V196.14Z" fill="#8C8C8C"/>
<path d="M139.022 137.08C136.602 138.56 136.662 138.87 133.722 140.57C124.672 145.79 122.802 146.79 119.762 148.78C132.232 142.91 136.242 139.85 140.162 137.54C143.642 135.51 146.822 134.1 150.142 132.03C152.382 130.65 152.472 130.19 156.162 128.06V127.49C154.432 128.31 152.922 129.26 151.332 130.36C149.622 131.54 141.752 135.43 139.022 137.08Z" fill="#8C8C8C"/>
<path d="M153.081 205.89L156.131 207.66L156.201 233.92L20.8309 312.08L17.7809 310.31L17.7109 284.04L153.081 205.89Z" fill="#717171"/>
<path d="M20.75 285.81L20.83 312.08L156.2 233.92L156.13 207.66L20.75 285.81Z" fill="#CFCFCF"/>
<path d="M20.8203 303.29V303.74C22.9403 302.52 44.8103 290.91 59.9303 281.07C44.9403 288.59 22.9303 301.92 20.8203 303.28V303.29Z" fill="#8C8C8C"/>
<path d="M65.7305 277.69C73.1305 274.36 80.3305 270.07 86.8405 265.47C79.5205 268.77 72.2205 273.13 65.7305 277.69Z" fill="#8C8C8C"/>
<path d="M137.922 236.05C142.462 233.77 152.372 228.26 156.192 226.03V224.92C149.902 228.32 143.792 232.07 137.922 236.05Z" fill="#8C8C8C"/>
<path d="M114.352 235.64C119.402 233.38 128.792 228.44 140.612 220.46C136.622 222.26 120.992 231.16 114.352 235.64Z" fill="#8C8C8C"/>
<path d="M108.23 243.9C112.54 242.06 122.15 236.76 130.7 230.77C126.67 232.62 116.51 238.06 108.23 243.9Z" fill="#8C8C8C"/>
<path d="M133.131 229.25C136.711 227.48 139.161 226.66 144.981 223.29C146.231 222.57 147.451 221.6 148.711 220.87C151.751 219.11 148.971 221.15 156.101 216.62C156.161 216.59 156.151 215.73 156.151 215.73C154.031 216.95 137.861 225.98 133.121 229.24L133.131 229.25Z" fill="#8C8C8C"/>
<path d="M119.781 242C121.901 240.97 138.151 232.16 156.171 221.24V220.63C151.991 222.8 139.831 229.42 119.781 242Z" fill="#8C8C8C"/>
<path d="M105.42 259.39C105.42 259.39 121.14 251 120.65 251.28C124.01 249.34 122.27 249.87 130.02 245.73C146.58 236.86 140.41 239.47 147.54 235.35C149.41 234.27 150.19 234.24 151.54 233.46C152.42 232.95 154.44 231.15 156.2 230.07V229.8C155.37 230.25 154.54 230.84 153.77 231.38C149.23 234.62 150.95 232.55 146.09 235.36C140.22 238.75 141.71 238.6 137.8 240.37C132.63 242.66 107.53 258.03 105.41 259.4L105.42 259.39Z" fill="#8C8C8C"/>
<path d="M99.2003 258.27C97.2303 259.47 95.2803 260.47 93.3203 261.77C105.57 255.45 128.26 242.03 132.31 239.33C104.26 253.79 105.01 254.71 99.2003 258.27Z" fill="#8C8C8C"/>
<path d="M82.1523 263.65C94.6923 257.58 113.922 245.69 116.032 244.26C104.062 250.19 89.7423 258.57 82.1523 263.65Z" fill="#8C8C8C"/>
<path d="M76.5117 257.68C83.2217 254.4 96.4317 247.09 110.522 237.82C108.402 238.85 88.8117 249.37 76.5117 257.68Z" fill="#8C8C8C"/>
<path d="M59.9531 285.74C61.7231 284.82 63.2931 284.34 65.0231 283.27C72.7931 278.49 76.9331 276.69 76.4731 276.96C77.6331 276.29 79.1731 275.04 80.5531 274.24C86.8231 270.71 87.8731 270.58 100.313 262.48C96.0831 264.58 74.4531 276.23 59.9531 285.74Z" fill="#8C8C8C"/>
<path d="M55.4922 274.16C83.4922 259.94 102.022 247.28 104.142 246.01C102.032 247.12 68.1322 266.04 55.4922 274.16Z" fill="#8C8C8C"/>
<path d="M48.3725 283.9C47.7225 284.28 44.3325 285.46 42.3125 286.67C55.7225 281.77 44.1125 286.41 59.1625 277.39C60.1425 276.8 74.1925 268.53 76.5425 266.97C48.7125 280.96 53.0025 281.24 48.3825 283.91L48.3725 283.9Z" fill="#8C8C8C"/>
<path d="M20.8398 308.17V308.52C23.2298 307.56 44.7098 295.56 54.1598 288.97C41.4198 295.19 23.9598 306.51 20.8398 308.18V308.17Z" fill="#8C8C8C"/>
<path d="M38.9705 279.15C38.0505 279.65 37.1005 280.16 36.2305 280.74C40.3105 278.63 41.5905 278.65 44.6205 275.88C49.2705 271.64 51.8605 272.64 53.9705 271.32C63.0305 265.68 59.2305 268.57 71.9305 260.08C70.8705 260.6 57.0105 268.19 55.4605 269.27C51.3605 272.15 53.1305 269.68 48.4805 272.24C43.6805 274.86 45.1305 275.82 38.9605 279.14L38.9705 279.15Z" fill="#8C8C8C"/>
<path d="M20.8125 298.54V299.46C25.9425 296.9 34.1025 291.64 36.5225 289.89C30.1525 292.73 23.7925 296.82 20.8125 298.54Z" fill="#8C8C8C"/>
<path d="M38.423 283.6C35.483 285.12 22.913 292.78 20.793 294.08V294.39C29.573 289.81 34.963 286.45 39.783 284C43.863 281.96 45.293 278.32 49.123 276.44C53.023 274.5 52.173 279.03 45.073 282.18C51.313 280.29 53.433 275.44 51.163 275.08C47.463 274.47 45.193 280.15 38.433 283.6H38.423Z" fill="#8C8C8C"/>
<path d="M20.7812 289.15V290.33C24.5712 288.18 28.2412 285.82 31.7212 283.33C29.2912 284.42 22.8512 287.96 20.7812 289.15Z" fill="#8C8C8C"/>
<path d="M144.359 218.4C147.679 217.12 154.019 213.4 156.149 212.02V211.22C152.379 212.93 147.579 215.9 144.359 218.41V218.4Z" fill="#8C8C8C"/>
<path d="M0 179.98V327.84L13.53 335.7V187.84L0 179.98Z" fill="#717171"/>
<path d="M13.5312 187.84V335.7L27.1412 327.84V179.98L13.5312 187.84Z" fill="#A1A1A1"/>
<path d="M0 179.98L13.53 187.84L27.14 179.98L13.61 172.12L0 179.98Z" fill="#D6D6D6"/>
<g style="mix-blend-mode:multiply" opacity="0.3">
<path d="M97.2593 408.03C89.5093 414.8 85.9693 435.42 93.5793 442.79C97.3793 446.47 103.129 447.02 108.399 447.38C147.779 450.03 137.969 455.16 290.699 360.38C342.259 328.39 347.489 323.26 360.779 316.66C365.209 314.46 367.399 308.87 369.009 304.05C376.349 282.07 381.949 265.9 392.079 242.58C395.189 235.42 404.559 225.96 398.879 220.61C394.869 216.84 388.299 217.14 383.449 219.74C378.599 222.34 371.699 226.45 366.989 229.29C353.739 237.29 333.219 267.45 324.589 274.95C301.879 294.69 301.329 288.48 231.659 331.9C196.399 353.88 161.539 375.59 121.759 389.62C107.609 394.61 116.369 391.33 97.2393 408.03H97.2593Z" fill="#9C9C9C"/>
</g>
<path d="M390.428 116.42V103.32C390.428 103.32 383.728 106.67 380.228 110.78C376.728 114.89 390.428 116.41 390.428 116.41V116.42Z" fill="#EDEDED"/>
<path d="M96.9709 409.84C94.6709 418.95 109.511 420.78 116.141 418.27C122.771 415.77 122.551 410.75 122.551 410.75L117.541 400.5L114.141 391.16C114.141 391.16 115.831 375.47 117.371 361.8C118.451 352.24 119.441 343.68 119.731 342.18C120.421 338.53 130.531 311.65 130.531 311.65C130.531 311.65 135.981 301.85 142.261 292.68C144.811 288.95 147.501 285.32 150.011 282.5C151.011 281.38 152.061 280.03 153.131 278.52C157.511 272.37 162.341 263.54 165.921 256.58L138.891 255.7L117.441 255L112.951 306.43C112.951 306.43 110.661 308.06 106.761 315.03C106.051 316.3 105.281 317.76 104.471 319.41C99.1909 330.11 102.821 342.87 102.581 348.8C102.341 354.72 100.471 374.77 100.011 375.45C99.5509 376.14 94.7109 397.78 94.7109 397.78L99.2709 400.74L96.9709 409.85V409.84Z" fill="#9C9C9C"/>
<path d="M280.929 222.57C280.929 222.57 279.859 236.02 279.849 240.92C279.839 245.82 277.299 258.35 277.299 258.35L274.289 278.85C274.289 278.85 276.999 292.06 276.079 295.94L281.999 307.56C281.999 307.56 288.379 313.71 288.379 315.99C288.379 318.27 288.139 322.14 278.769 323.05C269.399 323.96 265.989 317.13 266.679 314.62C267.369 312.11 266.609 307.56 266.609 307.56L258.709 304.6C258.709 304.6 255.999 291.39 258.759 282.27C261.519 273.16 260.869 257.44 260.869 257.44C260.869 257.44 255.599 242.79 261.679 227.12C264.179 220.68 264.359 220.43 264.489 219.83L260.039 214.16L262.969 195.03H281.629L280.939 222.57H280.929Z" fill="#9C9C9C"/>
<path d="M410.087 185.09C409.827 186.52 409.447 187.8 408.957 188.93C405.527 196.58 396.857 197.86 395.087 198.65C393.017 199.55 379.297 191.57 377.487 187.23C375.637 182.9 377.487 178.79 377.487 178.79C375.977 178.26 374.657 177.43 373.527 176.45C372.057 175.17 370.887 173.66 369.987 172.12C368.937 170.35 368.257 168.62 367.797 167.3C367.307 165.91 367.117 165 367.117 165C366.627 165.08 366.137 165.15 365.647 165.26C364.747 165.41 363.837 165.64 362.897 165.86C362.637 165.9 362.367 165.97 362.107 166.05C361.467 166.2 360.827 166.39 360.187 166.58C359.167 166.84 358.157 167.18 357.097 167.52C356.567 167.67 356.007 167.86 355.437 168.05C353.177 168.84 350.917 169.71 348.657 170.61C348.277 170.76 347.937 170.87 347.597 171.06C340.517 173.96 333.577 177.35 328.307 180.1C328.077 180.21 327.897 180.33 327.707 180.44C324.277 182.21 321.607 183.68 320.057 184.55C319.037 185.15 318.517 185.45 318.517 185.45C314.637 191.52 312.907 201.05 312.037 211.98C311.467 219.25 311.287 227.13 311.137 235.08C311.027 239.71 310.907 244.35 310.757 248.91C310.757 248.91 313.277 255.32 313.277 260.21C313.277 265.1 310.757 277.69 310.757 277.69L309.477 286.54L307.817 298.22C307.817 298.22 310.527 311.48 309.627 315.36L315.577 327C315.577 327 316.787 328.17 318.137 329.68C319.907 331.64 321.947 334.16 321.947 335.48C321.947 337.74 321.717 341.62 312.377 342.56C302.997 343.46 299.567 336.61 300.247 334.08C300.397 333.63 300.477 333.14 300.507 332.57C300.697 330.08 300.167 326.99 300.167 326.99L292.257 324.05C292.257 324.05 289.547 310.79 292.257 301.63C295.007 292.51 294.327 276.76 294.327 276.76C294.327 276.76 290.447 265.31 294.097 248.88C294.247 248.16 294.397 247.49 294.547 246.88L292.627 240.06L291.727 236.86L285.507 229.21L280.837 223.48L278.837 221.03C278.837 221.03 266.477 233.77 258.757 241.53C256.687 243.64 254.947 245.34 253.897 246.35C248.847 251.17 219.157 265.08 204.757 264.85C204.757 264.85 192.207 292.06 183.507 301.85C174.837 311.68 164.097 331.13 164.097 331.13C164.097 331.13 163.227 333.43 161.987 336.82C161.987 336.9 161.947 336.97 161.907 337.05C160.287 341.5 158.067 347.6 156.297 352.69C154.757 356.99 153.587 360.56 153.357 361.73C152.947 363.88 151.137 380.38 149.697 393.68C148.717 403.06 147.887 410.82 147.887 410.82L151.317 420.2L152.827 423.33L156.327 430.49C156.327 430.49 156.557 435.5 149.917 438.03C143.287 440.55 128.437 438.71 130.737 429.59C130.887 428.91 131.037 428.31 131.187 427.74L133.037 420.43L128.437 417.45C128.437 417.45 133.257 395.75 133.717 395.07C134.167 394.39 135.977 374.27 136.207 368.35C136.317 366.09 135.827 362.89 135.527 359.16C134.957 353.06 134.777 345.56 138.047 338.89C143.287 328.15 146.487 325.85 146.487 325.85L150.817 304.37C150.817 304.37 146.637 299.25 142.227 292.61C138.537 287.11 134.687 280.55 133.037 275.13L131.527 273.17L117.397 254.93C117.397 254.93 113.967 240.01 117.137 222.98C118.007 218.12 119.477 213.11 121.697 208.21C123.057 205.23 124.677 202.29 126.637 199.47C131.087 193.06 137.267 187.26 145.817 182.85C150.117 180.63 154.147 178.59 157.877 176.78C189.077 161.52 201.247 159.37 204.527 158.17C206.187 157.53 222.047 147.62 238.857 136.99C248.507 130.89 258.487 124.56 266.247 119.62C267.117 119.05 267.977 118.53 268.887 118.04C274.957 114.54 281.547 112.09 288.367 110.77C290.887 110.24 293.457 109.9 296.017 109.71C297.037 109.63 298.127 109.56 299.337 109.45L299.787 109.41C305.517 108.88 313.837 107.98 327.447 106.32C362.937 101.95 375.567 105.08 381.627 107.75C381.857 107.83 382.117 107.94 382.347 108.09C382.457 108.13 382.577 108.2 382.687 108.28C384.687 109.26 387.477 111.26 390.407 113.59C392.817 115.51 395.347 117.66 397.527 119.73C397.607 119.81 397.677 119.84 397.717 119.92C400.577 122.6 402.837 125.08 403.517 126.4C403.857 127.12 404.417 129.41 405.057 132.77C405.547 135.45 406.117 138.76 406.677 142.42C407.017 144.79 407.397 147.28 407.737 149.88C409.587 163.48 411.057 179.04 410.077 185.04L410.087 185.09Z" fill="#EDEDED"/>
<g style="mix-blend-mode:multiply">
<path d="M180.781 193.74C182.541 199.15 186.871 203.29 191.261 206.89C195.661 210.5 200.381 213.92 203.471 218.68C205.641 222.03 207.181 226.18 210.761 227.94C215.381 230.21 221.231 226.94 223.421 222.28C225.601 217.62 225.031 212.16 224.001 207.11C222.971 202.06 221.521 196.97 222.081 191.85C222.701 186.29 225.641 181.24 226.741 175.75C227.841 170.26 226.161 163.34 220.841 161.59C216.801 160.26 212.531 162.46 208.851 164.6C198.751 170.45 175.651 177.92 180.781 193.73V193.74Z" fill="#9C9C9C"/>
</g>
<g style="mix-blend-mode:multiply">
<path d="M246.148 156.75C243.328 157.82 240.368 158.97 238.438 161.28C236.508 163.59 236.048 167.45 238.298 169.46C239.628 170.65 241.578 170.93 243.338 170.61C245.098 170.29 246.708 169.46 248.288 168.63C250.098 167.68 252.078 166.55 252.708 164.61C253.338 162.65 252.328 160.47 250.778 159.12C249.228 157.77 247.218 157.08 245.278 156.43L246.168 156.76L246.148 156.75Z" fill="#9C9C9C"/>
</g>
<g style="mix-blend-mode:multiply">
<path d="M170.448 274.95C169.688 277.62 168.968 280.39 169.338 283.14C169.708 285.89 171.448 288.65 174.128 289.36C176.808 290.07 179.668 288.57 181.438 286.44C183.208 284.31 184.158 281.64 185.248 279.08C187.498 273.79 190.448 268.8 194.008 264.28C195.958 261.8 198.238 259.02 197.758 255.9C197.318 253 194.618 251 191.928 249.83C187.538 247.92 174.878 245.62 172.848 251.27C172.028 253.55 173.758 259.56 173.408 262.41C172.878 266.67 171.618 270.82 170.448 274.94V274.95Z" fill="#9C9C9C"/>
</g>
<g style="mix-blend-mode:multiply">
<path d="M156.309 352.73C154.769 357.03 153.598 360.6 153.368 361.77C152.958 363.92 151.149 380.42 149.709 393.72C149.109 393.61 148.469 393.31 147.749 392.82C144.509 390.67 146.539 380.61 146.579 377.22C146.729 370.36 146.879 363.54 146.989 356.68C147.029 354.8 147.139 352.69 148.499 351.33C150.529 349.33 154.149 350.39 156.109 352.5C156.189 352.58 156.219 352.65 156.299 352.73H156.309Z" fill="#9C9C9C"/>
</g>
<g style="mix-blend-mode:multiply">
<path d="M160.107 241.64C159.727 243.06 159.337 244.56 159.667 245.99C159.997 247.43 161.307 248.75 162.767 248.56C164.317 248.36 165.187 246.73 166.407 245.75C168.257 244.28 171.127 244.22 172.477 242.28C173.667 240.56 172.987 238.06 171.517 236.58C167.747 233.33 163.727 228.23 160.107 241.63V241.64Z" fill="#9C9C9C"/>
</g>
<g style="mix-blend-mode:multiply">
<path d="M158.38 189.5C157.63 192.29 156.72 195.15 154.84 197.34C151.67 200.99 146.47 202.13 141.69 201.86C136.87 201.6 132.23 200.16 127.45 199.56C127.22 199.52 126.96 199.52 126.66 199.52C131.11 193.11 137.29 187.31 145.84 182.9C150.14 180.68 154.17 178.64 157.9 176.83C158.31 177.51 158.65 178.19 158.88 178.94C160.01 182.33 159.29 186.02 158.39 189.49L158.38 189.5Z" fill="#9C9C9C"/>
</g>
<g style="mix-blend-mode:multiply">
<path d="M272.517 127.03C271.727 131.63 270.937 136.22 270.147 140.82C269.577 144.21 268.297 148.36 264.907 148.92C260.987 149.6 259.027 145.64 256.387 143.68C253.067 141.23 250.167 140.97 246.177 140.52C242.707 140.14 239.957 139.39 238.867 137.05C248.517 130.95 258.497 124.62 266.257 119.68C267.127 119.11 267.987 118.59 268.897 118.1C270.067 118.4 271.047 118.97 271.757 119.95C273.267 121.87 272.927 124.62 272.507 127.03H272.517Z" fill="#9C9C9C"/>
</g>
<g style="mix-blend-mode:multiply">
<path d="M298.578 156.88C297.218 160.37 297.248 164.21 297.298 167.96C297.368 172.78 297.428 177.6 297.498 182.42C297.528 184.43 297.628 186.64 298.978 188.13C301.058 190.43 305.158 189.6 307.128 187.2C309.098 184.8 309.448 181.48 309.428 178.38C309.408 175.28 309.108 172.09 310.078 169.14C311.288 165.47 314.278 162.72 317.028 160C319.778 157.29 322.538 154.18 323.048 150.35C325.188 134.26 301.348 149.78 298.578 156.89V156.88Z" fill="#9C9C9C"/>
</g>
<g style="mix-blend-mode:multiply">
<path d="M313.29 260.22C313.29 265.12 310.77 277.7 310.77 277.7L309.49 286.55C305.84 283.23 303.61 270.76 303.2 267.97C301.62 257.98 302.79 247.55 306.74 238.24C307.34 236.92 308.1 235.45 309.49 235.04C310.06 234.89 310.58 234.93 311.15 235.08C311.04 239.71 310.92 244.35 310.77 248.91C310.77 248.91 313.29 255.32 313.29 260.21V260.22Z" fill="#9C9C9C"/>
</g>
<g style="mix-blend-mode:multiply">
<path d="M296.18 238.22C295.5 239.2 294.15 239.84 292.64 240.1L291.74 236.9L285.52 229.25C285.71 227.33 285.82 225.52 285.48 224.2C285.07 222.5 284.39 220.85 284.58 219.11C284.73 217.38 286.16 215.61 287.86 215.79C289.59 215.98 290.5 217.82 291.14 219.45C292.72 223.44 294.27 227.44 295.85 231.47C296.72 233.66 297.51 236.26 296.19 238.21L296.18 238.22Z" fill="#9C9C9C"/>
</g>
<g style="mix-blend-mode:multiply">
<path d="M296.878 211.47C294.808 213.64 295.038 215.63 296.908 217.98C298.158 219.55 300.758 219.67 302.268 218.35C303.778 217.03 304.068 214.59 303.058 212.86C302.048 211.13 300.728 210.17 298.738 210.37L296.868 211.46L296.878 211.47Z" fill="#9C9C9C"/>
</g>
<path d="M312.039 211.98C312.889 201.06 314.639 191.55 318.509 185.48C318.509 185.48 348.389 167.97 367.119 165C367.119 165 369.479 176.04 377.479 178.78C377.479 178.78 375.649 182.89 377.479 187.23C379.309 191.57 393.009 199.57 395.069 198.65C396.859 197.86 405.519 196.57 408.939 188.93C397.769 197.78 390.099 192.01 387.529 188.93C385.569 186.58 390.569 181.58 388.749 179.13C380.719 168.35 386.389 157.54 390.419 146.34C372.529 146.84 350.899 152.55 333.929 158.21C329.849 159.57 325.569 161.06 322.759 164.31C320.539 166.88 319.509 170.24 318.539 173.49C315.219 184.63 311.869 195.94 311.659 207.56C311.629 209.01 311.689 210.54 312.029 211.96L312.039 211.98Z" fill="#9C9C9C"/>
<path d="M401.24 137.59C401.68 137.92 412.05 124.34 413.12 115.2C413.12 115.2 400.02 118.09 395.91 120.99C395.91 120.99 395.93 133.65 401.24 137.59Z" fill="#EDEDED"/>
<path d="M288.367 110.81L299.777 109.47C304.077 110.29 307.477 114.18 310.167 119.96C321.927 145.23 320.137 206.7 320.137 206.7L322.727 185.34L325.767 205.44L327.977 176.88L331.787 212.13L336.357 177.79L340.237 201.17L343.437 176.27L345.497 192.03L348.087 166.22L352.117 198.43L356.457 158.91L358.517 186.55L360.797 159.67L362.627 168.5L364.367 150.87L366.747 177.87L368.877 156.74L371.087 186.55L376.797 163.25V175.13L379.867 158.83L381.827 180.61L385.257 152.82L387.817 170.13L389.827 150.68L390.437 173.98C395.497 141.31 392.897 141.78 395.687 122.56C395.757 122.05 395.837 121.52 395.917 120.98L397.727 119.96C396.217 117.94 394.377 116.17 392.397 114.48C371.937 96.96 330.897 99.78 306.657 104.27C296.327 106.19 289.207 108.72 288.377 110.8L288.367 110.81Z" fill="#5E5E5E"/>
<g style="mix-blend-mode:overlay" opacity="0.2">
<path d="M288.367 110.81L299.777 109.47C304.077 110.29 307.477 114.18 310.167 119.96C311.337 120 312.507 119.98 313.677 119.91C321.247 119.43 328.407 116.5 335.777 114.66C342.527 112.97 349.507 112.24 356.467 112.43C368.967 112.76 379.417 116.7 390.857 121.2C392.057 121.67 393.887 122.34 395.677 122.58C395.747 122.07 395.827 121.54 395.907 121L397.717 119.98C396.207 117.96 394.367 116.19 392.387 114.5C371.927 96.98 330.887 99.8 306.647 104.29C296.317 106.21 289.197 108.74 288.367 110.82V110.81Z" fill="white"/>
</g>
<path d="M406.7 142.47C406.7 142.47 409.88 144.91 407.77 149.93C407.77 149.93 405.2 148.72 405.51 146.2C405.81 143.68 406.7 142.47 406.7 142.47Z" fill="#414141"/>
<path d="M408.009 184.73C407.409 186.45 406.139 187.93 404.529 188.79C404.339 188.89 404.109 188.99 403.899 188.91C403.589 188.79 403.559 188.37 403.579 188.04C403.629 187.02 403.689 186.01 403.739 184.99C403.809 183.59 403.899 182.13 404.589 180.91C405.159 179.91 406.889 178.45 407.899 179.52C408.899 180.58 408.419 183.54 408.009 184.73Z" fill="#414141"/>
<path d="M161.918 337.09C163.208 333.59 164.118 331.15 164.118 331.15C164.118 331.15 174.858 311.73 183.538 301.91C192.218 292.09 204.788 264.9 204.788 264.9C219.178 265.13 248.878 251.19 253.908 246.4C258.938 241.61 278.848 221.08 278.848 221.08L272.958 204.02C272.958 204.02 248.658 275.41 203.878 245.25C203.878 245.25 201.598 271.75 185.598 288.65C169.978 305.16 162.278 335.65 161.928 337.08L161.918 337.09Z" fill="#9C9C9C"/>
<path d="M312.379 342.58C321.749 341.67 321.969 337.78 321.969 335.5C321.969 334.21 319.929 331.68 318.149 329.72C318.149 329.72 315.799 339.27 304.719 336.3C304.719 336.3 301.779 336.13 300.509 332.62C300.459 333.16 300.389 333.68 300.269 334.13C299.579 336.64 303.009 343.5 312.379 342.58Z" fill="#414141"/>
<path d="M278.778 323.05C288.148 322.14 288.368 318.25 288.368 315.97C288.368 314.68 286.328 312.15 284.548 310.19C284.548 310.19 282.198 319.74 271.118 316.77C271.118 316.77 268.178 316.6 266.908 313.09C266.858 313.63 266.788 314.15 266.668 314.6C265.978 317.11 269.408 323.97 278.778 323.05Z" fill="#414141"/>
<path d="M149.949 438.07C156.569 435.56 156.349 430.53 156.349 430.53L152.849 423.37C152.849 423.37 146.299 437.31 131.219 427.79C131.079 428.35 130.929 428.96 130.759 429.62C128.479 438.76 143.319 440.59 149.949 438.07Z" fill="#414141"/>
<path d="M116.141 418.27C122.771 415.76 122.541 410.73 122.541 410.73L119.041 403.57C119.041 403.57 112.491 417.51 97.4107 407.99C97.2707 408.55 97.1207 409.16 96.9507 409.82C94.6707 418.96 109.511 420.79 116.141 418.27Z" fill="#414141"/>
<g style="mix-blend-mode:multiply" opacity="0.5">
<path d="M106.18 297.39C106.18 303.27 106.3 309.17 106.76 315.03C107.23 321 108.06 326.93 109.5 332.74C110.88 338.28 113.77 350.12 117.38 361.82C118.46 352.26 119.45 343.7 119.74 342.2C120.43 338.55 130.54 311.67 130.54 311.67C130.54 311.67 135.99 301.87 142.27 292.7C146.68 299.3 150.88 304.45 150.88 304.45L146.54 325.92C146.54 325.92 143.34 328.2 138.09 338.94C134.82 345.62 135 353.1 135.55 359.23C138.96 348.58 143.37 340.4 146.31 334.8C151.71 324.52 162.63 309.42 161.94 297.82C161.5 290.53 157.63 284.46 153.15 278.53C148.58 272.49 143.37 266.61 140.51 259.74C139.95 258.41 139.42 257.06 138.91 255.7C137.18 251.09 135.75 246.36 134.89 241.51C133.81 235.36 137.72 220.67 137.17 214.66C136.03 202.13 123.63 214.45 117.16 223.05C115.79 224.88 114.68 226.54 114.01 227.76C109.84 235.3 108.81 244.13 108.07 252.71C106.79 267.57 106.16 282.48 106.18 297.39Z" fill="#B3B3B3"/>
</g>
<path d="M133.509 205.82C133.509 205.82 137.169 210.69 137.169 214.65C137.169 218.61 136.559 217.7 133.509 221.35C130.459 225.01 125.289 229.57 126.809 242.67C128.329 255.77 132.319 269.78 131.849 281.96C131.379 294.14 135.339 305.72 120.109 328.56V323.12C120.109 323.12 119.359 329.65 110.969 339.22V331.3C110.969 331.3 104.569 346.83 91.1691 350.79L94.7191 340.13L89.0391 343.48C89.0391 343.48 99.3991 318.2 100.309 306.93C101.219 295.66 96.3491 249.97 105.789 229.56C115.229 209.15 121.019 206.41 133.509 205.8V205.82Z" fill="#5E5E5E"/>
<g style="mix-blend-mode:overlay" opacity="0.25">
<path d="M305.38 124.84C303.38 129.07 298.67 131.41 294.04 132.14C289.42 132.87 284.7 132.31 280.02 132.39C263.81 132.67 248.63 140.75 236.09 151.01C223.55 161.28 213.05 173.79 201.39 185.04C189.73 196.3 176.4 206.56 160.75 210.78C154.83 212.37 147.71 212.76 143.4 208.4C140.2 205.17 139.54 200 140.92 195.67C142.3 191.34 145.44 187.76 148.99 184.91C160.88 175.34 176.85 173.15 191.23 168.04C218.33 158.42 240.15 138.17 265.17 123.99C273.59 119.22 282.63 115.06 292.27 113.55C295.46 113.05 299.93 112.02 302.78 114.01C305.99 116.26 307 121.42 305.39 124.82L305.38 124.84Z" fill="white"/>
</g>
<g style="mix-blend-mode:overlay" opacity="0.25">
<path d="M152.141 238.47C152.561 244.59 152.981 250.7 153.411 256.82C153.491 258.03 153.551 259.35 152.881 260.36C151.831 261.94 149.401 262.01 147.791 261.01C146.181 260.02 145.201 258.28 144.291 256.62C142.591 253.49 140.901 250.29 140.111 246.82C139.311 243.35 139.481 239.52 141.321 236.47C145.101 230.21 151.641 231.06 152.151 238.47H152.141Z" fill="white"/>
</g>
</svg>
