<svg width="13" height="10" viewBox="0 0 13 10" fill="none" xmlns="http://www.w3.org/2000/svg">
<path d="M12.7543 4.42915L12.7535 4.42839L8.37656 0.234836C8.04865 -0.0793172 7.51828 -0.0781481 7.19188 0.237578C6.86553 0.553264 6.86678 1.06387 7.19469 1.37806L10.1334 4.19355H0.83767C0.375025 4.19355 0 4.5546 0 5C0 5.4454 0.375025 5.80645 0.83767 5.80645H10.1334L7.19473 8.62194C6.86682 8.93613 6.86557 9.44674 7.19192 9.76242C7.51832 10.0782 8.04873 10.0793 8.3766 9.76516L12.7536 5.57161L12.7543 5.57085C13.0824 5.25561 13.0814 4.74335 12.7543 4.42915Z" fill="#301D28"/>
</svg>
