<svg width="129" height="32" viewBox="0 0 129 32" fill="none" xmlns="http://www.w3.org/2000/svg">
<path fill-rule="evenodd" clip-rule="evenodd" d="M52.183 0.092041H52.6658V7.70014H52.183V0.092041ZM49.5078 0.6353C49.5078 0.751741 49.5467 0.849401 49.624 0.927654C49.7012 1.00591 49.7943 1.04535 49.904 1.04535C50.0136 1.04535 50.1068 1.00403 50.184 0.922019C50.2612 0.84001 50.3001 0.741097 50.3001 0.624656C50.3001 0.508216 50.2612 0.411182 50.184 0.332303C50.1068 0.254049 50.0136 0.214609 49.904 0.214609C49.7943 0.214609 49.7012 0.255927 49.624 0.337937C49.5467 0.419946 49.5078 0.518859 49.5078 0.6353ZM50.1451 2.34811H49.6623V7.70063H50.1451V2.34811ZM32.9485 5.6809H36.8679L37.7368 7.70109H38.2679L35.1591 0.523694H34.6668L31.558 7.70109H32.0891L32.9485 5.6809ZM34.9085 1.09776L36.6852 5.24018H33.1419L34.9085 1.09776ZM40.8566 7.70121L43.1355 2.34869H42.6433L40.6155 7.13716L38.6071 2.34869H38.0955L40.3644 7.70121H40.8566ZM47.1703 2.81478C47.5051 3.15346 47.6726 3.65052 47.6726 4.3066V7.70091H47.2092V6.74747C47.0483 7.06174 46.8131 7.30652 46.5042 7.48055C46.1953 7.65459 45.8251 7.74223 45.3937 7.74223C44.8336 7.74223 44.391 7.602 44.0662 7.32154C43.7408 7.04108 43.5787 6.67235 43.5787 6.2141C43.5787 5.75585 43.7284 5.40903 44.0278 5.13233C44.3273 4.85562 44.8054 4.71727 45.4614 4.71727H47.1898V4.28657C47.1898 3.78762 47.0624 3.40825 46.8084 3.14845C46.5543 2.88865 46.1824 2.75906 45.6931 2.75906C45.3583 2.75906 45.0382 2.82041 44.7323 2.94374C44.4263 3.06707 44.1675 3.23109 43.9547 3.4358L43.7137 3.06644C43.9648 2.8273 44.2672 2.64074 44.6214 2.5074C44.9751 2.37406 45.3453 2.3077 45.732 2.3077C46.3563 2.3077 46.8361 2.47672 47.1709 2.8154L47.1703 2.81478ZM46.5284 7.01354C46.8214 6.8082 47.0418 6.51084 47.1898 6.12145V5.11668H45.4709C44.9751 5.11668 44.6161 5.21246 44.3945 5.40402C44.1723 5.59559 44.0614 5.85852 44.0614 6.19344C44.0614 6.52837 44.1835 6.81759 44.4281 7.01917C44.6727 7.22075 45.017 7.32154 45.4614 7.32154C45.88 7.32154 46.2354 7.21887 46.5284 7.01416V7.01354ZM58.3421 4.3066C58.3421 3.65052 58.1747 3.15346 57.8399 2.81478L57.8411 2.8154C57.5063 2.47672 57.0264 2.3077 56.4022 2.3077C56.0155 2.3077 55.6453 2.37406 55.2916 2.5074C54.9373 2.64074 54.6349 2.8273 54.3838 3.06644L54.6249 3.4358C54.8371 3.23109 55.0959 3.06707 55.4018 2.94374C55.7078 2.82041 56.0279 2.75906 56.3627 2.75906C56.8519 2.75906 57.2233 2.88865 57.478 3.14845C57.732 3.40825 57.8594 3.78762 57.8594 4.28657V4.71727H56.131C55.4749 4.71727 54.9969 4.85562 54.6974 5.13233C54.398 5.40903 54.2482 5.75585 54.2482 6.2141C54.2482 6.67235 54.4103 7.04108 54.7357 7.32154C55.0605 7.602 55.5032 7.74223 56.0632 7.74223C56.4947 7.74223 56.8649 7.65459 57.1738 7.48055C57.4827 7.30652 57.7179 7.06174 57.8788 6.74747V7.70091H58.3421V4.3066ZM57.8594 6.12145C57.7114 6.51084 57.4909 6.8082 57.198 7.01354V7.01416C56.905 7.21887 56.5495 7.32154 56.131 7.32154C55.6866 7.32154 55.3423 7.22075 55.0977 7.01917C54.853 6.81759 54.731 6.52837 54.731 6.19344C54.731 5.85852 54.8418 5.59559 55.0641 5.40402C55.2857 5.21246 55.6447 5.11668 56.1404 5.11668H57.8594V6.12145ZM64.1362 2.65061C64.5159 2.87974 64.8135 3.20089 65.0293 3.61469C65.245 4.0285 65.3529 4.49801 65.3529 5.0245C65.3529 5.55099 65.245 6.01926 65.0293 6.42931C64.8135 6.83935 64.5159 7.16113 64.1362 7.39339C63.7566 7.62564 63.3316 7.74208 62.8618 7.74208C62.392 7.74208 62.0041 7.62752 61.6404 7.3984C61.2767 7.16927 60.9949 6.85 60.7957 6.43995V7.70139H60.3324V0.092041H60.8152V3.56837C61.0144 3.17209 61.2944 2.86283 61.6552 2.64059C62.0153 2.41836 62.4179 2.30755 62.8618 2.30755C63.3316 2.30755 63.7566 2.42211 64.1362 2.65124V2.65061ZM63.8757 6.99336C64.1846 6.80179 64.4274 6.53573 64.6049 6.19329C64.7817 5.85148 64.8701 5.4621 64.8701 5.0245C64.8701 4.58691 64.7817 4.19752 64.6049 3.85571C64.428 3.5139 64.1852 3.24721 63.8757 3.05565C63.5668 2.86409 63.219 2.7683 62.8329 2.7683C62.4468 2.7683 62.1008 2.86409 61.7949 3.05565C61.4889 3.24721 61.2478 3.5139 61.071 3.85571C60.8941 4.19752 60.8057 4.58754 60.8057 5.0245C60.8057 5.46147 60.8941 5.85148 61.071 6.19329C61.2478 6.5351 61.4895 6.80179 61.7949 6.99336C62.1008 7.18492 62.4468 7.2807 62.8329 7.2807C63.219 7.2807 63.5668 7.18492 63.8757 6.99336ZM67.3289 0.092041H66.8461V7.70014H67.3289V0.092041ZM73.6234 5.14778H69.2884C69.3014 5.56472 69.401 5.93595 69.5878 6.26023C69.7747 6.58514 70.027 6.83618 70.3459 7.01397C70.6648 7.19176 71.0232 7.28066 71.4223 7.28066C71.7506 7.28066 72.0548 7.21743 72.3348 7.09097C72.6148 6.96451 72.8482 6.77796 73.0351 6.53193L73.3151 6.87061C73.0964 7.15107 72.8211 7.36642 72.4898 7.51667C72.1585 7.66691 71.7995 7.74204 71.4134 7.74204C70.9112 7.74204 70.4638 7.6256 70.0712 7.39334C69.6786 7.16109 69.3709 6.83931 69.1493 6.42926C68.927 6.01921 68.8162 5.55095 68.8162 5.02446C68.8162 4.49797 68.9206 4.03847 69.1298 3.62466C69.3391 3.21086 69.6273 2.88783 69.994 2.65557C70.3606 2.42332 70.7727 2.30688 71.2295 2.30688C71.6864 2.30688 72.0966 2.42144 72.4603 2.65057C72.824 2.87969 73.1105 3.19896 73.3198 3.60901C73.5291 4.01906 73.6334 4.4842 73.6334 5.0038L73.624 5.14716L73.6234 5.14778ZM70.2728 3.0099C69.9893 3.17768 69.7623 3.41306 69.592 3.71731C69.4216 4.02156 69.3232 4.36525 69.2972 4.74775H73.1595C73.14 4.36525 73.0433 4.02344 72.87 3.72232C72.6961 3.42183 72.4674 3.18582 72.1845 3.01491C71.9009 2.84401 71.5826 2.75887 71.2283 2.75887C70.8741 2.75887 70.5558 2.84276 70.2728 3.0099ZM77.3915 6.42425C77.6102 6.83806 77.9108 7.16109 78.294 7.39334C78.6771 7.6256 79.1068 7.74204 79.5831 7.74204C80.0594 7.74204 80.4892 7.6256 80.8723 7.39334C81.2555 7.16109 81.5567 6.83806 81.7754 6.42425C81.9941 6.01045 82.1037 5.54406 82.1037 5.02446C82.1037 4.50486 81.9941 4.03847 81.7754 3.62466C81.5561 3.21086 81.2555 2.88783 80.8723 2.65557C80.4892 2.42332 80.06 2.30688 79.5831 2.30688C79.1062 2.30688 78.6771 2.42332 78.294 2.65557C77.9114 2.88783 77.6102 3.21086 77.3915 3.62466C77.1728 4.03847 77.0631 4.50486 77.0631 5.02446C77.0631 5.54406 77.1728 6.01045 77.3915 6.42425ZM81.3445 6.19325C81.1676 6.53568 80.9259 6.80175 80.6206 6.99331C80.3147 7.18487 79.9686 7.28066 79.5825 7.28066C79.1964 7.28066 78.8504 7.18487 78.5445 6.99331C78.2391 6.80175 77.9975 6.53506 77.8206 6.19325C77.6438 5.85144 77.5553 5.46142 77.5553 5.02446C77.5553 4.58749 77.6438 4.19748 77.8206 3.85567C77.9975 3.51386 78.2385 3.24717 78.5445 3.0556C78.8504 2.86404 79.1964 2.76826 79.5825 2.76826C79.9686 2.76826 80.3147 2.86404 80.6206 3.0556C80.9259 3.24717 81.1676 3.51386 81.3445 3.85567C81.5213 4.19748 81.6097 4.58686 81.6097 5.02446C81.6097 5.46205 81.5213 5.85144 81.3445 6.19325ZM87.5573 2.89199C87.924 3.28138 88.1079 3.8423 88.1079 4.5735V7.70113H87.6251V4.61482C87.6251 4.01321 87.4819 3.55558 87.1954 3.24069C86.9089 2.92643 86.5081 2.76929 85.9934 2.76929C85.401 2.76929 84.9348 2.9571 84.5935 3.33334C84.2521 3.70959 84.0818 4.21541 84.0818 4.85083V7.70113H83.599V2.3486H84.0623V3.50738C84.2362 3.13176 84.495 2.83753 84.8398 2.62531C85.1841 2.41371 85.5914 2.30729 86.0612 2.30729C86.692 2.30729 87.1907 2.50198 87.5579 2.89199H87.5573ZM94.6192 7.64393C94.8025 7.57944 94.9552 7.48554 95.0778 7.36221V7.36159L94.875 7.00287C94.6687 7.20132 94.4023 7.30024 94.0928 7.30024C93.7833 7.30024 93.5499 7.20946 93.3925 7.02854C93.2351 6.84762 93.1562 6.58281 93.1562 6.23411V2.78909H94.7589V2.34837H93.1562V1.17958H92.6734V2.34837H91.7467V2.78909H92.6734V6.28545C92.6734 6.7437 92.7924 7.10053 93.0306 7.3572C93.2687 7.61325 93.6065 7.74158 94.0445 7.74158C94.2443 7.74158 94.4359 7.70903 94.6192 7.64393ZM100.377 2.89163C100.744 3.28102 100.928 3.84194 100.928 4.57314V7.70077H100.445V4.61446C100.445 4.01284 100.302 3.55522 100.015 3.24033C99.729 2.92606 99.3281 2.76893 98.8135 2.76893C98.2211 2.76893 97.7548 2.95674 97.4135 3.33298C97.0722 3.70922 96.9018 4.21505 96.9018 4.85047V7.70077H96.4191V0.092041H96.9018V3.4657C97.0757 3.09634 97.3327 2.8115 97.674 2.60929C98.0154 2.40771 98.4174 2.30692 98.8807 2.30692C99.5114 2.30692 100.01 2.50162 100.377 2.89163ZM102.85 5.14778H107.185L107.186 5.14716L107.195 5.0038C107.195 4.4842 107.091 4.01906 106.881 3.60901C106.672 3.19896 106.386 2.87969 106.022 2.65057C105.658 2.42144 105.248 2.30688 104.791 2.30688C104.334 2.30688 103.922 2.42332 103.556 2.65557C103.189 2.88783 102.901 3.21086 102.691 3.62466C102.482 4.03847 102.378 4.49797 102.378 5.02446C102.378 5.55095 102.489 6.01921 102.711 6.42926C102.932 6.83931 103.24 7.16109 103.633 7.39334C104.025 7.6256 104.473 7.74204 104.975 7.74204C105.361 7.74204 105.72 7.66691 106.051 7.51667C106.383 7.36642 106.658 7.15107 106.877 6.87061L106.597 6.53193C106.41 6.77796 106.176 6.96451 105.896 7.09097C105.616 7.21743 105.312 7.28066 104.984 7.28066C104.585 7.28066 104.226 7.19176 103.907 7.01397C103.589 6.83618 103.336 6.58514 103.149 6.26023C102.963 5.93595 102.863 5.56472 102.85 5.14778ZM103.154 3.71731C103.324 3.41306 103.551 3.17768 103.834 3.0099C104.117 2.84276 104.436 2.75887 104.79 2.75887C105.144 2.75887 105.462 2.84401 105.746 3.01491C106.029 3.18582 106.258 3.42183 106.432 3.72232C106.605 4.02344 106.702 4.36525 106.721 4.74775H102.859C102.885 4.36525 102.983 4.02156 103.154 3.71731ZM39.248 20.2772H39.2492V24.0089C38.5825 24.4202 37.8085 24.6255 36.9273 24.6255C36.1421 24.6255 35.4406 24.4434 34.8229 24.0778C34.2045 23.7128 33.7205 23.2107 33.3716 22.5709C33.022 21.9318 32.8475 21.235 32.8475 20.413C32.8475 19.591 33.022 18.8611 33.3716 18.2213C33.7205 17.5821 34.2045 17.0851 34.8229 16.7313C35.4406 16.3776 36.1474 16.2005 36.9432 16.2005C38.1575 16.2005 39.195 16.6569 40.055 17.5702L41.3772 16.2005C40.8502 15.5613 40.2 15.0761 39.4261 14.745C38.6521 14.4144 37.792 14.2485 36.8459 14.2485C35.6847 14.2485 34.6389 14.514 33.7094 15.0448C32.7792 15.5757 32.0506 16.3094 31.5242 17.2453C30.9978 18.1819 30.7343 19.2373 30.7343 20.4136C30.7343 21.5899 30.9972 22.646 31.5242 23.582C32.0506 24.5179 32.7762 25.2516 33.7011 25.7824C34.6254 26.3133 35.6623 26.5787 36.8129 26.5787C37.6299 26.5787 38.4257 26.4473 39.1997 26.185C39.9737 25.9227 40.651 25.5458 41.2316 25.055V20.2772H39.2492V20.2759L39.248 20.2772ZM43.6737 24.2583C44.0663 24.972 44.6115 25.5285 45.3106 25.9279C46.0092 26.3273 46.7837 26.527 47.665 26.527C48.5463 26.527 49.3361 26.328 50.0353 25.9279C50.7344 25.5285 51.2796 24.972 51.6722 24.2583C52.0642 23.5447 52.2605 22.7365 52.2605 21.835C52.2605 20.9335 52.0642 20.1284 51.6722 19.4204C51.2796 18.713 50.7338 18.1596 50.0353 17.7596C49.3361 17.3601 48.5356 17.1604 47.665 17.1604C46.7943 17.1604 46.0092 17.3601 45.3106 17.7596C44.6115 18.159 44.0657 18.7124 43.6737 19.4204C43.2817 20.1284 43.0854 20.9329 43.0854 21.835C43.0854 22.7371 43.2811 23.5453 43.6737 24.2583ZM50.2286 21.835C50.2286 22.6914 49.9869 23.3819 49.503 23.9071C49.0196 24.4324 48.4071 24.6947 47.665 24.6947C46.9228 24.6947 46.3127 24.4324 45.8347 23.9071C45.3566 23.3819 45.1173 22.6914 45.1173 21.835C45.1173 20.9786 45.356 20.2881 45.8347 19.7628C46.3127 19.2382 46.9234 18.9753 47.665 18.9753C48.4065 18.9753 49.019 19.2376 49.503 19.7628C49.9869 20.2881 50.2286 20.9786 50.2286 21.835ZM55.7113 25.9279C55.0122 25.5285 54.4669 24.972 54.0743 24.2583C53.6817 23.5453 53.486 22.7371 53.486 21.835C53.486 20.9329 53.6823 20.1284 54.0743 19.4204C54.4663 18.7124 55.0122 18.159 55.7113 17.7596C56.4098 17.3601 57.195 17.1604 58.0657 17.1604C58.9363 17.1604 59.7368 17.3601 60.4359 17.7596C61.1345 18.1596 61.6803 18.713 62.0729 19.4204C62.4649 20.1284 62.6612 20.9335 62.6612 21.835C62.6612 22.7365 62.4649 23.5447 62.0729 24.2583C61.6803 24.972 61.135 25.5285 60.4359 25.9279C59.7368 26.328 58.9469 26.527 58.0657 26.527C57.1844 26.527 56.4098 26.3273 55.7113 25.9279ZM59.9036 23.9071C60.3876 23.3819 60.6293 22.6914 60.6293 21.835C60.6293 20.9786 60.3876 20.2881 59.9036 19.7628C59.4197 19.2376 58.8072 18.9753 58.0657 18.9753C57.3241 18.9753 56.7134 19.2382 56.2353 19.7628C55.7567 20.2881 55.518 20.9786 55.518 21.835C55.518 22.6914 55.7573 23.3819 56.2353 23.9071C56.7134 24.4324 57.3235 24.6947 58.0657 24.6947C58.8078 24.6947 59.4203 24.4324 59.9036 23.9071ZM73.141 25.0202V17.2625L73.1404 17.2637H71.2216V18.4795C70.8774 18.0338 70.45 17.7032 69.9395 17.486C69.4291 17.2694 68.8614 17.1604 68.2383 17.1604C67.4213 17.1604 66.6827 17.3432 66.0213 17.7082C65.3605 18.0738 64.8388 18.5903 64.4574 19.2583C64.0761 19.9262 63.8851 20.6937 63.8851 21.5614C63.8851 22.4291 64.0761 23.1997 64.4574 23.8733C64.8388 24.5469 65.3605 25.0697 66.0213 25.4403C66.6821 25.8115 67.4213 25.9968 68.2383 25.9968C68.8296 25.9968 69.3725 25.8941 69.867 25.6888C70.3616 25.4835 70.7807 25.1811 71.125 24.7811V25.2606C71.125 26.1965 70.9051 26.8926 70.4642 27.3496C70.0232 27.806 69.3294 28.0345 68.3839 28.0345C67.7927 28.0345 67.2091 27.9344 66.6344 27.7347C66.059 27.535 65.5833 27.2695 65.2073 26.9383L64.3042 28.5479C64.7881 28.9704 65.4012 29.2928 66.1427 29.5157C66.8843 29.7379 67.6695 29.8494 68.4971 29.8494C71.593 29.8494 73.141 28.2399 73.141 25.0202ZM71.158 21.5608C71.158 22.3377 70.9133 22.9681 70.4241 23.4533C69.9348 23.9391 69.3194 24.1813 68.5454 24.1813C67.7715 24.1813 67.1395 23.9384 66.6509 23.4533C66.1616 22.9681 65.917 22.3258 65.917 21.5608C65.917 20.7958 66.1616 20.1735 66.6509 19.694C67.1395 19.2144 67.7821 18.9747 68.5454 18.9747C69.3088 18.9747 69.9348 19.2144 70.4241 19.694C70.9133 20.1735 71.158 20.7839 71.158 21.5608ZM75.7861 13.7007H77.8015V26.4071H75.7861V13.7007ZM81.7515 22.5199H88.5081V22.5205C88.5299 22.2463 88.5405 22.0353 88.5405 21.8869C88.5405 20.951 88.3548 20.1259 87.984 19.4123C87.6132 18.6992 87.0969 18.1452 86.4361 17.7514C85.7747 17.3576 85.0355 17.1604 84.1866 17.1604C83.3378 17.1604 82.5744 17.3601 81.8971 17.7596C81.2198 18.159 80.6899 18.7155 80.3085 19.4292C79.9271 20.1428 79.7361 20.9329 79.7361 21.835C79.7361 22.7371 79.9318 23.5453 80.3244 24.2583C80.7164 24.972 81.2729 25.5285 81.9932 25.9279C82.7135 26.3273 83.5465 26.527 84.4926 26.527C85.2341 26.527 85.9008 26.4012 86.4921 26.1502C87.0827 25.8991 87.5726 25.5279 87.9593 25.0371L86.8788 23.7187C86.2663 24.381 85.487 24.7122 84.5409 24.7122C83.7994 24.7122 83.1786 24.515 82.6788 24.1212C82.1789 23.7275 81.8694 23.1935 81.7515 22.5199ZM81.7356 21.0988C81.8323 20.4252 82.1034 19.8862 82.5497 19.4805H82.5503C82.9965 19.0755 83.5317 18.8726 84.1872 18.8726C84.8427 18.8726 85.3909 19.0786 85.8319 19.4893C86.2722 19.8999 86.5357 20.4371 86.6217 21.0988H81.7356ZM102.32 14.9338C103.045 15.2763 103.602 15.7671 103.988 16.4062C104.376 17.046 104.569 17.8048 104.569 18.6837C104.569 19.5627 104.376 20.3076 103.988 20.9531C103.602 21.5979 103.045 22.0918 102.32 22.4343C101.594 22.7767 100.742 22.9482 99.7637 22.9482H97.216V26.4076H95.1199V14.4205H99.7637C100.742 14.4205 101.594 14.592 102.32 14.9345V14.9338ZM101.747 20.4479C102.22 20.0366 102.457 19.4487 102.457 18.6837C102.457 17.9187 102.221 17.3309 101.747 16.9196C101.274 16.5083 100.581 16.303 99.6671 16.303H97.216V21.0639H99.6671C100.581 21.0639 101.274 20.8586 101.747 20.4473V20.4479ZM108.648 13.7007H106.633V26.4071H108.648V13.7007ZM117.492 18.1277C118.164 18.7731 118.5 19.7459 118.5 21.0474V26.4075H116.597V25.2944C116.349 25.6944 115.997 25.9993 115.54 26.2103C115.084 26.4212 114.532 26.527 113.888 26.527C113.243 26.527 112.678 26.41 112.195 26.1758C111.711 25.9417 111.337 25.6168 111.074 25.1999C110.811 24.7836 110.679 24.3122 110.679 23.7869C110.679 22.965 110.967 22.3058 111.541 21.8093C112.116 21.3129 113.022 21.0643 114.258 21.0643H116.484V20.9272C116.484 20.2881 116.303 19.7973 115.944 19.4548C115.583 19.1124 115.049 18.9409 114.339 18.9409C113.855 18.9409 113.379 19.021 112.912 19.1806C112.445 19.3409 112.05 19.5631 111.727 19.8486L110.937 18.2904C111.388 17.9254 111.931 17.6456 112.565 17.4515C113.2 17.2575 113.872 17.1604 114.581 17.1604C115.849 17.1604 116.82 17.4828 117.492 18.1283V18.1277ZM115.654 24.6008C116.046 24.3554 116.323 24.0042 116.484 23.5478V22.486H114.404C113.243 22.486 112.663 22.8917 112.663 23.7018C112.663 24.0899 112.808 24.3986 113.098 24.6264C113.388 24.8549 113.791 24.9689 114.308 24.9689C114.824 24.9689 115.262 24.8462 115.654 24.6008H115.654ZM128.982 17.2627L128.982 17.2621L128.982 17.2627H128.982ZM128.982 17.2627L124.95 27.1433C124.574 28.1368 124.118 28.8355 123.58 29.2411C123.042 29.6462 122.392 29.849 121.629 29.849C121.198 29.849 120.774 29.7745 120.355 29.6261C119.936 29.4778 119.592 29.2724 119.323 29.0095L120.129 27.4338C120.323 27.6279 120.551 27.7819 120.815 27.8964C121.078 28.0104 121.344 28.0679 121.613 28.0679C121.968 28.0679 122.261 27.9709 122.492 27.7768C122.723 27.5828 122.935 27.2572 123.129 26.8009L123.274 26.4415L119.517 17.2627H121.613L124.322 24.0269L127.047 17.2627H128.982ZM26.8612 14.9105L21.4427 11.5901L16.9863 16.1651L21.059 20.3463L26.8612 16.7899C27.1806 16.5945 27.3716 16.2427 27.3716 15.8508C27.3716 15.4589 27.1806 15.1071 26.8612 14.9111V14.9105ZM14.5593 7.37054L20.5224 11.0259L16.2511 15.4106L1.49189 0.258882L14.5593 7.37054ZM1.70915 31.8474L14.582 24.3163L20.139 20.91L16.2514 16.9191L1.70915 31.8474ZM0.606445 31.4715L0.620593 0.871312L15.5172 16.1639L0.606445 31.4715Z" fill="white"/>
</svg>
