<svg width="184" height="46" viewBox="0 0 184 46" fill="none" xmlns="http://www.w3.org/2000/svg">
<path d="M18.3166 45.9975C16.8938 43.5087 14.5093 42.0804 12.2019 40.574C9.71003 38.9474 7.41401 37.1238 5.86354 34.552C5.41874 33.8125 5.02954 33.0419 4.57842 32.306C5.46296 35.8218 7.59976 38.5856 10.2092 41.1859C10.0184 41.1401 9.91853 41.1252 9.82375 41.0918C9.72519 41.0571 9.63295 41.0063 9.53944 40.9592C4.72374 38.5609 1.75926 34.7255 0.580293 29.6054C-0.745256 23.8399 0.193622 18.4027 3.4639 13.4127C5.11673 10.8917 7.3483 8.97776 10.1763 7.77362C10.2698 7.73398 10.3557 7.67575 10.4796 7.60638C8.7623 7.54815 5.88375 9.10412 2.15983 12.0042C2.23565 11.8593 2.30262 11.7081 2.38981 11.5694C4.31306 8.55036 7.09178 6.54471 10.3684 5.15103C13.3303 3.89115 16.4414 3.25315 19.6599 3.02273C22.1341 2.84558 24.588 2.92982 27.0079 3.42659C27.804 3.59011 28.5356 4.07573 29.2862 4.43499C29.6425 4.60471 29.9749 4.8215 30.3072 5.01104C29.8826 4.57622 29.453 4.13519 28.9791 3.64834C30.5296 1.74426 32.5843 0.839923 34.8917 0.113972C34.4507 1.07654 34.0172 1.92761 33.6685 2.80965C33.3222 3.68426 33.0619 4.59232 32.8433 5.52392C34.4999 3.01654 36.5685 1.03813 39.49 0C37.9408 2.21873 37.3393 4.71744 37.055 7.35985C40.4504 9.59469 41.5877 12.7562 40.8788 16.6486C40.2128 15.0195 39.5898 13.3731 38.1443 12.2185C37.8966 12.0203 37.5933 11.889 37.2483 11.8072C37.5706 12.3275 37.9143 12.8355 38.2125 13.3681C39.2499 15.2152 39.9576 17.1156 39.8325 19.3083C39.7655 20.4728 40.1484 21.6621 40.3379 22.839C40.3809 23.1028 40.4618 23.3605 40.5211 23.6045C39.993 24.6489 39.0844 25.464 38.1771 25.6907C37.429 25.0862 37.8852 23.6293 36.523 23.3394C36.523 23.5637 36.5104 23.726 36.5243 23.8845C36.6582 25.4021 36.8174 26.9172 36.9173 28.436C36.9451 28.8534 36.7922 29.2833 36.7201 29.7281C36.3777 29.6748 36.1957 29.6463 36.015 29.619C36.0315 29.6562 36.0492 29.6934 36.0656 29.7305C34.1284 30.8641 32.19 31.9976 30.1493 33.1918C30.1366 32.918 30.1126 32.7272 30.1215 32.5377C30.167 31.6433 29.8662 30.8752 29.2571 30.2186C29.017 29.9597 28.7984 29.6624 28.5129 29.4642C27.3352 28.6466 26.6465 27.4759 26.0058 26.2593C25.7266 25.7291 25.4106 25.2187 25.1251 24.722C24.8888 24.6315 24.6942 24.5584 24.4793 24.4754C24.2734 24.0295 24.1533 23.5699 24.4743 23.135C24.7776 22.7237 25.2236 22.7411 25.6785 22.8526C25.9022 22.9071 26.1297 22.9653 26.3584 22.9777C26.9182 23.0099 27.4843 23.0657 28.0403 23.0211C28.6114 22.9752 28.8894 22.6259 28.7959 22.0337C28.7669 21.8541 28.7921 21.667 28.7921 21.4973C28.9387 21.3301 29.0613 21.1913 29.2218 21.0092C29.199 20.8457 29.1712 20.6487 29.1257 20.3341C29.151 20.2882 29.2382 20.1346 29.3115 20.007C29.2546 19.6911 29.2053 19.4124 29.151 19.1076C29.4783 18.985 29.7651 18.876 30.0772 18.7583C29.9812 17.7437 28.6797 17.1218 29.1245 15.9325C30.4045 15.6724 31.7629 15.6302 32.602 14.3245C31.5393 14.2006 30.5637 14.0879 29.6868 13.9863C29.2015 13.1514 28.8452 12.3474 28.3221 11.6672C25.748 8.32242 20.7769 7.73893 17.681 10.9376C16.224 12.4427 15.8879 14.301 16.0964 16.2831C16.1887 17.1602 16.3921 18.0261 16.5387 18.8983C16.66 19.6193 16.8521 20.2845 17.4763 20.785C17.6684 20.9386 17.791 21.2954 17.7808 21.5518C17.7404 22.4797 17.5496 23.3456 16.5956 23.8573C16.3011 24.0158 16.0219 24.3057 15.8728 24.6018C15.0451 26.2457 14.2477 27.907 13.4693 29.5744C13.343 29.8433 13.3114 30.1815 13.3253 30.4825C13.3998 32.0893 13.4756 33.6972 13.6134 35.299C13.65 35.7289 13.8408 36.1811 14.0746 36.554C14.8707 37.8176 15.7363 39.0378 16.5437 40.2952C17.657 42.0296 18.2357 43.9336 18.3179 46L18.3166 45.9975Z" fill="#FF7905"/>
<path d="M40.6854 39.0762C39.8034 39.0762 38.8152 39.096 37.8283 39.0614C37.5857 39.0527 37.314 38.909 37.1169 38.7529C36.7303 38.4457 36.3878 38.0876 35.9 37.8101C35.9733 38.1508 36.0454 38.4915 36.1566 39.0093C35.2025 38.8545 34.3407 38.7145 33.3311 38.551C34.8942 37.1461 36.3095 35.8739 37.6957 34.6288C37.6287 34.3191 37.5857 34.1222 37.5567 33.9896C37.8612 33.3516 38.1392 32.7694 38.4172 32.1871C38.3502 32.1363 38.2845 32.0855 38.2175 32.0347C39.466 31.0524 40.7145 30.0687 41.9907 29.0628C41.9768 29.0467 42.0476 29.0975 42.0704 29.1644C42.5543 30.5494 43.0383 31.9344 43.5122 33.3231C43.7295 33.9599 43.6524 34.5607 43.3529 35.1764C42.6794 36.5614 41.9212 37.882 40.6842 39.075L40.6854 39.0762Z" fill="#FF7905"/>
<path opacity="0.88" d="M52.0181 30.0833H55.5963C57.3791 30.0833 58.5636 30.8189 58.5636 32.29C58.5636 33.3996 57.8529 34.023 57.1672 34.2225C57.8903 34.422 58.9127 34.9955 58.9127 36.4168C58.9127 38.3991 56.9677 38.8105 55.696 38.8105H52.0181V30.0833ZM57.8529 36.3046C57.8529 34.9456 56.6062 34.796 55.7708 34.796H53.0654V37.8131H55.4841C56.5812 37.8131 57.8529 37.7383 57.8529 36.3046ZM57.5038 32.4396C57.5038 31.4048 56.7433 31.0807 55.509 31.0807H53.0654V33.7986H55.7958C56.7059 33.7986 57.5038 33.437 57.5038 32.4396ZM60.0146 35.8433C60.0146 33.6615 61.6977 32.6765 63.2561 32.6765C63.9294 32.6765 64.5902 32.8261 65.1013 33.1628V34.1352C64.6525 33.7861 64.0167 33.5991 63.3808 33.5991C62.2213 33.5991 61.012 34.2474 61.012 35.8183C61.012 37.3518 62.1839 38.0376 63.3559 38.0376C64.0042 38.0376 64.665 37.8505 65.1637 37.5513V38.5487C64.6026 38.823 63.9668 38.9602 63.2187 38.9602C61.6478 38.9602 60.0146 37.9752 60.0146 35.8433ZM66.1022 35.8183C66.1022 33.7238 67.6607 32.6765 69.082 32.6765C71.3885 32.6765 72.2363 34.5591 71.8622 36.2547H67.0996C67.2243 37.5139 68.3589 38.0376 69.5682 38.0376C70.3038 38.0376 71.0269 37.8381 71.5381 37.5513V38.5238C70.9895 38.8105 70.2041 38.9602 69.4186 38.9602C67.6482 38.9602 66.1022 37.9503 66.1022 35.8183ZM70.977 35.382C71.0643 34.7461 70.6654 33.5991 69.1443 33.5991C68.122 33.5991 67.1744 34.21 67.0996 35.382H70.977ZM76.7984 40.4313H75.8259V37.9129H76.6239C77.3719 36.5913 77.6711 35.0578 77.6462 32.8261H82.1096V37.9129H82.9823V40.4313H82.0098V38.8105H76.7984V40.4313ZM78.6062 33.7238C78.5563 35.5191 78.2571 36.7659 77.7085 37.9129H81.1122V33.7238H78.6062ZM86.4335 33.7487C86.234 36.8157 85.8101 38.9103 84.2641 38.9103C84.0397 38.9103 83.8028 38.8729 83.541 38.7731V37.9877C83.6782 38.0376 83.8153 38.0625 83.94 38.0625C84.9997 38.0625 85.3488 36.0428 85.461 32.8261H89.8621V38.8105H88.8647V33.7487H86.4335ZM92.3029 38.8105H91.1309L92.8639 36.6163C91.9288 36.342 91.4301 35.6064 91.4301 34.7711C91.4301 33.7238 92.2156 32.8261 93.6743 32.8261H96.6166V38.8105H95.6192V36.716H93.9361L92.3029 38.8105ZM92.4275 34.7711C92.4275 35.4318 92.9262 35.8183 93.7616 35.8183H95.6192V33.7238H93.7616C92.9262 33.7238 92.4275 34.1103 92.4275 34.7711ZM104.945 38.8105H101.566V32.8261H104.845C105.893 32.8261 106.691 33.3872 106.691 34.4469C106.691 35.0703 106.342 35.569 105.893 35.7685C106.379 35.9305 106.878 36.4043 106.878 37.1524C106.878 38.1373 106.242 38.8105 104.945 38.8105ZM102.564 36.2173V37.9378H104.808C105.431 37.9378 105.88 37.7508 105.88 37.09C105.88 36.3794 105.344 36.2173 104.845 36.2173H102.564ZM102.564 33.6989V35.357H104.746C105.269 35.357 105.681 35.1576 105.681 34.5466C105.681 33.8734 105.17 33.6989 104.746 33.6989H102.564ZM107.985 35.8433C107.985 33.6615 109.668 32.6765 111.227 32.6765C111.9 32.6765 112.561 32.8261 113.072 33.1628V34.1352C112.623 33.7861 111.987 33.5991 111.352 33.5991C110.192 33.5991 108.983 34.2474 108.983 35.8183C108.983 37.3518 110.155 38.0376 111.327 38.0376C111.975 38.0376 112.636 37.8505 113.134 37.5513V38.5487C112.573 38.823 111.938 38.9602 111.19 38.9602C109.619 38.9602 107.985 37.9752 107.985 35.8433ZM119.456 37.5638C119.456 37.9254 119.656 38.0251 119.918 38.0251C120.067 38.0251 120.229 37.9877 120.379 37.9378V38.7482C120.142 38.8355 119.88 38.8854 119.631 38.8854C119.145 38.8854 118.708 38.6859 118.534 38.1622C117.935 38.6609 117.175 38.9602 116.202 38.9602C115.143 38.9602 114.095 38.3991 114.095 37.1399C114.095 35.5939 115.517 35.1202 116.801 35.1202C117.324 35.1202 117.96 35.195 118.459 35.3072V35.0952C118.459 34.1976 117.848 33.5991 116.751 33.5991C115.828 33.5991 115.093 33.8235 114.569 34.0479V33.0755C115.043 32.9134 115.866 32.6765 116.851 32.6765C118.447 32.6765 119.456 33.5492 119.456 35.2199V37.5638ZM115.118 37.09C115.118 37.7882 115.754 38.0999 116.414 38.0999C117.175 38.0999 117.935 37.7882 118.459 37.2272V36.13C118.035 36.0428 117.424 35.9555 116.938 35.9555C116.065 35.9555 115.118 36.2173 115.118 37.09ZM121.823 40.4313H120.85V37.9129H121.648C122.396 36.5913 122.696 35.0578 122.671 32.8261H127.134V37.9129H128.007V40.4313H127.034V38.8105H121.823V40.4313ZM123.631 33.7238C123.581 35.5191 123.281 36.7659 122.733 37.9129H126.137V33.7238H123.631ZM130.336 38.8105H129.338V32.8261H130.336V35.357H133.802V32.8261H134.799V38.8105H133.802V36.2796H130.336V38.8105ZM137.491 38.8105H136.644V32.8261H137.641V37.2022L141.306 32.8261H142.154V38.8105H141.157V34.4344L137.491 38.8105ZM144.995 38.8105H143.997V32.8261H144.995V35.3196H146.204L148.099 32.8261H149.259L146.99 35.8059L149.533 38.8105H148.361L146.167 36.2422H144.995V38.8105ZM155.337 37.5638C155.337 37.9254 155.537 38.0251 155.798 38.0251C155.948 38.0251 156.11 37.9877 156.26 37.9378V38.7482C156.023 38.8355 155.761 38.8854 155.512 38.8854C155.025 38.8854 154.589 38.6859 154.414 38.1622C153.816 38.6609 153.056 38.9602 152.083 38.9602C151.023 38.9602 149.976 38.3991 149.976 37.1399C149.976 35.5939 151.397 35.1202 152.681 35.1202C153.205 35.1202 153.841 35.195 154.34 35.3072V35.0952C154.34 34.1976 153.729 33.5991 152.632 33.5991C151.709 33.5991 150.973 33.8235 150.45 34.0479V33.0755C150.924 32.9134 151.746 32.6765 152.731 32.6765C154.327 32.6765 155.337 33.5492 155.337 35.2199V37.5638ZM150.998 37.09C150.998 37.7882 151.634 38.0999 152.295 38.0999C153.056 38.0999 153.816 37.7882 154.34 37.2272V36.13C153.916 36.0428 153.305 35.9555 152.819 35.9555C151.946 35.9555 150.998 36.2173 150.998 37.09Z" fill="#FF7905"/>
<path d="M64.259 6.19091H68.5589L65.979 22.4609H61.679L62.6552 16.2551H56.6121L55.6359 22.4609H51.336L53.9159 6.19091H58.2159L57.2396 12.42H63.2828L64.259 6.19091ZM81.2723 17.2545C80.6679 21.0664 77.321 22.8096 74.2994 22.8096C70.8594 22.8096 68.1633 20.6015 68.8141 16.5108C69.4184 12.6989 72.5562 10.9557 75.8102 10.9557C79.0177 10.9557 81.9231 13.1638 81.2723 17.2545ZM72.7886 16.9059C72.6259 18.0215 72.9513 19.3231 74.6248 19.3231C76.2053 19.3231 77.0653 18.254 77.2977 16.8594C77.4604 15.7437 77.1583 14.4421 75.508 14.4421C73.9043 14.4421 73.021 15.5113 72.7886 16.9059ZM87.2399 12.7919C88.1463 11.5833 89.6571 10.8627 91.9814 11.0952L91.3771 14.8838C89.5642 14.4421 88.0069 15.0697 87.1469 16.2783L86.1707 22.4609H82.2194L83.9859 11.3043H87.4723L87.2399 12.7919ZM92.5445 14.2794C92.9861 11.56 95.7056 10.9557 97.8207 10.9557C99.4477 10.9557 100.958 11.3508 102.121 11.9087L101.632 15.0465C100.633 14.3724 99.192 13.8611 97.8904 13.8611C97.3093 13.8611 96.705 13.954 96.6353 14.4189C96.3796 15.9762 102.469 15.3021 101.818 19.4394C101.377 22.2285 98.9363 22.8096 96.1239 22.8096C94.3807 22.8096 92.684 22.4609 91.6148 21.7869L92.1029 18.6491C93.1953 19.4626 94.8688 19.8345 96.1937 19.8345C97.1699 19.8345 97.6812 19.6718 97.7509 19.2767C97.9834 17.8124 91.917 18.3005 92.5445 14.2794ZM103.451 16.5805C104.055 12.4665 107.332 10.9557 109.912 10.9557C114.561 10.9557 115.746 14.7211 114.515 18.068H107.17C107.425 19.3464 108.797 19.788 110.308 19.788C111.818 19.788 112.934 19.5556 113.794 19.1372L113.329 22.1588C112.423 22.5307 111.098 22.8096 109.285 22.8096C105.612 22.8096 102.87 20.4853 103.451 16.5805ZM111.284 15.6973C111.493 15.0465 111.284 13.8146 109.796 13.8146C108.611 13.8146 107.704 14.6513 107.518 15.6973H111.284ZM117.26 10.3746C117.771 7.26008 120.793 5.84226 123.93 5.84226C126.046 5.84226 128.021 6.40009 129.3 7.2136L128.718 11.0022C127.324 9.95626 125.627 9.53788 124.07 9.56113C122.396 9.58437 121.653 10.026 121.606 10.7C121.467 12.8384 129.857 12.42 128.811 18.0913C128.137 21.7869 125.209 22.8096 121.746 22.8096C119.305 22.8096 117.19 22.2053 115.633 21.2523L116.26 17.3243C117.98 18.6491 119.863 19.0907 121.629 19.0907C123.303 19.0907 124.326 18.6956 124.419 17.9751C124.79 15.3021 116.33 16.0924 117.26 10.3746ZM141.577 12.4432C142.6 11.6065 143.902 10.9557 145.296 10.9557C148.504 10.9557 149.131 13.7681 148.876 15.4183L147.76 22.4609H143.809L144.924 15.4183C145.04 14.6513 144.506 14.3259 143.878 14.3259C143.204 14.3259 142.507 14.6978 142.042 15.1627C142.042 15.2556 142.042 15.3486 142.019 15.4183L140.903 22.4609H136.952L138.068 15.4183C138.184 14.6513 137.649 14.3259 137.022 14.3259C136.231 14.3259 135.418 14.8373 134.907 15.4881L133.814 22.4609H129.863L131.629 11.3043H135.116L134.907 12.5362C135.697 11.746 137.138 10.9557 138.672 10.9557C140.206 10.9557 141.089 11.5833 141.577 12.4432ZM158.829 20.9501C158.132 21.9728 156.853 22.8096 154.947 22.8096C151.228 22.8096 149.857 19.6485 150.345 16.627C150.787 13.8843 152.809 10.9557 156.458 10.9557C158.434 10.9557 159.619 12.0481 160.084 13.1173L160.363 11.3043H163.849L162.083 22.4609H158.596L158.829 20.9501ZM154.32 16.9989C154.134 18.161 154.575 19.5556 156.156 19.5556C157.388 19.5556 158.318 18.8118 158.829 18.068L159.247 15.5346C159.061 14.7675 158.364 14.2097 157.365 14.2097C155.598 14.2097 154.552 15.5578 154.32 16.9989ZM169.453 12.7919C170.359 11.5833 171.87 10.8627 174.194 11.0952L173.59 14.8838C171.777 14.4421 170.22 15.0697 169.36 16.2783L168.383 22.4609H164.432L166.199 11.3043H169.685L169.453 12.7919ZM177.035 8.16655L181.126 7.23684L180.475 11.3043H183.497L182.985 14.5584H179.964L179.359 18.3005C179.22 19.1837 179.545 19.5556 180.568 19.5556C181.265 19.5556 181.846 19.4626 182.474 19.2534L181.986 22.368C181.358 22.6236 180.266 22.8096 179.08 22.8096C176.942 22.8096 174.873 21.8101 175.338 18.8583L176.012 14.5584H174.246L174.757 11.3043H176.524L177.035 8.16655Z" fill="#FF7905"/>
</svg>
