<svg width="99" height="100" viewBox="0 0 99 100" fill="none" xmlns="http://www.w3.org/2000/svg">
<path d="M38.9982 0.723633H35.998V3.72375H38.9982V0.723633Z" fill="black"/>
<path d="M41.9982 0.724121H38.998V3.72424H41.9982V0.724121Z" fill="black"/>
<path d="M50.9982 0.724121H47.998V3.72424H50.9982V0.724121Z" fill="black"/>
<path d="M53.9982 0.724121H50.998V3.72424H53.9982V0.724121Z" fill="black"/>
<path d="M56.9982 0.723633H53.998V3.72375H56.9982V0.723633Z" fill="black"/>
<path d="M62.9982 0.724121H59.998V3.72424H62.9982V0.724121Z" fill="black"/>
<path d="M65.9962 0.724121H62.9961V3.72424H65.9962V0.724121Z" fill="black"/>
<path d="M27.0001 3.72461H24V6.72473H27.0001V3.72461Z" fill="black"/>
<path d="M29.9982 3.72461H26.998V6.72473H29.9982V3.72461Z" fill="black"/>
<path d="M35.9982 3.72461H32.998V6.72473H35.9982V3.72461Z" fill="black"/>
<path d="M38.9982 3.72461H35.998V6.72473H38.9982V3.72461Z" fill="black"/>
<path d="M50.9982 3.72461H47.998V6.72473H50.9982V3.72461Z" fill="black"/>
<path d="M56.9982 3.72461H53.998V6.72473H56.9982V3.72461Z" fill="black"/>
<path d="M62.9982 3.72461H59.998V6.72473H62.9982V3.72461Z" fill="black"/>
<path d="M27.0001 6.72412H24V9.72424H27.0001V6.72412Z" fill="black"/>
<path d="M29.9982 6.72363H26.998V9.72375H29.9982V6.72363Z" fill="black"/>
<path d="M35.9982 6.72363H32.998V9.72375H35.9982V6.72363Z" fill="black"/>
<path d="M44.9982 6.72363H41.998V9.72375H44.9982V6.72363Z" fill="black"/>
<path d="M50.9982 6.72363H47.998V9.72375H50.9982V6.72363Z" fill="black"/>
<path d="M62.9982 6.72363H59.998V9.72375H62.9982V6.72363Z" fill="black"/>
<path d="M65.9962 6.72363H62.9961V9.72375H65.9962V6.72363Z" fill="black"/>
<path d="M69.0021 6.72363H66.002V9.72375H69.0021V6.72363Z" fill="black"/>
<path d="M27.0001 9.72461H24V12.7247H27.0001V9.72461Z" fill="black"/>
<path d="M32.9982 9.72461H29.998V12.7247H32.9982V9.72461Z" fill="black"/>
<path d="M38.9982 9.72461H35.998V12.7247H38.9982V9.72461Z" fill="black"/>
<path d="M44.9982 9.72461H41.998V12.7247H44.9982V9.72461Z" fill="black"/>
<path d="M50.9982 9.72461H47.998V12.7247H50.9982V9.72461Z" fill="black"/>
<path d="M56.9982 9.72461H53.998V12.7247H56.9982V9.72461Z" fill="black"/>
<path d="M62.9982 9.72461H59.998V12.7247H62.9982V9.72461Z" fill="black"/>
<path d="M65.9962 9.72461H62.9961V12.7247H65.9962V9.72461Z" fill="black"/>
<path d="M74.9962 9.72461H71.9961V12.7247H74.9962V9.72461Z" fill="black"/>
<path d="M41.9982 12.7251H38.998V15.7252H41.9982V12.7251Z" fill="black"/>
<path d="M44.9982 12.7251H41.998V15.7252H44.9982V12.7251Z" fill="black"/>
<path d="M47.9982 12.7246H44.998V15.7247H47.9982V12.7246Z" fill="black"/>
<path d="M50.9982 12.7251H47.998V15.7252H50.9982V12.7251Z" fill="black"/>
<path d="M53.9982 12.7251H50.998V15.7252H53.9982V12.7251Z" fill="black"/>
<path d="M62.9982 12.7251H59.998V15.7252H62.9982V12.7251Z" fill="black"/>
<path d="M65.9962 12.7251H62.9961V15.7252H65.9962V12.7251Z" fill="black"/>
<path d="M69.0021 12.7251H66.002V15.7252H69.0021V12.7251Z" fill="black"/>
<path d="M35.9982 15.7246H32.998V18.7247H35.9982V15.7246Z" fill="black"/>
<path d="M38.9982 15.7246H35.998V18.7247H38.9982V15.7246Z" fill="black"/>
<path d="M41.9982 15.7246H38.998V18.7247H41.9982V15.7246Z" fill="black"/>
<path d="M44.9982 15.7246H41.998V18.7247H44.9982V15.7246Z" fill="black"/>
<path d="M47.9982 15.7246H44.998V18.7247H47.9982V15.7246Z" fill="black"/>
<path d="M53.9982 15.7246H50.998V18.7247H53.9982V15.7246Z" fill="black"/>
<path d="M59.9962 15.7246H56.9961V18.7247H59.9962V15.7246Z" fill="black"/>
<path d="M65.9962 15.7246H62.9961V18.7247H65.9962V15.7246Z" fill="black"/>
<path d="M27.0001 18.7246H24V21.7247H27.0001V18.7246Z" fill="black"/>
<path d="M32.9982 18.7241H29.998V21.7242H32.9982V18.7241Z" fill="black"/>
<path d="M38.9982 18.7246H35.998V21.7247H38.9982V18.7246Z" fill="black"/>
<path d="M44.9982 18.7241H41.998V21.7242H44.9982V18.7241Z" fill="black"/>
<path d="M50.9982 18.7241H47.998V21.7242H50.9982V18.7241Z" fill="black"/>
<path d="M56.9982 18.7246H53.998V21.7247H56.9982V18.7246Z" fill="black"/>
<path d="M62.9982 18.7241H59.998V21.7242H62.9982V18.7241Z" fill="black"/>
<path d="M69.0021 18.7241H66.002V21.7242H69.0021V18.7241Z" fill="black"/>
<path d="M74.9962 18.7241H71.9961V21.7242H74.9962V18.7241Z" fill="black"/>
<path d="M27.0001 21.7256H24V24.7257H27.0001V21.7256Z" fill="black"/>
<path d="M29.9982 21.7256H26.998V24.7257H29.9982V21.7256Z" fill="black"/>
<path d="M32.9982 21.7256H29.998V24.7257H32.9982V21.7256Z" fill="black"/>
<path d="M35.9982 21.7256H32.998V24.7257H35.9982V21.7256Z" fill="black"/>
<path d="M38.9982 21.7256H35.998V24.7257H38.9982V21.7256Z" fill="black"/>
<path d="M44.9982 21.7256H41.998V24.7257H44.9982V21.7256Z" fill="black"/>
<path d="M47.9982 21.7256H44.998V24.7257H47.9982V21.7256Z" fill="black"/>
<path d="M50.9982 21.7256H47.998V24.7257H50.9982V21.7256Z" fill="black"/>
<path d="M59.9962 21.7256H56.9961V24.7257H59.9962V21.7256Z" fill="black"/>
<path d="M62.9982 21.7256H59.998V24.7257H62.9982V21.7256Z" fill="black"/>
<path d="M69.0021 21.7256H66.002V24.7257H69.0021V21.7256Z" fill="black"/>
<path d="M3.00012 24.7256H0V27.7257H3.00012V24.7256Z" fill="black"/>
<path d="M21.0001 24.7256H18V27.7257H21.0001V24.7256Z" fill="black"/>
<path d="M27.0001 24.7251H24V27.7252H27.0001V24.7251Z" fill="black"/>
<path d="M29.9982 24.7256H26.998V27.7257H29.9982V24.7256Z" fill="black"/>
<path d="M32.9982 24.7256H29.998V27.7257H32.9982V24.7256Z" fill="black"/>
<path d="M38.9982 24.7251H35.998V27.7252H38.9982V24.7251Z" fill="black"/>
<path d="M41.9982 24.7256H38.998V27.7257H41.9982V24.7256Z" fill="black"/>
<path d="M44.9982 24.7256H41.998V27.7257H44.9982V24.7256Z" fill="black"/>
<path d="M53.9982 24.7256H50.998V27.7257H53.9982V24.7256Z" fill="black"/>
<path d="M59.9962 24.7256H56.9961V27.7257H59.9962V24.7256Z" fill="black"/>
<path d="M62.9982 24.7256H59.998V27.7257H62.9982V24.7256Z" fill="black"/>
<path d="M69.0021 24.7256H66.002V27.7257H69.0021V24.7256Z" fill="black"/>
<path d="M74.9962 24.7256H71.9961V27.7257H74.9962V24.7256Z" fill="black"/>
<path d="M78.0001 24.7256H75V27.7257H78.0001V24.7256Z" fill="black"/>
<path d="M81.0001 24.7251H78V27.7252H81.0001V24.7251Z" fill="black"/>
<path d="M90.0001 24.7256H87V27.7257H90.0001V24.7256Z" fill="black"/>
<path d="M92.9962 24.7256H89.9961V27.7257H92.9962V24.7256Z" fill="black"/>
<path d="M96.0001 24.7251H93V27.7252H96.0001V24.7251Z" fill="black"/>
<path d="M3.00012 27.7256H0V30.7257H3.00012V27.7256Z" fill="black"/>
<path d="M8.99621 27.7256H5.99609V30.7257H8.99621V27.7256Z" fill="black"/>
<path d="M12.0001 27.7256H9V30.7257H12.0001V27.7256Z" fill="black"/>
<path d="M17.9943 27.7256H14.9941V30.7257H17.9943V27.7256Z" fill="black"/>
<path d="M29.9982 27.7256H26.998V30.7257H29.9982V27.7256Z" fill="black"/>
<path d="M32.9982 27.7256H29.998V30.7257H32.9982V27.7256Z" fill="black"/>
<path d="M35.9982 27.7256H32.998V30.7257H35.9982V27.7256Z" fill="black"/>
<path d="M41.9982 27.7256H38.998V30.7257H41.9982V27.7256Z" fill="black"/>
<path d="M47.9982 27.7256H44.998V30.7257H47.9982V27.7256Z" fill="black"/>
<path d="M53.9982 27.7256H50.998V30.7257H53.9982V27.7256Z" fill="black"/>
<path d="M56.9982 27.7256H53.998V30.7257H56.9982V27.7256Z" fill="black"/>
<path d="M59.9962 27.7256H56.9961V30.7257H59.9962V27.7256Z" fill="black"/>
<path d="M69.0021 27.7256H66.002V30.7257H69.0021V27.7256Z" fill="black"/>
<path d="M72.0001 27.7256H69V30.7257H72.0001V27.7256Z" fill="black"/>
<path d="M87.0001 27.7256H84V30.7257H87.0001V27.7256Z" fill="black"/>
<path d="M90.0001 27.7256H87V30.7257H90.0001V27.7256Z" fill="black"/>
<path d="M92.9962 27.7256H89.9961V30.7257H92.9962V27.7256Z" fill="black"/>
<path d="M3.00012 30.7251H0V33.7252H3.00012V30.7251Z" fill="black"/>
<path d="M8.99621 30.7256H5.99609V33.7257H8.99621V30.7256Z" fill="black"/>
<path d="M14.9962 30.7251H11.9961V33.7252H14.9962V30.7251Z" fill="black"/>
<path d="M17.9943 30.7251H14.9941V33.7252H17.9943V30.7251Z" fill="black"/>
<path d="M21.0001 30.7251H18V33.7252H21.0001V30.7251Z" fill="black"/>
<path d="M23.9982 30.7251H20.998V33.7252H23.9982V30.7251Z" fill="black"/>
<path d="M27.0001 30.7256H24V33.7257H27.0001V30.7256Z" fill="black"/>
<path d="M29.9982 30.7251H26.998V33.7252H29.9982V30.7251Z" fill="black"/>
<path d="M35.9982 30.7251H32.998V33.7252H35.9982V30.7251Z" fill="black"/>
<path d="M38.9982 30.7256H35.998V33.7257H38.9982V30.7256Z" fill="black"/>
<path d="M41.9982 30.7251H38.998V33.7252H41.9982V30.7251Z" fill="black"/>
<path d="M44.9982 30.7251H41.998V33.7252H44.9982V30.7251Z" fill="black"/>
<path d="M47.9982 30.7256H44.998V33.7257H47.9982V30.7256Z" fill="black"/>
<path d="M53.9982 30.7251H50.998V33.7252H53.9982V30.7251Z" fill="black"/>
<path d="M65.9962 30.7251H62.9961V33.7252H65.9962V30.7251Z" fill="black"/>
<path d="M78.0001 30.7251H75V33.7252H78.0001V30.7251Z" fill="black"/>
<path d="M81.0001 30.7251H78V33.7252H81.0001V30.7251Z" fill="black"/>
<path d="M87.0001 30.7256H84V33.7257H87.0001V30.7256Z" fill="black"/>
<path d="M92.9962 30.7251H89.9961V33.7252H92.9962V30.7251Z" fill="black"/>
<path d="M96.0001 30.7256H93V33.7257H96.0001V30.7256Z" fill="black"/>
<path d="M5.99621 33.7261H2.99609V36.7262H5.99621V33.7261Z" fill="black"/>
<path d="M12.0001 33.7261H9V36.7262H12.0001V33.7261Z" fill="black"/>
<path d="M14.9962 33.7261H11.9961V36.7262H14.9962V33.7261Z" fill="black"/>
<path d="M35.9982 33.7261H32.998V36.7262H35.9982V33.7261Z" fill="black"/>
<path d="M41.9982 33.7261H38.998V36.7262H41.9982V33.7261Z" fill="black"/>
<path d="M47.9982 33.7261H44.998V36.7262H47.9982V33.7261Z" fill="black"/>
<path d="M50.9982 33.7261H47.998V36.7262H50.9982V33.7261Z" fill="black"/>
<path d="M53.9982 33.7261H50.998V36.7262H53.9982V33.7261Z" fill="black"/>
<path d="M56.9982 33.7261H53.998V36.7262H56.9982V33.7261Z" fill="black"/>
<path d="M59.9962 33.7261H56.9961V36.7262H59.9962V33.7261Z" fill="black"/>
<path d="M72.0001 33.7261H69V36.7262H72.0001V33.7261Z" fill="black"/>
<path d="M74.9962 33.7261H71.9961V36.7262H74.9962V33.7261Z" fill="black"/>
<path d="M78.0001 33.7261H75V36.7262H78.0001V33.7261Z" fill="black"/>
<path d="M84.0001 33.7261H81V36.7262H84.0001V33.7261Z" fill="black"/>
<path d="M87.0001 33.7256H84V36.7257H87.0001V33.7256Z" fill="black"/>
<path d="M90.0001 33.7261H87V36.7262H90.0001V33.7261Z" fill="black"/>
<path d="M92.9962 33.7261H89.9961V36.7262H92.9962V33.7261Z" fill="black"/>
<path d="M8.99621 36.7256H5.99609V39.7257H8.99621V36.7256Z" fill="black"/>
<path d="M21.0001 36.7261H18V39.7262H21.0001V36.7261Z" fill="black"/>
<path d="M32.9982 36.7261H29.998V39.7262H32.9982V36.7261Z" fill="black"/>
<path d="M35.9982 36.7261H32.998V39.7262H35.9982V36.7261Z" fill="black"/>
<path d="M41.9982 36.7261H38.998V39.7262H41.9982V36.7261Z" fill="black"/>
<path d="M53.9982 36.7261H50.998V39.7262H53.9982V36.7261Z" fill="black"/>
<path d="M59.9962 36.7261H56.9961V39.7262H59.9962V36.7261Z" fill="black"/>
<path d="M72.0001 36.7261H69V39.7262H72.0001V36.7261Z" fill="black"/>
<path d="M74.9962 36.7261H71.9961V39.7262H74.9962V36.7261Z" fill="black"/>
<path d="M81.0001 36.7261H78V39.7262H81.0001V36.7261Z" fill="black"/>
<path d="M84.0001 36.7261H81V39.7262H84.0001V36.7261Z" fill="black"/>
<path d="M87.0001 36.7256H84V39.7257H87.0001V36.7256Z" fill="black"/>
<path d="M99.0001 36.7261H96V39.7262H99.0001V36.7261Z" fill="black"/>
<path d="M3.00012 39.7261H0V42.7262H3.00012V39.7261Z" fill="black"/>
<path d="M8.99621 39.7261H5.99609V42.7262H8.99621V39.7261Z" fill="black"/>
<path d="M17.9943 39.7261H14.9941V42.7262H17.9943V39.7261Z" fill="black"/>
<path d="M27.0001 39.7261H24V42.7262H27.0001V39.7261Z" fill="black"/>
<path d="M32.9982 39.7261H29.998V42.7262H32.9982V39.7261Z" fill="black"/>
<path d="M35.9982 39.7261H32.998V42.7262H35.9982V39.7261Z" fill="black"/>
<path d="M41.9982 39.7261H38.998V42.7262H41.9982V39.7261Z" fill="black"/>
<path d="M53.9982 39.7261H50.998V42.7262H53.9982V39.7261Z" fill="black"/>
<path d="M56.9982 39.7261H53.998V42.7262H56.9982V39.7261Z" fill="black"/>
<path d="M65.9962 39.7261H62.9961V42.7262H65.9962V39.7261Z" fill="black"/>
<path d="M69.0021 39.7261H66.002V42.7262H69.0021V39.7261Z" fill="black"/>
<path d="M72.0001 39.7261H69V42.7262H72.0001V39.7261Z" fill="black"/>
<path d="M81.0001 39.7261H78V42.7262H81.0001V39.7261Z" fill="black"/>
<path d="M84.0001 39.7261H81V42.7262H84.0001V39.7261Z" fill="black"/>
<path d="M96.0001 39.7261H93V42.7262H96.0001V39.7261Z" fill="black"/>
<path d="M99.0001 39.7261H96V42.7262H99.0001V39.7261Z" fill="black"/>
<path d="M12.0001 42.7256H9V45.7257H12.0001V42.7256Z" fill="black"/>
<path d="M21.0001 42.7256H18V45.7257H21.0001V42.7256Z" fill="black"/>
<path d="M23.9982 42.7256H20.998V45.7257H23.9982V42.7256Z" fill="black"/>
<path d="M27.0001 42.7261H24V45.7262H27.0001V42.7261Z" fill="black"/>
<path d="M29.9982 42.7256H26.998V45.7257H29.9982V42.7256Z" fill="black"/>
<path d="M35.9982 42.7256H32.998V45.7257H35.9982V42.7256Z" fill="black"/>
<path d="M41.9982 42.7256H38.998V45.7257H41.9982V42.7256Z" fill="black"/>
<path d="M44.9982 42.7256H41.998V45.7257H44.9982V42.7256Z" fill="black"/>
<path d="M47.9982 42.7261H44.998V45.7262H47.9982V42.7261Z" fill="black"/>
<path d="M50.9982 42.7256H47.998V45.7257H50.9982V42.7256Z" fill="black"/>
<path d="M62.9982 42.7256H59.998V45.7257H62.9982V42.7256Z" fill="black"/>
<path d="M65.9962 42.7256H62.9961V45.7257H65.9962V42.7256Z" fill="black"/>
<path d="M69.0021 42.7256H66.002V45.7257H69.0021V42.7256Z" fill="black"/>
<path d="M74.9962 42.7256H71.9961V45.7257H74.9962V42.7256Z" fill="black"/>
<path d="M78.0001 42.7256H75V45.7257H78.0001V42.7256Z" fill="black"/>
<path d="M81.0001 42.7256H78V45.7257H81.0001V42.7256Z" fill="black"/>
<path d="M84.0001 42.7256H81V45.7257H84.0001V42.7256Z" fill="black"/>
<path d="M90.0001 42.7256H87V45.7257H90.0001V42.7256Z" fill="black"/>
<path d="M92.9962 42.7256H89.9961V45.7257H92.9962V42.7256Z" fill="black"/>
<path d="M96.0001 42.7261H93V45.7262H96.0001V42.7261Z" fill="black"/>
<path d="M8.99621 45.7256H5.99609V48.7257H8.99621V45.7256Z" fill="black"/>
<path d="M14.9962 45.7256H11.9961V48.7257H14.9962V45.7256Z" fill="black"/>
<path d="M23.9982 45.7256H20.998V48.7257H23.9982V45.7256Z" fill="black"/>
<path d="M27.0001 45.7256H24V48.7257H27.0001V45.7256Z" fill="black"/>
<path d="M32.9982 45.7266H29.998V48.7267H32.9982V45.7266Z" fill="black"/>
<path d="M35.9982 45.7266H32.998V48.7267H35.9982V45.7266Z" fill="black"/>
<path d="M41.9982 45.7256H38.998V48.7257H41.9982V45.7256Z" fill="black"/>
<path d="M44.9982 45.7266H41.998V48.7267H44.9982V45.7266Z" fill="black"/>
<path d="M50.9982 45.7256H47.998V48.7257H50.9982V45.7256Z" fill="black"/>
<path d="M56.9982 45.7256H53.998V48.7257H56.9982V45.7256Z" fill="black"/>
<path d="M62.9982 45.7256H59.998V48.7257H62.9982V45.7256Z" fill="black"/>
<path d="M78.0001 45.7256H75V48.7257H78.0001V45.7256Z" fill="black"/>
<path d="M84.0001 45.7256H81V48.7257H84.0001V45.7256Z" fill="black"/>
<path d="M87.0001 45.7256H84V48.7257H87.0001V45.7256Z" fill="black"/>
<path d="M90.0001 45.7256H87V48.7257H90.0001V45.7256Z" fill="black"/>
<path d="M92.9962 45.7256H89.9961V48.7257H92.9962V45.7256Z" fill="black"/>
<path d="M99.0001 45.7256H96V48.7257H99.0001V45.7256Z" fill="black"/>
<path d="M3.00012 48.7266H0V51.7267H3.00012V48.7266Z" fill="black"/>
<path d="M8.99621 48.7261H5.99609V51.7262H8.99621V48.7261Z" fill="black"/>
<path d="M14.9962 48.7266H11.9961V51.7267H14.9962V48.7266Z" fill="black"/>
<path d="M17.9943 48.7266H14.9941V51.7267H17.9943V48.7266Z" fill="black"/>
<path d="M21.0001 48.7266H18V51.7267H21.0001V48.7266Z" fill="black"/>
<path d="M29.9982 48.7266H26.998V51.7267H29.9982V48.7266Z" fill="black"/>
<path d="M41.9982 48.7266H38.998V51.7267H41.9982V48.7266Z" fill="black"/>
<path d="M47.9982 48.7261H44.998V51.7262H47.9982V48.7261Z" fill="black"/>
<path d="M53.9982 48.7266H50.998V51.7267H53.9982V48.7266Z" fill="black"/>
<path d="M62.9982 48.7266H59.998V51.7267H62.9982V48.7266Z" fill="black"/>
<path d="M69.0021 48.7266H66.002V51.7267H69.0021V48.7266Z" fill="black"/>
<path d="M72.0001 48.7266H69V51.7267H72.0001V48.7266Z" fill="black"/>
<path d="M78.0001 48.7266H75V51.7267H78.0001V48.7266Z" fill="black"/>
<path d="M84.0001 48.7266H81V51.7267H84.0001V48.7266Z" fill="black"/>
<path d="M87.0001 48.7261H84V51.7262H87.0001V48.7261Z" fill="black"/>
<path d="M90.0001 48.7266H87V51.7267H90.0001V48.7266Z" fill="black"/>
<path d="M99.0001 48.7266H96V51.7267H99.0001V48.7266Z" fill="black"/>
<path d="M5.99621 51.7266H2.99609V54.7267H5.99621V51.7266Z" fill="black"/>
<path d="M8.99621 51.7266H5.99609V54.7267H8.99621V51.7266Z" fill="black"/>
<path d="M14.9962 51.7266H11.9961V54.7267H14.9962V51.7266Z" fill="black"/>
<path d="M29.9982 51.7266H26.998V54.7267H29.9982V51.7266Z" fill="black"/>
<path d="M38.9982 51.7266H35.998V54.7267H38.9982V51.7266Z" fill="black"/>
<path d="M47.9982 51.7266H44.998V54.7267H47.9982V51.7266Z" fill="black"/>
<path d="M50.9982 51.7266H47.998V54.7267H50.9982V51.7266Z" fill="black"/>
<path d="M56.9982 51.7266H53.998V54.7267H56.9982V51.7266Z" fill="black"/>
<path d="M59.9962 51.7266H56.9961V54.7267H59.9962V51.7266Z" fill="black"/>
<path d="M62.9982 51.7266H59.998V54.7267H62.9982V51.7266Z" fill="black"/>
<path d="M72.0001 51.7266H69V54.7267H72.0001V51.7266Z" fill="black"/>
<path d="M81.0001 51.7266H78V54.7267H81.0001V51.7266Z" fill="black"/>
<path d="M90.0001 51.7266H87V54.7267H90.0001V51.7266Z" fill="black"/>
<path d="M92.9962 51.7266H89.9961V54.7267H92.9962V51.7266Z" fill="black"/>
<path d="M99.0001 51.7266H96V54.7267H99.0001V51.7266Z" fill="black"/>
<path d="M3.00012 54.7261H0V57.7262H3.00012V54.7261Z" fill="black"/>
<path d="M5.99621 54.7261H2.99609V57.7262H5.99621V54.7261Z" fill="black"/>
<path d="M8.99621 54.7266H5.99609V57.7267H8.99621V54.7266Z" fill="black"/>
<path d="M21.0001 54.7261H18V57.7262H21.0001V54.7261Z" fill="black"/>
<path d="M23.9982 54.7261H20.998V57.7262H23.9982V54.7261Z" fill="black"/>
<path d="M27.0001 54.7266H24V57.7267H27.0001V54.7266Z" fill="black"/>
<path d="M29.9982 54.7261H26.998V57.7262H29.9982V54.7261Z" fill="black"/>
<path d="M47.9982 54.7266H44.998V57.7267H47.9982V54.7266Z" fill="black"/>
<path d="M53.9982 54.7261H50.998V57.7262H53.9982V54.7261Z" fill="black"/>
<path d="M56.9982 54.7266H53.998V57.7267H56.9982V54.7266Z" fill="black"/>
<path d="M59.9962 54.7261H56.9961V57.7262H59.9962V54.7261Z" fill="black"/>
<path d="M62.9982 54.7261H59.998V57.7262H62.9982V54.7261Z" fill="black"/>
<path d="M65.9962 54.7261H62.9961V57.7262H65.9962V54.7261Z" fill="black"/>
<path d="M69.0021 54.7261H66.002V57.7262H69.0021V54.7261Z" fill="black"/>
<path d="M72.0001 54.7261H69V57.7262H72.0001V54.7261Z" fill="black"/>
<path d="M74.9962 54.7261H71.9961V57.7262H74.9962V54.7261Z" fill="black"/>
<path d="M84.0001 54.7261H81V57.7262H84.0001V54.7261Z" fill="black"/>
<path d="M90.0001 54.7261H87V57.7262H90.0001V54.7261Z" fill="black"/>
<path d="M92.9962 54.7261H89.9961V57.7262H92.9962V54.7261Z" fill="black"/>
<path d="M99.0001 54.7261H96V57.7262H99.0001V54.7261Z" fill="black"/>
<path d="M3.00012 57.7271H0V60.7272H3.00012V57.7271Z" fill="black"/>
<path d="M8.99621 57.7271H5.99609V60.7272H8.99621V57.7271Z" fill="black"/>
<path d="M14.9962 57.7271H11.9961V60.7272H14.9962V57.7271Z" fill="black"/>
<path d="M23.9982 57.7266H20.998V60.7267H23.9982V57.7266Z" fill="black"/>
<path d="M27.0001 57.7271H24V60.7272H27.0001V57.7271Z" fill="black"/>
<path d="M29.9982 57.7271H26.998V60.7272H29.9982V57.7271Z" fill="black"/>
<path d="M32.9982 57.7271H29.998V60.7272H32.9982V57.7271Z" fill="black"/>
<path d="M35.9982 57.7271H32.998V60.7272H35.9982V57.7271Z" fill="black"/>
<path d="M38.9982 57.7271H35.998V60.7272H38.9982V57.7271Z" fill="black"/>
<path d="M44.9982 57.7271H41.998V60.7272H44.9982V57.7271Z" fill="black"/>
<path d="M59.9962 57.7271H56.9961V60.7272H59.9962V57.7271Z" fill="black"/>
<path d="M62.9982 57.7271H59.998V60.7272H62.9982V57.7271Z" fill="black"/>
<path d="M72.0001 57.7271H69V60.7272H72.0001V57.7271Z" fill="black"/>
<path d="M74.9962 57.7271H71.9961V60.7272H74.9962V57.7271Z" fill="black"/>
<path d="M78.0001 57.7271H75V60.7272H78.0001V57.7271Z" fill="black"/>
<path d="M81.0001 57.7271H78V60.7272H81.0001V57.7271Z" fill="black"/>
<path d="M87.0001 57.7266H84V60.7267H87.0001V57.7266Z" fill="black"/>
<path d="M90.0001 57.7271H87V60.7272H90.0001V57.7271Z" fill="black"/>
<path d="M92.9962 57.7271H89.9961V60.7272H92.9962V57.7271Z" fill="black"/>
<path d="M96.0001 57.7271H93V60.7272H96.0001V57.7271Z" fill="black"/>
<path d="M3.00012 60.7271H0V63.7272H3.00012V60.7271Z" fill="black"/>
<path d="M12.0001 60.7271H9V63.7272H12.0001V60.7271Z" fill="black"/>
<path d="M14.9962 60.7271H11.9961V63.7272H14.9962V60.7271Z" fill="black"/>
<path d="M21.0001 60.7271H18V63.7272H21.0001V60.7271Z" fill="black"/>
<path d="M23.9982 60.7271H20.998V63.7272H23.9982V60.7271Z" fill="black"/>
<path d="M27.0001 60.7266H24V63.7267H27.0001V60.7266Z" fill="black"/>
<path d="M29.9982 60.7271H26.998V63.7272H29.9982V60.7271Z" fill="black"/>
<path d="M44.9982 60.7271H41.998V63.7272H44.9982V60.7271Z" fill="black"/>
<path d="M56.9982 60.7266H53.998V63.7267H56.9982V60.7266Z" fill="black"/>
<path d="M59.9962 60.7271H56.9961V63.7272H59.9962V60.7271Z" fill="black"/>
<path d="M65.9962 60.7271H62.9961V63.7272H65.9962V60.7271Z" fill="black"/>
<path d="M74.9962 60.7271H71.9961V63.7272H74.9962V60.7271Z" fill="black"/>
<path d="M78.0001 60.7271H75V63.7272H78.0001V60.7271Z" fill="black"/>
<path d="M87.0001 60.7266H84V63.7267H87.0001V60.7266Z" fill="black"/>
<path d="M90.0001 60.7271H87V63.7272H90.0001V60.7271Z" fill="black"/>
<path d="M96.0001 60.7266H93V63.7267H96.0001V60.7266Z" fill="black"/>
<path d="M3.00012 63.7271H0V66.7272H3.00012V63.7271Z" fill="black"/>
<path d="M5.99621 63.7271H2.99609V66.7272H5.99621V63.7271Z" fill="black"/>
<path d="M12.0001 63.7271H9V66.7272H12.0001V63.7271Z" fill="black"/>
<path d="M23.9982 63.7266H20.998V66.7267H23.9982V63.7266Z" fill="black"/>
<path d="M27.0001 63.7271H24V66.7272H27.0001V63.7271Z" fill="black"/>
<path d="M29.9982 63.7271H26.998V66.7272H29.9982V63.7271Z" fill="black"/>
<path d="M32.9982 63.7271H29.998V66.7272H32.9982V63.7271Z" fill="black"/>
<path d="M35.9982 63.7271H32.998V66.7272H35.9982V63.7271Z" fill="black"/>
<path d="M38.9982 63.7271H35.998V66.7272H38.9982V63.7271Z" fill="black"/>
<path d="M69.0021 63.7271H66.002V66.7272H69.0021V63.7271Z" fill="black"/>
<path d="M72.0001 63.7271H69V66.7272H72.0001V63.7271Z" fill="black"/>
<path d="M84.0001 63.7271H81V66.7272H84.0001V63.7271Z" fill="black"/>
<path d="M87.0001 63.7266H84V66.7267H87.0001V63.7266Z" fill="black"/>
<path d="M92.9962 63.7271H89.9961V66.7272H92.9962V63.7271Z" fill="black"/>
<path d="M3.00012 66.7266H0V69.7267H3.00012V66.7266Z" fill="black"/>
<path d="M8.99621 66.7271H5.99609V69.7272H8.99621V66.7271Z" fill="black"/>
<path d="M12.0001 66.7266H9V69.7267H12.0001V66.7266Z" fill="black"/>
<path d="M21.0001 66.7266H18V69.7267H21.0001V66.7266Z" fill="black"/>
<path d="M23.9982 66.7266H20.998V69.7267H23.9982V66.7266Z" fill="black"/>
<path d="M32.9982 66.7266H29.998V69.7267H32.9982V66.7266Z" fill="black"/>
<path d="M38.9982 66.7271H35.998V69.7272H38.9982V66.7271Z" fill="black"/>
<path d="M41.9982 66.7266H38.998V69.7267H41.9982V66.7266Z" fill="black"/>
<path d="M44.9982 66.7266H41.998V69.7267H44.9982V66.7266Z" fill="black"/>
<path d="M56.9982 66.7271H53.998V69.7272H56.9982V66.7271Z" fill="black"/>
<path d="M59.9962 66.7266H56.9961V69.7267H59.9962V66.7266Z" fill="black"/>
<path d="M65.9962 66.7266H62.9961V69.7267H65.9962V66.7266Z" fill="black"/>
<path d="M81.0001 66.7266H78V69.7267H81.0001V66.7266Z" fill="black"/>
<path d="M87.0001 66.7271H84V69.7272H87.0001V66.7271Z" fill="black"/>
<path d="M96.0001 66.7271H93V69.7272H96.0001V66.7271Z" fill="black"/>
<path d="M3.00012 69.7275H0V72.7277H3.00012V69.7275Z" fill="black"/>
<path d="M14.9962 69.7275H11.9961V72.7277H14.9962V69.7275Z" fill="black"/>
<path d="M27.0001 69.7275H24V72.7277H27.0001V69.7275Z" fill="black"/>
<path d="M35.9982 69.7275H32.998V72.7277H35.9982V69.7275Z" fill="black"/>
<path d="M38.9982 69.7275H35.998V72.7277H38.9982V69.7275Z" fill="black"/>
<path d="M47.9982 69.7275H44.998V72.7277H47.9982V69.7275Z" fill="black"/>
<path d="M50.9982 69.7275H47.998V72.7277H50.9982V69.7275Z" fill="black"/>
<path d="M59.9962 69.7275H56.9961V72.7277H59.9962V69.7275Z" fill="black"/>
<path d="M62.9982 69.7275H59.998V72.7277H62.9982V69.7275Z" fill="black"/>
<path d="M69.0021 69.7275H66.002V72.7277H69.0021V69.7275Z" fill="black"/>
<path d="M74.9962 69.7275H71.9961V72.7277H74.9962V69.7275Z" fill="black"/>
<path d="M90.0001 69.7275H87V72.7277H90.0001V69.7275Z" fill="black"/>
<path d="M92.9962 69.7275H89.9961V72.7277H92.9962V69.7275Z" fill="black"/>
<path d="M96.0001 69.7275H93V72.7277H96.0001V69.7275Z" fill="black"/>
<path d="M99.0001 69.7275H96V72.7277H99.0001V69.7275Z" fill="black"/>
<path d="M3.00012 72.7275H0V75.7277H3.00012V72.7275Z" fill="black"/>
<path d="M5.99621 72.7275H2.99609V75.7277H5.99621V72.7275Z" fill="black"/>
<path d="M8.99621 72.7271H5.99609V75.7272H8.99621V72.7271Z" fill="black"/>
<path d="M12.0001 72.7275H9V75.7277H12.0001V72.7275Z" fill="black"/>
<path d="M14.9962 72.7275H11.9961V75.7277H14.9962V72.7275Z" fill="black"/>
<path d="M21.0001 72.7275H18V75.7277H21.0001V72.7275Z" fill="black"/>
<path d="M23.9982 72.7275H20.998V75.7277H23.9982V72.7275Z" fill="black"/>
<path d="M29.9982 72.7275H26.998V75.7277H29.9982V72.7275Z" fill="black"/>
<path d="M35.9982 72.7275H32.998V75.7277H35.9982V72.7275Z" fill="black"/>
<path d="M38.9982 72.7271H35.998V75.7272H38.9982V72.7271Z" fill="black"/>
<path d="M41.9982 72.7275H38.998V75.7277H41.9982V72.7275Z" fill="black"/>
<path d="M44.9982 72.7275H41.998V75.7277H44.9982V72.7275Z" fill="black"/>
<path d="M50.9982 72.7275H47.998V75.7277H50.9982V72.7275Z" fill="black"/>
<path d="M62.9982 72.7275H59.998V75.7277H62.9982V72.7275Z" fill="black"/>
<path d="M74.9962 72.7275H71.9961V75.7277H74.9962V72.7275Z" fill="black"/>
<path d="M78.0001 72.7275H75V75.7277H78.0001V72.7275Z" fill="black"/>
<path d="M81.0001 72.7275H78V75.7277H81.0001V72.7275Z" fill="black"/>
<path d="M84.0001 72.7275H81V75.7277H84.0001V72.7275Z" fill="black"/>
<path d="M87.0001 72.7271H84V75.7272H87.0001V72.7271Z" fill="black"/>
<path d="M90.0001 72.7275H87V75.7277H90.0001V72.7275Z" fill="black"/>
<path d="M27.0001 75.7266H24V78.7267H27.0001V75.7266Z" fill="black"/>
<path d="M29.9982 75.7261H26.998V78.7262H29.9982V75.7261Z" fill="black"/>
<path d="M38.9982 75.7266H35.998V78.7267H38.9982V75.7266Z" fill="black"/>
<path d="M41.9982 75.7261H38.998V78.7262H41.9982V75.7261Z" fill="black"/>
<path d="M44.9982 75.7261H41.998V78.7262H44.9982V75.7261Z" fill="black"/>
<path d="M47.9982 75.7266H44.998V78.7267H47.9982V75.7266Z" fill="black"/>
<path d="M50.9982 75.7261H47.998V78.7262H50.9982V75.7261Z" fill="black"/>
<path d="M53.9982 75.7261H50.998V78.7262H53.9982V75.7261Z" fill="black"/>
<path d="M56.9982 75.7266H53.998V78.7267H56.9982V75.7266Z" fill="black"/>
<path d="M59.9962 75.7261H56.9961V78.7262H59.9962V75.7261Z" fill="black"/>
<path d="M65.9962 75.7261H62.9961V78.7262H65.9962V75.7261Z" fill="black"/>
<path d="M69.0021 75.7261H66.002V78.7262H69.0021V75.7261Z" fill="black"/>
<path d="M72.0001 75.7261H69V78.7262H72.0001V75.7261Z" fill="black"/>
<path d="M74.9962 75.7261H71.9961V78.7262H74.9962V75.7261Z" fill="black"/>
<path d="M87.0001 75.7266H84V78.7267H87.0001V75.7266Z" fill="black"/>
<path d="M92.9962 75.7261H89.9961V78.7262H92.9962V75.7261Z" fill="black"/>
<path d="M99.0001 75.7261H96V78.7262H99.0001V75.7261Z" fill="black"/>
<path d="M35.9982 78.7271H32.998V81.7272H35.9982V78.7271Z" fill="black"/>
<path d="M44.9982 78.7271H41.998V81.7272H44.9982V78.7271Z" fill="black"/>
<path d="M47.9982 78.7275H44.998V81.7277H47.9982V78.7275Z" fill="black"/>
<path d="M53.9982 78.7271H50.998V81.7272H53.9982V78.7271Z" fill="black"/>
<path d="M69.0021 78.7271H66.002V81.7272H69.0021V78.7271Z" fill="black"/>
<path d="M72.0001 78.7271H69V81.7272H72.0001V78.7271Z" fill="black"/>
<path d="M74.9962 78.7271H71.9961V81.7272H74.9962V78.7271Z" fill="black"/>
<path d="M81.0001 78.7271H78V81.7272H81.0001V78.7271Z" fill="black"/>
<path d="M87.0001 78.7275H84V81.7277H87.0001V78.7275Z" fill="black"/>
<path d="M92.9962 78.7271H89.9961V81.7272H92.9962V78.7271Z" fill="black"/>
<path d="M96.0001 78.7275H93V81.7277H96.0001V78.7275Z" fill="black"/>
<path d="M32.9982 81.728H29.998V84.7281H32.9982V81.728Z" fill="black"/>
<path d="M35.9982 81.728H32.998V84.7281H35.9982V81.728Z" fill="black"/>
<path d="M53.9982 81.728H50.998V84.7281H53.9982V81.728Z" fill="black"/>
<path d="M56.9982 81.728H53.998V84.7281H56.9982V81.728Z" fill="black"/>
<path d="M65.9962 81.728H62.9961V84.7281H65.9962V81.728Z" fill="black"/>
<path d="M69.0021 81.728H66.002V84.7281H69.0021V81.728Z" fill="black"/>
<path d="M72.0001 81.728H69V84.7281H72.0001V81.728Z" fill="black"/>
<path d="M74.9962 81.728H71.9961V84.7281H74.9962V81.728Z" fill="black"/>
<path d="M87.0001 81.728H84V84.7281H87.0001V81.728Z" fill="black"/>
<path d="M90.0001 81.728H87V84.7281H90.0001V81.728Z" fill="black"/>
<path d="M92.9962 81.728H89.9961V84.7281H92.9962V81.728Z" fill="black"/>
<path d="M29.9982 84.728H26.998V87.7281H29.9982V84.728Z" fill="black"/>
<path d="M32.9982 84.728H29.998V87.7281H32.9982V84.728Z" fill="black"/>
<path d="M35.9982 84.728H32.998V87.7281H35.9982V84.728Z" fill="black"/>
<path d="M38.9982 84.7275H35.998V87.7277H38.9982V84.7275Z" fill="black"/>
<path d="M41.9982 84.728H38.998V87.7281H41.9982V84.728Z" fill="black"/>
<path d="M47.9982 84.7275H44.998V87.7277H47.9982V84.7275Z" fill="black"/>
<path d="M50.9982 84.728H47.998V87.7281H50.9982V84.728Z" fill="black"/>
<path d="M62.9982 84.728H59.998V87.7281H62.9982V84.728Z" fill="black"/>
<path d="M65.9962 84.728H62.9961V87.7281H65.9962V84.728Z" fill="black"/>
<path d="M69.0021 84.728H66.002V87.7281H69.0021V84.728Z" fill="black"/>
<path d="M74.9962 84.728H71.9961V87.7281H74.9962V84.728Z" fill="black"/>
<path d="M78.0001 84.728H75V87.7281H78.0001V84.728Z" fill="black"/>
<path d="M81.0001 84.728H78V87.7281H81.0001V84.728Z" fill="black"/>
<path d="M84.0001 84.728H81V87.7281H84.0001V84.728Z" fill="black"/>
<path d="M87.0001 84.7285H84V87.7286H87.0001V84.7285Z" fill="black"/>
<path d="M90.0001 84.728H87V87.7281H90.0001V84.728Z" fill="black"/>
<path d="M38.9982 87.7271H35.998V90.7272H38.9982V87.7271Z" fill="black"/>
<path d="M53.9982 87.7266H50.998V90.7267H53.9982V87.7266Z" fill="black"/>
<path d="M56.9982 87.7271H53.998V90.7272H56.9982V87.7271Z" fill="black"/>
<path d="M72.0001 87.7266H69V90.7267H72.0001V87.7266Z" fill="black"/>
<path d="M78.0001 87.7266H75V90.7267H78.0001V87.7266Z" fill="black"/>
<path d="M84.0001 87.7266H81V90.7267H84.0001V87.7266Z" fill="black"/>
<path d="M87.0001 87.7271H84V90.7272H87.0001V87.7271Z" fill="black"/>
<path d="M90.0001 87.7266H87V90.7267H90.0001V87.7266Z" fill="black"/>
<path d="M92.9962 87.7266H89.9961V90.7267H92.9962V87.7266Z" fill="black"/>
<path d="M99.0001 87.7266H96V90.7267H99.0001V87.7266Z" fill="black"/>
<path d="M29.9982 90.7275H26.998V93.7277H29.9982V90.7275Z" fill="black"/>
<path d="M32.9982 90.7275H29.998V93.7277H32.9982V90.7275Z" fill="black"/>
<path d="M38.9982 90.728H35.998V93.7281H38.9982V90.728Z" fill="black"/>
<path d="M47.9982 90.728H44.998V93.7281H47.9982V90.728Z" fill="black"/>
<path d="M59.9962 90.7275H56.9961V93.7277H59.9962V90.7275Z" fill="black"/>
<path d="M69.0021 90.7275H66.002V93.7277H69.0021V90.7275Z" fill="black"/>
<path d="M78.0001 90.7275H75V93.7277H78.0001V90.7275Z" fill="black"/>
<path d="M84.0001 90.7275H81V93.7277H84.0001V90.7275Z" fill="black"/>
<path d="M87.0001 90.728H84V93.7281H87.0001V90.728Z" fill="black"/>
<path d="M92.9962 90.7275H89.9961V93.7277H92.9962V90.7275Z" fill="black"/>
<path d="M96.0001 90.728H93V93.7281H96.0001V90.728Z" fill="black"/>
<path d="M99.0001 90.7275H96V93.7277H99.0001V90.7275Z" fill="black"/>
<path d="M29.9982 93.7275H26.998V96.7277H29.9982V93.7275Z" fill="black"/>
<path d="M32.9982 93.7275H29.998V96.7277H32.9982V93.7275Z" fill="black"/>
<path d="M41.9982 93.7275H38.998V96.7277H41.9982V93.7275Z" fill="black"/>
<path d="M44.9982 93.7275H41.998V96.7277H44.9982V93.7275Z" fill="black"/>
<path d="M56.9982 93.7275H53.998V96.7277H56.9982V93.7275Z" fill="black"/>
<path d="M84.0001 93.7275H81V96.7277H84.0001V93.7275Z" fill="black"/>
<path d="M87.0001 93.728H84V96.7281H87.0001V93.728Z" fill="black"/>
<path d="M90.0001 93.7275H87V96.7277H90.0001V93.7275Z" fill="black"/>
<path d="M92.9962 93.7275H89.9961V96.7277H92.9962V93.7275Z" fill="black"/>
<path d="M27.0001 96.728H24V99.7281H27.0001V96.728Z" fill="black"/>
<path d="M29.9982 96.7285H26.998V99.7286H29.9982V96.7285Z" fill="black"/>
<path d="M32.9982 96.7285H29.998V99.7286H32.9982V96.7285Z" fill="black"/>
<path d="M41.9982 96.7285H38.998V99.7286H41.9982V96.7285Z" fill="black"/>
<path d="M44.9982 96.7285H41.998V99.7286H44.9982V96.7285Z" fill="black"/>
<path d="M47.9982 96.728H44.998V99.7281H47.9982V96.728Z" fill="black"/>
<path d="M53.9982 96.7285H50.998V99.7286H53.9982V96.7285Z" fill="black"/>
<path d="M62.9982 96.7285H59.998V99.7286H62.9982V96.7285Z" fill="black"/>
<path d="M69.0021 96.7285H66.002V99.7286H69.0021V96.7285Z" fill="black"/>
<path d="M72.0001 96.7285H69V99.7286H72.0001V96.7285Z" fill="black"/>
<path d="M74.9962 96.7285H71.9961V99.7286H74.9962V96.7285Z" fill="black"/>
<path d="M81.0001 96.7285H78V99.7286H81.0001V96.7285Z" fill="black"/>
<path d="M84.0001 96.7285H81V99.7286H84.0001V96.7285Z" fill="black"/>
<path d="M96.0001 96.728H93V99.7281H96.0001V96.728Z" fill="black"/>
<path d="M17.8507 0.724121H3.15013H0V3.87425V18.5748V21.725H3.15013H17.8507H21.0008V18.5748V3.87425V0.724121H17.8507ZM17.8507 18.5748H3.15013V3.87425H17.8507V18.5748Z" fill="black"/>
<path d="M95.8507 0.724121H81.1501H78V3.87425V18.5748V21.725H81.1501H95.8507H99.0008V18.5748V3.87425V0.724121H95.8507ZM95.8507 18.5748H81.1501V3.87425H95.8507V18.5748Z" fill="black"/>
<path d="M17.8507 78.7271H3.15013H0V81.8772V96.5778V99.7279H3.15013H17.8507H21.0008V96.5778V81.8772V78.7271H17.8507ZM17.8507 96.5778H3.15013V81.8772H17.8507V96.5778Z" fill="black"/>
<path d="M14.9965 6.72412H5.99609V15.7245H14.9965V6.72412Z" fill="black"/>
<path d="M93.0004 6.72461H84V15.725H93.0004V6.72461Z" fill="black"/>
<path d="M14.9965 84.7275H5.99609V93.7279H14.9965V84.7275Z" fill="black"/>
</svg>
