<svg width="20" height="19" viewBox="0 0 20 19" fill="none" xmlns="http://www.w3.org/2000/svg">
<path d="M19.5485 8.53449C19.73 8.35956 19.8583 8.13812 19.9189 7.89515C19.9795 7.65217 19.9701 7.39732 19.8916 7.15936C19.8131 6.9214 19.6688 6.70978 19.4748 6.5484C19.2809 6.38701 19.0451 6.28227 18.7939 6.24599L14.1964 5.5853C14.0999 5.5716 14.0083 5.53492 13.9294 5.47844C13.8505 5.42196 13.7868 5.34739 13.7437 5.26116L11.6902 1.15533C11.5776 0.930889 11.4037 0.741942 11.188 0.609833C10.9722 0.477723 10.7233 0.407715 10.4694 0.407715C10.2154 0.407715 9.96655 0.477723 9.75083 0.609833C9.5351 0.741942 9.36115 0.930889 9.2486 1.15533L7.19329 5.26293C7.15009 5.34907 7.08631 5.42357 7.00745 5.48003C6.92859 5.53649 6.837 5.57323 6.74055 5.58708L2.14485 6.24422C1.89373 6.2805 1.6579 6.38524 1.46395 6.54663C1.26999 6.70801 1.12564 6.91963 1.04718 7.15759C0.968719 7.39555 0.959266 7.6504 1.01989 7.89337C1.08051 8.13635 1.2088 8.35779 1.39028 8.53272L4.71578 11.721C4.78779 11.7882 4.84187 11.8718 4.87321 11.9645C4.90455 12.0572 4.91219 12.1561 4.89544 12.2524L4.11033 16.7656C4.07187 16.9573 4.07722 17.155 4.12602 17.3443C4.17481 17.5337 4.26581 17.71 4.3924 17.8603C4.59379 18.0933 4.86918 18.2523 5.17382 18.3114C5.47846 18.3706 5.79444 18.3265 6.07042 18.1862L10.181 16.0607C10.2675 16.0171 10.3633 15.9944 10.4604 15.9944C10.5575 15.9944 10.6533 16.0171 10.7398 16.0607L14.8504 18.1862C15.0451 18.2884 15.2622 18.3419 15.4828 18.3421C15.6837 18.3432 15.8824 18.3006 16.0647 18.2173C16.247 18.1341 16.4084 18.0121 16.5374 17.8603C16.6655 17.712 16.7585 17.5375 16.8098 17.3494C16.861 17.1613 16.8693 16.9643 16.8338 16.7727L16.0487 12.2542C16.032 12.1579 16.0396 12.059 16.071 11.9663C16.1023 11.8736 16.1564 11.7899 16.2284 11.7228L19.5485 8.53449Z" fill="#FF7905"/>
</svg>
