<svg width="193" height="193" viewBox="0 0 193 193" fill="none" xmlns="http://www.w3.org/2000/svg">
<path d="M76.0856 0.260742H70.2529V6.09341H76.0856V0.260742Z" fill="black"/>
<path d="M81.9176 0.260742H76.085V6.09341H81.9176V0.260742Z" fill="black"/>
<path d="M99.4157 0.260742H93.583V6.09341H99.4157V0.260742Z" fill="black"/>
<path d="M105.248 0.260742H99.4155V6.09341H105.248V0.260742Z" fill="black"/>
<path d="M111.081 0.260742H105.248V6.09341H111.081V0.260742Z" fill="black"/>
<path d="M122.747 0.260742H116.915V6.09341H122.747V0.260742Z" fill="black"/>
<path d="M128.58 0.260742H122.747V6.09341H128.58V0.260742Z" fill="black"/>
<path d="M52.755 6.09375H46.9224V11.9264H52.755V6.09375Z" fill="black"/>
<path d="M58.588 6.09375H52.7554V11.9264H58.588V6.09375Z" fill="black"/>
<path d="M70.2526 6.09375H64.4199V11.9264H70.2526V6.09375Z" fill="black"/>
<path d="M76.0856 6.09375H70.2529V11.9264H76.0856V6.09375Z" fill="black"/>
<path d="M99.4157 6.09375H93.583V11.9264H99.4157V6.09375Z" fill="black"/>
<path d="M111.081 6.09375H105.248V11.9264H111.081V6.09375Z" fill="black"/>
<path d="M122.747 6.09375H116.915V11.9264H122.747V6.09375Z" fill="black"/>
<path d="M52.755 11.9258H46.9224V17.7585H52.755V11.9258Z" fill="black"/>
<path d="M58.588 11.9258H52.7554V17.7585H58.588V11.9258Z" fill="black"/>
<path d="M70.2526 11.9258H64.4199V17.7585H70.2526V11.9258Z" fill="black"/>
<path d="M87.7506 11.9258H81.918V17.7585H87.7506V11.9258Z" fill="black"/>
<path d="M99.4157 11.9258H93.583V17.7585H99.4157V11.9258Z" fill="black"/>
<path d="M122.747 11.9258H116.915V17.7585H122.747V11.9258Z" fill="black"/>
<path d="M128.58 11.9258H122.747V17.7585H128.58V11.9258Z" fill="black"/>
<path d="M134.412 11.9258H128.58V17.7585H134.412V11.9258Z" fill="black"/>
<path d="M52.755 17.7588H46.9224V23.5915H52.755V17.7588Z" fill="black"/>
<path d="M64.4206 17.7588H58.5879V23.5915H64.4206V17.7588Z" fill="black"/>
<path d="M76.0856 17.7588H70.2529V23.5915H76.0856V17.7588Z" fill="black"/>
<path d="M87.7506 17.7588H81.918V23.5915H87.7506V17.7588Z" fill="black"/>
<path d="M99.4157 17.7588H93.583V23.5915H99.4157V17.7588Z" fill="black"/>
<path d="M111.081 17.7588H105.248V23.5915H111.081V17.7588Z" fill="black"/>
<path d="M122.747 17.7588H116.915V23.5915H122.747V17.7588Z" fill="black"/>
<path d="M128.58 17.7588H122.747V23.5915H128.58V17.7588Z" fill="black"/>
<path d="M146.077 17.7588H140.244V23.5915H146.077V17.7588Z" fill="black"/>
<path d="M81.9176 23.5913H76.085V29.424H81.9176V23.5913Z" fill="black"/>
<path d="M87.7506 23.5913H81.918V29.424H87.7506V23.5913Z" fill="black"/>
<path d="M93.5832 23.5913H87.7505V29.424H93.5832V23.5913Z" fill="black"/>
<path d="M99.4157 23.5913H93.583V29.424H99.4157V23.5913Z" fill="black"/>
<path d="M105.248 23.5913H99.4155V29.424H105.248V23.5913Z" fill="black"/>
<path d="M122.747 23.5913H116.915V29.424H122.747V23.5913Z" fill="black"/>
<path d="M128.58 23.5913H122.747V29.424H128.58V23.5913Z" fill="black"/>
<path d="M134.412 23.5913H128.58V29.424H134.412V23.5913Z" fill="black"/>
<path d="M70.2526 29.4238H64.4199V35.2565H70.2526V29.4238Z" fill="black"/>
<path d="M76.0856 29.4238H70.2529V35.2565H76.0856V29.4238Z" fill="black"/>
<path d="M81.9176 29.4238H76.085V35.2565H81.9176V29.4238Z" fill="black"/>
<path d="M87.7506 29.4238H81.918V35.2565H87.7506V29.4238Z" fill="black"/>
<path d="M93.5832 29.4238H87.7505V35.2565H93.5832V29.4238Z" fill="black"/>
<path d="M105.248 29.4238H99.4155V35.2565H105.248V29.4238Z" fill="black"/>
<path d="M116.915 29.4238H111.082V35.2565H116.915V29.4238Z" fill="black"/>
<path d="M128.58 29.4238H122.747V35.2565H128.58V29.4238Z" fill="black"/>
<path d="M52.755 35.2559H46.9224V41.0885H52.755V35.2559Z" fill="black"/>
<path d="M64.4206 35.2559H58.5879V41.0885H64.4206V35.2559Z" fill="black"/>
<path d="M76.0856 35.2559H70.2529V41.0885H76.0856V35.2559Z" fill="black"/>
<path d="M87.7506 35.2559H81.918V41.0885H87.7506V35.2559Z" fill="black"/>
<path d="M99.4157 35.2559H93.583V41.0885H99.4157V35.2559Z" fill="black"/>
<path d="M111.081 35.2559H105.248V41.0885H111.081V35.2559Z" fill="black"/>
<path d="M122.747 35.2559H116.915V41.0885H122.747V35.2559Z" fill="black"/>
<path d="M134.412 35.2559H128.58V41.0885H134.412V35.2559Z" fill="black"/>
<path d="M146.077 35.2559H140.244V41.0885H146.077V35.2559Z" fill="black"/>
<path d="M52.755 41.0898H46.9224V46.9225H52.755V41.0898Z" fill="black"/>
<path d="M58.588 41.0898H52.7554V46.9225H58.588V41.0898Z" fill="black"/>
<path d="M64.4206 41.0898H58.5879V46.9225H64.4206V41.0898Z" fill="black"/>
<path d="M70.2526 41.0898H64.4199V46.9225H70.2526V41.0898Z" fill="black"/>
<path d="M76.0856 41.0898H70.2529V46.9225H76.0856V41.0898Z" fill="black"/>
<path d="M87.7506 41.0898H81.918V46.9225H87.7506V41.0898Z" fill="black"/>
<path d="M93.5832 41.0898H87.7505V46.9225H93.5832V41.0898Z" fill="black"/>
<path d="M99.4157 41.0898H93.583V46.9225H99.4157V41.0898Z" fill="black"/>
<path d="M116.915 41.0898H111.082V46.9225H116.915V41.0898Z" fill="black"/>
<path d="M122.747 41.0898H116.915V46.9225H122.747V41.0898Z" fill="black"/>
<path d="M134.412 41.0898H128.58V46.9225H134.412V41.0898Z" fill="black"/>
<path d="M6.09341 46.9224H0.260742V52.755H6.09341V46.9224Z" fill="black"/>
<path d="M41.0885 46.9224H35.2559V52.755H41.0885V46.9224Z" fill="black"/>
<path d="M52.755 46.9224H46.9224V52.755H52.755V46.9224Z" fill="black"/>
<path d="M58.588 46.9224H52.7554V52.755H58.588V46.9224Z" fill="black"/>
<path d="M64.4206 46.9224H58.5879V52.755H64.4206V46.9224Z" fill="black"/>
<path d="M76.0856 46.9224H70.2529V52.755H76.0856V46.9224Z" fill="black"/>
<path d="M81.9176 46.9224H76.085V52.755H81.9176V46.9224Z" fill="black"/>
<path d="M87.7506 46.9224H81.918V52.755H87.7506V46.9224Z" fill="black"/>
<path d="M105.248 46.9224H99.4155V52.755H105.248V46.9224Z" fill="black"/>
<path d="M116.915 46.9224H111.082V52.755H116.915V46.9224Z" fill="black"/>
<path d="M122.747 46.9224H116.915V52.755H122.747V46.9224Z" fill="black"/>
<path d="M134.412 46.9224H128.58V52.755H134.412V46.9224Z" fill="black"/>
<path d="M146.077 46.9224H140.244V52.755H146.077V46.9224Z" fill="black"/>
<path d="M151.91 46.9224H146.077V52.755H151.91V46.9224Z" fill="black"/>
<path d="M157.742 46.9209H151.91V52.7536H157.742V46.9209Z" fill="black"/>
<path d="M175.24 46.9224H169.407V52.755H175.24V46.9224Z" fill="black"/>
<path d="M181.074 46.9224H175.241V52.755H181.074V46.9224Z" fill="black"/>
<path d="M186.906 46.9224H181.074V52.755H186.906V46.9224Z" fill="black"/>
<path d="M6.09341 52.7554H0.260742V58.588H6.09341V52.7554Z" fill="black"/>
<path d="M17.7585 52.7554H11.9258V58.588H17.7585V52.7554Z" fill="black"/>
<path d="M23.5915 52.7554H17.7588V58.588H23.5915V52.7554Z" fill="black"/>
<path d="M35.2565 52.7554H29.4238V58.588H35.2565V52.7554Z" fill="black"/>
<path d="M58.588 52.7554H52.7554V58.588H58.588V52.7554Z" fill="black"/>
<path d="M64.4206 52.7554H58.5879V58.588H64.4206V52.7554Z" fill="black"/>
<path d="M70.2526 52.7554H64.4199V58.588H70.2526V52.7554Z" fill="black"/>
<path d="M81.9176 52.7554H76.085V58.588H81.9176V52.7554Z" fill="black"/>
<path d="M93.5832 52.7554H87.7505V58.588H93.5832V52.7554Z" fill="black"/>
<path d="M105.248 52.7554H99.4155V58.588H105.248V52.7554Z" fill="black"/>
<path d="M111.081 52.7554H105.248V58.588H111.081V52.7554Z" fill="black"/>
<path d="M116.915 52.7554H111.082V58.588H116.915V52.7554Z" fill="black"/>
<path d="M134.412 52.7554H128.58V58.588H134.412V52.7554Z" fill="black"/>
<path d="M140.245 52.7554H134.412V58.588H140.245V52.7554Z" fill="black"/>
<path d="M169.409 52.7554H163.576V58.588H169.409V52.7554Z" fill="black"/>
<path d="M175.24 52.7554H169.407V58.588H175.24V52.7554Z" fill="black"/>
<path d="M181.074 52.7554H175.241V58.588H181.074V52.7554Z" fill="black"/>
<path d="M6.09341 58.5879H0.260742V64.4206H6.09341V58.5879Z" fill="black"/>
<path d="M17.7585 58.5879H11.9258V64.4206H17.7585V58.5879Z" fill="black"/>
<path d="M29.424 58.5879H23.5913V64.4206H29.424V58.5879Z" fill="black"/>
<path d="M35.2565 58.5879H29.4238V64.4206H35.2565V58.5879Z" fill="black"/>
<path d="M41.0885 58.5879H35.2559V64.4206H41.0885V58.5879Z" fill="black"/>
<path d="M46.9225 58.5879H41.0898V64.4206H46.9225V58.5879Z" fill="black"/>
<path d="M52.755 58.5879H46.9224V64.4206H52.755V58.5879Z" fill="black"/>
<path d="M58.588 58.5879H52.7554V64.4206H58.588V58.5879Z" fill="black"/>
<path d="M70.2526 58.5879H64.4199V64.4206H70.2526V58.5879Z" fill="black"/>
<path d="M76.0856 58.5879H70.2529V64.4206H76.0856V58.5879Z" fill="black"/>
<path d="M81.9176 58.5879H76.085V64.4206H81.9176V58.5879Z" fill="black"/>
<path d="M87.7506 58.5879H81.918V64.4206H87.7506V58.5879Z" fill="black"/>
<path d="M93.5832 58.5879H87.7505V64.4206H93.5832V58.5879Z" fill="black"/>
<path d="M105.248 58.5879H99.4155V64.4206H105.248V58.5879Z" fill="black"/>
<path d="M128.58 58.5879H122.747V64.4206H128.58V58.5879Z" fill="black"/>
<path d="M151.91 58.5879H146.077V64.4206H151.91V58.5879Z" fill="black"/>
<path d="M157.742 58.5879H151.91V64.4206H157.742V58.5879Z" fill="black"/>
<path d="M169.409 58.5879H163.576V64.4206H169.409V58.5879Z" fill="black"/>
<path d="M181.074 58.5879H175.241V64.4206H181.074V58.5879Z" fill="black"/>
<path d="M186.906 58.5879H181.074V64.4206H186.906V58.5879Z" fill="black"/>
<path d="M11.9264 64.4199H6.09375V70.2526H11.9264V64.4199Z" fill="black"/>
<path d="M23.5915 64.4199H17.7588V70.2526H23.5915V64.4199Z" fill="black"/>
<path d="M29.424 64.4199H23.5913V70.2526H29.424V64.4199Z" fill="black"/>
<path d="M70.2526 64.4199H64.4199V70.2526H70.2526V64.4199Z" fill="black"/>
<path d="M81.9176 64.4199H76.085V70.2526H81.9176V64.4199Z" fill="black"/>
<path d="M93.5832 64.4199H87.7505V70.2526H93.5832V64.4199Z" fill="black"/>
<path d="M99.4157 64.4199H93.583V70.2526H99.4157V64.4199Z" fill="black"/>
<path d="M105.248 64.4199H99.4155V70.2526H105.248V64.4199Z" fill="black"/>
<path d="M111.081 64.4199H105.248V70.2526H111.081V64.4199Z" fill="black"/>
<path d="M116.915 64.4199H111.082V70.2526H116.915V64.4199Z" fill="black"/>
<path d="M140.245 64.4199H134.412V70.2526H140.245V64.4199Z" fill="black"/>
<path d="M146.077 64.4199H140.244V70.2526H146.077V64.4199Z" fill="black"/>
<path d="M151.91 64.4199H146.077V70.2526H151.91V64.4199Z" fill="black"/>
<path d="M163.576 64.4199H157.744V70.2526H163.576V64.4199Z" fill="black"/>
<path d="M169.409 64.4199H163.576V70.2526H169.409V64.4199Z" fill="black"/>
<path d="M175.24 64.4199H169.407V70.2526H175.24V64.4199Z" fill="black"/>
<path d="M181.074 64.4199H175.241V70.2526H181.074V64.4199Z" fill="black"/>
<path d="M17.7585 70.2529H11.9258V76.0856H17.7585V70.2529Z" fill="black"/>
<path d="M41.0885 70.2529H35.2559V76.0856H41.0885V70.2529Z" fill="black"/>
<path d="M64.4206 70.2529H58.5879V76.0856H64.4206V70.2529Z" fill="black"/>
<path d="M70.2526 70.2529H64.4199V76.0856H70.2526V70.2529Z" fill="black"/>
<path d="M81.9176 70.2529H76.085V76.0856H81.9176V70.2529Z" fill="black"/>
<path d="M105.248 70.2529H99.4155V76.0856H105.248V70.2529Z" fill="black"/>
<path d="M116.915 70.2529H111.082V76.0856H116.915V70.2529Z" fill="black"/>
<path d="M140.245 70.2529H134.412V76.0856H140.245V70.2529Z" fill="black"/>
<path d="M146.077 70.2529H140.244V76.0856H146.077V70.2529Z" fill="black"/>
<path d="M157.743 70.2534H151.91V76.0861H157.743V70.2534Z" fill="black"/>
<path d="M163.576 70.2529H157.744V76.0856H163.576V70.2529Z" fill="black"/>
<path d="M169.409 70.2529H163.576V76.0856H169.409V70.2529Z" fill="black"/>
<path d="M192.739 70.2529H186.906V76.0856H192.739V70.2529Z" fill="black"/>
<path d="M6.09341 76.085H0.260742V81.9176H6.09341V76.085Z" fill="black"/>
<path d="M17.7585 76.085H11.9258V81.9176H17.7585V76.085Z" fill="black"/>
<path d="M35.2565 76.085H29.4238V81.9176H35.2565V76.085Z" fill="black"/>
<path d="M52.755 76.085H46.9224V81.9176H52.755V76.085Z" fill="black"/>
<path d="M64.4206 76.085H58.5879V81.9176H64.4206V76.085Z" fill="black"/>
<path d="M70.2526 76.085H64.4199V81.9176H70.2526V76.085Z" fill="black"/>
<path d="M81.9176 76.085H76.085V81.9176H81.9176V76.085Z" fill="black"/>
<path d="M105.248 76.085H99.4155V81.9176H105.248V76.085Z" fill="black"/>
<path d="M111.081 76.085H105.248V81.9176H111.081V76.085Z" fill="black"/>
<path d="M128.58 76.085H122.747V81.9176H128.58V76.085Z" fill="black"/>
<path d="M134.412 76.085H128.58V81.9176H134.412V76.085Z" fill="black"/>
<path d="M140.245 76.085H134.412V81.9176H140.245V76.085Z" fill="black"/>
<path d="M157.742 76.0854H151.91V81.9181H157.742V76.0854Z" fill="black"/>
<path d="M163.576 76.085H157.744V81.9176H163.576V76.085Z" fill="black"/>
<path d="M186.906 76.085H181.074V81.9176H186.906V76.085Z" fill="black"/>
<path d="M192.739 76.085H186.906V81.9176H192.739V76.085Z" fill="black"/>
<path d="M23.5915 81.918H17.7588V87.7506H23.5915V81.918Z" fill="black"/>
<path d="M41.0885 81.918H35.2559V87.7506H41.0885V81.918Z" fill="black"/>
<path d="M46.9225 81.918H41.0898V87.7506H46.9225V81.918Z" fill="black"/>
<path d="M52.755 81.918H46.9224V87.7506H52.755V81.918Z" fill="black"/>
<path d="M58.588 81.918H52.7554V87.7506H58.588V81.918Z" fill="black"/>
<path d="M70.2526 81.918H64.4199V87.7506H70.2526V81.918Z" fill="black"/>
<path d="M81.9176 81.918H76.085V87.7506H81.9176V81.918Z" fill="black"/>
<path d="M87.7506 81.918H81.918V87.7506H87.7506V81.918Z" fill="black"/>
<path d="M93.5832 81.918H87.7505V87.7506H93.5832V81.918Z" fill="black"/>
<path d="M99.4157 81.918H93.583V87.7506H99.4157V81.918Z" fill="black"/>
<path d="M122.747 81.918H116.915V87.7506H122.747V81.918Z" fill="black"/>
<path d="M128.58 81.918H122.747V87.7506H128.58V81.918Z" fill="black"/>
<path d="M134.412 81.918H128.58V87.7506H134.412V81.918Z" fill="black"/>
<path d="M146.077 81.918H140.244V87.7506H146.077V81.918Z" fill="black"/>
<path d="M151.91 81.918H146.077V87.7506H151.91V81.918Z" fill="black"/>
<path d="M157.742 81.9185H151.91V87.7511H157.742V81.9185Z" fill="black"/>
<path d="M163.576 81.918H157.744V87.7506H163.576V81.918Z" fill="black"/>
<path d="M175.24 81.918H169.407V87.7506H175.24V81.918Z" fill="black"/>
<path d="M181.074 81.918H175.241V87.7506H181.074V81.918Z" fill="black"/>
<path d="M186.906 81.918H181.074V87.7506H186.906V81.918Z" fill="black"/>
<path d="M17.7585 87.7505H11.9258V93.5832H17.7585V87.7505Z" fill="black"/>
<path d="M29.424 87.7505H23.5913V93.5832H29.424V87.7505Z" fill="black"/>
<path d="M46.9225 87.7505H41.0898V93.5832H46.9225V87.7505Z" fill="black"/>
<path d="M52.755 87.7505H46.9224V93.5832H52.755V87.7505Z" fill="black"/>
<path d="M64.4206 87.7505H58.5879V93.5832H64.4206V87.7505Z" fill="black"/>
<path d="M70.2526 87.7505H64.4199V93.5832H70.2526V87.7505Z" fill="black"/>
<path d="M81.9176 87.7505H76.085V93.5832H81.9176V87.7505Z" fill="black"/>
<path d="M87.7506 87.7505H81.918V93.5832H87.7506V87.7505Z" fill="black"/>
<path d="M99.4157 87.7505H93.583V93.5832H99.4157V87.7505Z" fill="black"/>
<path d="M111.081 87.7505H105.248V93.5832H111.081V87.7505Z" fill="black"/>
<path d="M122.747 87.7505H116.915V93.5832H122.747V87.7505Z" fill="black"/>
<path d="M151.91 87.7505H146.077V93.5832H151.91V87.7505Z" fill="black"/>
<path d="M163.576 87.7505H157.744V93.5832H163.576V87.7505Z" fill="black"/>
<path d="M169.409 87.7505H163.576V93.5832H169.409V87.7505Z" fill="black"/>
<path d="M175.24 87.7505H169.407V93.5832H175.24V87.7505Z" fill="black"/>
<path d="M181.074 87.7505H175.241V93.5832H181.074V87.7505Z" fill="black"/>
<path d="M192.739 87.7505H186.906V93.5832H192.739V87.7505Z" fill="black"/>
<path d="M6.09341 93.583H0.260742V99.4157H6.09341V93.583Z" fill="black"/>
<path d="M17.7585 93.583H11.9258V99.4157H17.7585V93.583Z" fill="black"/>
<path d="M29.424 93.583H23.5913V99.4157H29.424V93.583Z" fill="black"/>
<path d="M35.2565 93.583H29.4238V99.4157H35.2565V93.583Z" fill="black"/>
<path d="M41.0885 93.583H35.2559V99.4157H41.0885V93.583Z" fill="black"/>
<path d="M58.588 93.583H52.7554V99.4157H58.588V93.583Z" fill="black"/>
<path d="M81.9176 93.583H76.085V99.4157H81.9176V93.583Z" fill="black"/>
<path d="M93.5832 93.583H87.7505V99.4157H93.5832V93.583Z" fill="black"/>
<path d="M105.248 93.583H99.4155V99.4157H105.248V93.583Z" fill="black"/>
<path d="M122.747 93.583H116.915V99.4157H122.747V93.583Z" fill="black"/>
<path d="M134.412 93.583H128.58V99.4157H134.412V93.583Z" fill="black"/>
<path d="M140.245 93.583H134.412V99.4157H140.245V93.583Z" fill="black"/>
<path d="M151.91 93.583H146.077V99.4157H151.91V93.583Z" fill="black"/>
<path d="M163.576 93.583H157.744V99.4157H163.576V93.583Z" fill="black"/>
<path d="M169.409 93.583H163.576V99.4157H169.409V93.583Z" fill="black"/>
<path d="M175.24 93.583H169.407V99.4157H175.24V93.583Z" fill="black"/>
<path d="M192.739 93.583H186.906V99.4157H192.739V93.583Z" fill="black"/>
<path d="M11.9264 99.4155H6.09375V105.248H11.9264V99.4155Z" fill="black"/>
<path d="M17.7585 99.4155H11.9258V105.248H17.7585V99.4155Z" fill="black"/>
<path d="M29.424 99.4155H23.5913V105.248H29.424V99.4155Z" fill="black"/>
<path d="M58.588 99.4155H52.7554V105.248H58.588V99.4155Z" fill="black"/>
<path d="M76.0856 99.4155H70.2529V105.248H76.0856V99.4155Z" fill="black"/>
<path d="M93.5832 99.4155H87.7505V105.248H93.5832V99.4155Z" fill="black"/>
<path d="M99.4157 99.4155H93.583V105.248H99.4157V99.4155Z" fill="black"/>
<path d="M111.081 99.4155H105.248V105.248H111.081V99.4155Z" fill="black"/>
<path d="M116.915 99.4155H111.082V105.248H116.915V99.4155Z" fill="black"/>
<path d="M122.747 99.4155H116.915V105.248H122.747V99.4155Z" fill="black"/>
<path d="M140.245 99.4155H134.412V105.248H140.245V99.4155Z" fill="black"/>
<path d="M157.742 99.4155H151.91V105.248H157.742V99.4155Z" fill="black"/>
<path d="M175.24 99.4155H169.407V105.248H175.24V99.4155Z" fill="black"/>
<path d="M181.074 99.4155H175.241V105.248H181.074V99.4155Z" fill="black"/>
<path d="M192.739 99.4155H186.906V105.248H192.739V99.4155Z" fill="black"/>
<path d="M6.09341 105.248H0.260742V111.081H6.09341V105.248Z" fill="black"/>
<path d="M11.9264 105.248H6.09375V111.081H11.9264V105.248Z" fill="black"/>
<path d="M17.7585 105.248H11.9258V111.081H17.7585V105.248Z" fill="black"/>
<path d="M41.0885 105.248H35.2559V111.081H41.0885V105.248Z" fill="black"/>
<path d="M46.9225 105.248H41.0898V111.081H46.9225V105.248Z" fill="black"/>
<path d="M52.755 105.248H46.9224V111.081H52.755V105.248Z" fill="black"/>
<path d="M58.588 105.248H52.7554V111.081H58.588V105.248Z" fill="black"/>
<path d="M93.5832 105.248H87.7505V111.081H93.5832V105.248Z" fill="black"/>
<path d="M105.248 105.248H99.4155V111.081H105.248V105.248Z" fill="black"/>
<path d="M111.081 105.248H105.248V111.081H111.081V105.248Z" fill="black"/>
<path d="M116.915 105.248H111.082V111.081H116.915V105.248Z" fill="black"/>
<path d="M122.747 105.248H116.915V111.081H122.747V105.248Z" fill="black"/>
<path d="M128.58 105.248H122.747V111.081H128.58V105.248Z" fill="black"/>
<path d="M134.412 105.248H128.58V111.081H134.412V105.248Z" fill="black"/>
<path d="M140.245 105.248H134.412V111.081H140.245V105.248Z" fill="black"/>
<path d="M146.077 105.248H140.244V111.081H146.077V105.248Z" fill="black"/>
<path d="M163.576 105.248H157.744V111.081H163.576V105.248Z" fill="black"/>
<path d="M175.24 105.248H169.407V111.081H175.24V105.248Z" fill="black"/>
<path d="M181.074 105.248H175.241V111.081H181.074V105.248Z" fill="black"/>
<path d="M192.739 105.248H186.906V111.081H192.739V105.248Z" fill="black"/>
<path d="M6.09341 111.082H0.260742V116.915H6.09341V111.082Z" fill="black"/>
<path d="M17.7585 111.082H11.9258V116.915H17.7585V111.082Z" fill="black"/>
<path d="M29.424 111.082H23.5913V116.915H29.424V111.082Z" fill="black"/>
<path d="M46.9225 111.082H41.0898V116.915H46.9225V111.082Z" fill="black"/>
<path d="M52.755 111.082H46.9224V116.915H52.755V111.082Z" fill="black"/>
<path d="M58.588 111.082H52.7554V116.915H58.588V111.082Z" fill="black"/>
<path d="M64.4206 111.082H58.5879V116.915H64.4206V111.082Z" fill="black"/>
<path d="M70.2526 111.082H64.4199V116.915H70.2526V111.082Z" fill="black"/>
<path d="M76.0856 111.082H70.2529V116.915H76.0856V111.082Z" fill="black"/>
<path d="M87.7506 111.082H81.918V116.915H87.7506V111.082Z" fill="black"/>
<path d="M116.915 111.082H111.082V116.915H116.915V111.082Z" fill="black"/>
<path d="M122.747 111.082H116.915V116.915H122.747V111.082Z" fill="black"/>
<path d="M140.245 111.082H134.412V116.915H140.245V111.082Z" fill="black"/>
<path d="M146.077 111.082H140.244V116.915H146.077V111.082Z" fill="black"/>
<path d="M151.91 111.082H146.077V116.915H151.91V111.082Z" fill="black"/>
<path d="M157.742 111.082H151.91V116.914H157.742V111.082Z" fill="black"/>
<path d="M169.409 111.082H163.576V116.915H169.409V111.082Z" fill="black"/>
<path d="M175.24 111.082H169.407V116.915H175.24V111.082Z" fill="black"/>
<path d="M181.074 111.082H175.241V116.915H181.074V111.082Z" fill="black"/>
<path d="M186.906 111.082H181.074V116.915H186.906V111.082Z" fill="black"/>
<path d="M6.09341 116.915H0.260742V122.747H6.09341V116.915Z" fill="black"/>
<path d="M23.5915 116.915H17.7588V122.747H23.5915V116.915Z" fill="black"/>
<path d="M29.424 116.915H23.5913V122.747H29.424V116.915Z" fill="black"/>
<path d="M41.0885 116.915H35.2559V122.747H41.0885V116.915Z" fill="black"/>
<path d="M46.9225 116.915H41.0898V122.747H46.9225V116.915Z" fill="black"/>
<path d="M52.755 116.915H46.9224V122.747H52.755V116.915Z" fill="black"/>
<path d="M58.588 116.915H52.7554V122.747H58.588V116.915Z" fill="black"/>
<path d="M87.7506 116.915H81.918V122.747H87.7506V116.915Z" fill="black"/>
<path d="M111.081 116.915H105.248V122.747H111.081V116.915Z" fill="black"/>
<path d="M116.915 116.915H111.082V122.747H116.915V116.915Z" fill="black"/>
<path d="M128.58 116.915H122.747V122.747H128.58V116.915Z" fill="black"/>
<path d="M146.077 116.915H140.244V122.747H146.077V116.915Z" fill="black"/>
<path d="M151.91 116.915H146.077V122.747H151.91V116.915Z" fill="black"/>
<path d="M169.409 116.915H163.576V122.747H169.409V116.915Z" fill="black"/>
<path d="M175.24 116.915H169.407V122.747H175.24V116.915Z" fill="black"/>
<path d="M186.906 116.915H181.074V122.747H186.906V116.915Z" fill="black"/>
<path d="M6.09341 122.747H0.260742V128.58H6.09341V122.747Z" fill="black"/>
<path d="M11.9264 122.747H6.09375V128.58H11.9264V122.747Z" fill="black"/>
<path d="M23.5915 122.747H17.7588V128.58H23.5915V122.747Z" fill="black"/>
<path d="M46.9225 122.747H41.0898V128.58H46.9225V122.747Z" fill="black"/>
<path d="M52.755 122.747H46.9224V128.58H52.755V122.747Z" fill="black"/>
<path d="M58.588 122.747H52.7554V128.58H58.588V122.747Z" fill="black"/>
<path d="M64.4206 122.747H58.5879V128.58H64.4206V122.747Z" fill="black"/>
<path d="M70.2526 122.747H64.4199V128.58H70.2526V122.747Z" fill="black"/>
<path d="M76.0856 122.747H70.2529V128.58H76.0856V122.747Z" fill="black"/>
<path d="M134.412 122.747H128.58V128.58H134.412V122.747Z" fill="black"/>
<path d="M140.245 122.747H134.412V128.58H140.245V122.747Z" fill="black"/>
<path d="M163.576 122.747H157.744V128.58H163.576V122.747Z" fill="black"/>
<path d="M169.409 122.747H163.576V128.58H169.409V122.747Z" fill="black"/>
<path d="M181.074 122.747H175.241V128.58H181.074V122.747Z" fill="black"/>
<path d="M6.09341 128.58H0.260742V134.412H6.09341V128.58Z" fill="black"/>
<path d="M17.7585 128.58H11.9258V134.412H17.7585V128.58Z" fill="black"/>
<path d="M23.5915 128.58H17.7588V134.412H23.5915V128.58Z" fill="black"/>
<path d="M41.0885 128.58H35.2559V134.412H41.0885V128.58Z" fill="black"/>
<path d="M46.9225 128.58H41.0898V134.412H46.9225V128.58Z" fill="black"/>
<path d="M64.4206 128.58H58.5879V134.412H64.4206V128.58Z" fill="black"/>
<path d="M76.0856 128.58H70.2529V134.412H76.0856V128.58Z" fill="black"/>
<path d="M81.9176 128.58H76.085V134.412H81.9176V128.58Z" fill="black"/>
<path d="M87.7506 128.58H81.918V134.412H87.7506V128.58Z" fill="black"/>
<path d="M111.081 128.58H105.248V134.412H111.081V128.58Z" fill="black"/>
<path d="M116.915 128.58H111.082V134.412H116.915V128.58Z" fill="black"/>
<path d="M128.58 128.58H122.747V134.412H128.58V128.58Z" fill="black"/>
<path d="M157.742 128.58H151.91V134.412H157.742V128.58Z" fill="black"/>
<path d="M169.409 128.58H163.576V134.412H169.409V128.58Z" fill="black"/>
<path d="M186.906 128.58H181.074V134.412H186.906V128.58Z" fill="black"/>
<path d="M6.09341 134.412H0.260742V140.245H6.09341V134.412Z" fill="black"/>
<path d="M29.424 134.412H23.5913V140.245H29.424V134.412Z" fill="black"/>
<path d="M52.755 134.412H46.9224V140.245H52.755V134.412Z" fill="black"/>
<path d="M70.2526 134.412H64.4199V140.245H70.2526V134.412Z" fill="black"/>
<path d="M76.0856 134.412H70.2529V140.245H76.0856V134.412Z" fill="black"/>
<path d="M93.5832 134.412H87.7505V140.245H93.5832V134.412Z" fill="black"/>
<path d="M99.4157 134.412H93.583V140.245H99.4157V134.412Z" fill="black"/>
<path d="M116.915 134.412H111.082V140.245H116.915V134.412Z" fill="black"/>
<path d="M122.747 134.412H116.915V140.245H122.747V134.412Z" fill="black"/>
<path d="M134.412 134.412H128.58V140.245H134.412V134.412Z" fill="black"/>
<path d="M146.077 134.412H140.244V140.245H146.077V134.412Z" fill="black"/>
<path d="M175.24 134.412H169.407V140.245H175.24V134.412Z" fill="black"/>
<path d="M181.074 134.412H175.241V140.245H181.074V134.412Z" fill="black"/>
<path d="M186.906 134.412H181.074V140.245H186.906V134.412Z" fill="black"/>
<path d="M192.739 134.412H186.906V140.245H192.739V134.412Z" fill="black"/>
<path d="M6.09341 140.244H0.260742V146.077H6.09341V140.244Z" fill="black"/>
<path d="M11.9264 140.244H6.09375V146.077H11.9264V140.244Z" fill="black"/>
<path d="M17.7585 140.244H11.9258V146.077H17.7585V140.244Z" fill="black"/>
<path d="M23.5915 140.244H17.7588V146.077H23.5915V140.244Z" fill="black"/>
<path d="M29.424 140.244H23.5913V146.077H29.424V140.244Z" fill="black"/>
<path d="M41.0885 140.244H35.2559V146.077H41.0885V140.244Z" fill="black"/>
<path d="M46.9225 140.244H41.0898V146.077H46.9225V140.244Z" fill="black"/>
<path d="M58.588 140.244H52.7554V146.077H58.588V140.244Z" fill="black"/>
<path d="M70.2526 140.244H64.4199V146.077H70.2526V140.244Z" fill="black"/>
<path d="M76.0856 140.244H70.2529V146.077H76.0856V140.244Z" fill="black"/>
<path d="M81.9176 140.244H76.085V146.077H81.9176V140.244Z" fill="black"/>
<path d="M87.7506 140.244H81.918V146.077H87.7506V140.244Z" fill="black"/>
<path d="M99.4157 140.244H93.583V146.077H99.4157V140.244Z" fill="black"/>
<path d="M122.747 140.244H116.915V146.077H122.747V140.244Z" fill="black"/>
<path d="M146.077 140.244H140.244V146.077H146.077V140.244Z" fill="black"/>
<path d="M151.91 140.244H146.077V146.077H151.91V140.244Z" fill="black"/>
<path d="M157.742 140.245H151.91V146.077H157.742V140.245Z" fill="black"/>
<path d="M163.576 140.244H157.744V146.077H163.576V140.244Z" fill="black"/>
<path d="M169.409 140.244H163.576V146.077H169.409V140.244Z" fill="black"/>
<path d="M175.24 140.244H169.407V146.077H175.24V140.244Z" fill="black"/>
<path d="M52.755 146.077H46.9224V151.91H52.755V146.077Z" fill="black"/>
<path d="M58.588 146.077H52.7554V151.91H58.588V146.077Z" fill="black"/>
<path d="M76.0856 146.077H70.2529V151.91H76.0856V146.077Z" fill="black"/>
<path d="M81.9176 146.077H76.085V151.91H81.9176V146.077Z" fill="black"/>
<path d="M87.7506 146.077H81.918V151.91H87.7506V146.077Z" fill="black"/>
<path d="M93.5832 146.077H87.7505V151.91H93.5832V146.077Z" fill="black"/>
<path d="M99.4157 146.077H93.583V151.91H99.4157V146.077Z" fill="black"/>
<path d="M105.248 146.077H99.4155V151.91H105.248V146.077Z" fill="black"/>
<path d="M111.081 146.077H105.248V151.91H111.081V146.077Z" fill="black"/>
<path d="M116.915 146.077H111.082V151.91H116.915V146.077Z" fill="black"/>
<path d="M128.58 146.077H122.747V151.91H128.58V146.077Z" fill="black"/>
<path d="M134.412 146.077H128.58V151.91H134.412V146.077Z" fill="black"/>
<path d="M140.245 146.077H134.412V151.91H140.245V146.077Z" fill="black"/>
<path d="M146.077 146.077H140.244V151.91H146.077V146.077Z" fill="black"/>
<path d="M169.409 146.077H163.576V151.91H169.409V146.077Z" fill="black"/>
<path d="M181.074 146.077H175.241V151.91H181.074V146.077Z" fill="black"/>
<path d="M192.739 146.077H186.906V151.91H192.739V146.077Z" fill="black"/>
<path d="M70.2526 151.91H64.4199V157.742H70.2526V151.91Z" fill="black"/>
<path d="M87.7511 151.91H81.9185V157.742H87.7511V151.91Z" fill="black"/>
<path d="M93.5832 151.91H87.7505V157.742H93.5832V151.91Z" fill="black"/>
<path d="M105.248 151.91H99.4155V157.742H105.248V151.91Z" fill="black"/>
<path d="M134.412 151.91H128.58V157.742H134.412V151.91Z" fill="black"/>
<path d="M140.245 151.91H134.412V157.742H140.245V151.91Z" fill="black"/>
<path d="M146.077 151.91H140.245V157.742H146.077V151.91Z" fill="black"/>
<path d="M157.742 151.91H151.91V157.742H157.742V151.91Z" fill="black"/>
<path d="M169.409 151.91H163.576V157.742H169.409V151.91Z" fill="black"/>
<path d="M181.074 151.91H175.241V157.742H181.074V151.91Z" fill="black"/>
<path d="M186.906 151.91H181.074V157.742H186.906V151.91Z" fill="black"/>
<path d="M64.4206 157.744H58.5879V163.576H64.4206V157.744Z" fill="black"/>
<path d="M70.2526 157.744H64.4199V163.576H70.2526V157.744Z" fill="black"/>
<path d="M105.248 157.744H99.4155V163.576H105.248V157.744Z" fill="black"/>
<path d="M111.081 157.744H105.248V163.576H111.081V157.744Z" fill="black"/>
<path d="M128.58 157.744H122.747V163.576H128.58V157.744Z" fill="black"/>
<path d="M134.412 157.744H128.58V163.576H134.412V157.744Z" fill="black"/>
<path d="M140.245 157.744H134.412V163.576H140.245V157.744Z" fill="black"/>
<path d="M146.077 157.744H140.244V163.576H146.077V157.744Z" fill="black"/>
<path d="M169.409 157.744H163.576V163.576H169.409V157.744Z" fill="black"/>
<path d="M175.24 157.744H169.407V163.576H175.24V157.744Z" fill="black"/>
<path d="M181.074 157.744H175.241V163.576H181.074V157.744Z" fill="black"/>
<path d="M58.588 163.576H52.7554V169.409H58.588V163.576Z" fill="black"/>
<path d="M64.4206 163.576H58.5879V169.409H64.4206V163.576Z" fill="black"/>
<path d="M70.2526 163.576H64.4199V169.409H70.2526V163.576Z" fill="black"/>
<path d="M76.0856 163.576H70.2529V169.409H76.0856V163.576Z" fill="black"/>
<path d="M81.9176 163.576H76.085V169.409H81.9176V163.576Z" fill="black"/>
<path d="M93.5832 163.576H87.7505V169.409H93.5832V163.576Z" fill="black"/>
<path d="M99.4157 163.576H93.583V169.409H99.4157V163.576Z" fill="black"/>
<path d="M122.747 163.576H116.915V169.409H122.747V163.576Z" fill="black"/>
<path d="M128.58 163.576H122.747V169.409H128.58V163.576Z" fill="black"/>
<path d="M134.412 163.576H128.58V169.409H134.412V163.576Z" fill="black"/>
<path d="M146.077 163.576H140.244V169.409H146.077V163.576Z" fill="black"/>
<path d="M151.91 163.576H146.077V169.409H151.91V163.576Z" fill="black"/>
<path d="M157.742 163.576H151.91V169.409H157.742V163.576Z" fill="black"/>
<path d="M163.576 163.576H157.744V169.409H163.576V163.576Z" fill="black"/>
<path d="M169.409 163.576H163.576V169.409H169.409V163.576Z" fill="black"/>
<path d="M175.24 163.576H169.407V169.409H175.24V163.576Z" fill="black"/>
<path d="M76.0856 169.407H70.2529V175.24H76.0856V169.407Z" fill="black"/>
<path d="M105.248 169.407H99.4155V175.24H105.248V169.407Z" fill="black"/>
<path d="M111.081 169.407H105.248V175.24H111.081V169.407Z" fill="black"/>
<path d="M140.245 169.407H134.412V175.24H140.245V169.407Z" fill="black"/>
<path d="M151.91 169.407H146.077V175.24H151.91V169.407Z" fill="black"/>
<path d="M163.576 169.407H157.744V175.24H163.576V169.407Z" fill="black"/>
<path d="M169.409 169.407H163.576V175.24H169.409V169.407Z" fill="black"/>
<path d="M175.24 169.407H169.407V175.24H175.24V169.407Z" fill="black"/>
<path d="M181.074 169.407H175.241V175.24H181.074V169.407Z" fill="black"/>
<path d="M192.739 169.407H186.906V175.24H192.739V169.407Z" fill="black"/>
<path d="M58.588 175.241H52.7554V181.074H58.588V175.241Z" fill="black"/>
<path d="M64.4206 175.241H58.5879V181.074H64.4206V175.241Z" fill="black"/>
<path d="M76.0856 175.241H70.2529V181.074H76.0856V175.241Z" fill="black"/>
<path d="M93.5832 175.241H87.7505V181.074H93.5832V175.241Z" fill="black"/>
<path d="M116.915 175.241H111.082V181.074H116.915V175.241Z" fill="black"/>
<path d="M134.412 175.241H128.58V181.074H134.412V175.241Z" fill="black"/>
<path d="M151.91 175.241H146.077V181.074H151.91V175.241Z" fill="black"/>
<path d="M163.576 175.241H157.744V181.074H163.576V175.241Z" fill="black"/>
<path d="M169.409 175.241H163.576V181.074H169.409V175.241Z" fill="black"/>
<path d="M181.074 175.241H175.241V181.074H181.074V175.241Z" fill="black"/>
<path d="M186.906 175.241H181.074V181.074H186.906V175.241Z" fill="black"/>
<path d="M192.739 175.241H186.906V181.074H192.739V175.241Z" fill="black"/>
<path d="M58.588 181.074H52.7554V186.906H58.588V181.074Z" fill="black"/>
<path d="M64.4206 181.074H58.5879V186.906H64.4206V181.074Z" fill="black"/>
<path d="M81.9176 181.074H76.085V186.906H81.9176V181.074Z" fill="black"/>
<path d="M87.7506 181.074H81.918V186.906H87.7506V181.074Z" fill="black"/>
<path d="M111.081 181.074H105.248V186.906H111.081V181.074Z" fill="black"/>
<path d="M163.576 181.074H157.744V186.906H163.576V181.074Z" fill="black"/>
<path d="M169.409 181.074H163.576V186.906H169.409V181.074Z" fill="black"/>
<path d="M175.24 181.074H169.407V186.906H175.24V181.074Z" fill="black"/>
<path d="M181.074 181.074H175.241V186.906H181.074V181.074Z" fill="black"/>
<path d="M52.755 186.906H46.9224V192.739H52.755V186.906Z" fill="black"/>
<path d="M58.588 186.906H52.7554V192.739H58.588V186.906Z" fill="black"/>
<path d="M64.4206 186.906H58.5879V192.739H64.4206V186.906Z" fill="black"/>
<path d="M81.9176 186.906H76.085V192.739H81.9176V186.906Z" fill="black"/>
<path d="M87.7506 186.906H81.918V192.739H87.7506V186.906Z" fill="black"/>
<path d="M93.5832 186.906H87.7505V192.739H93.5832V186.906Z" fill="black"/>
<path d="M105.248 186.906H99.4155V192.739H105.248V186.906Z" fill="black"/>
<path d="M122.747 186.906H116.915V192.739H122.747V186.906Z" fill="black"/>
<path d="M134.412 186.906H128.58V192.739H134.412V186.906Z" fill="black"/>
<path d="M140.245 186.906H134.412V192.739H140.245V186.906Z" fill="black"/>
<path d="M146.077 186.906H140.244V192.739H146.077V186.906Z" fill="black"/>
<path d="M157.742 186.907H151.91V192.739H157.742V186.907Z" fill="black"/>
<path d="M163.576 186.906H157.744V192.739H163.576V186.906Z" fill="black"/>
<path d="M186.906 186.906H181.074V192.739H186.906V186.906Z" fill="black"/>
<path d="M34.9651 0.260742H6.38505H0.260742V6.38505V34.9651V41.0894H6.38505H34.9651H41.0894V34.9651V6.38505V0.260742H34.9651ZM34.9651 34.9651H6.38505V6.38505H34.9651V34.9651Z" fill="black"/>
<path d="M186.614 0.260742H158.034H151.91V6.38505V34.9651V41.0894H158.034H186.614H192.738V34.9651V6.38505V0.260742H186.614ZM186.614 34.9651H158.034V6.38505H186.614V34.9651Z" fill="black"/>
<path d="M34.9651 151.91H6.38505H0.260742V158.034V186.614V192.738H6.38505H34.9651H41.0894V186.614V158.034V151.91H34.9651ZM34.9651 186.614H6.38505V158.034H34.9651V186.614Z" fill="black"/>
<path d="M29.4238 11.9258H11.9258V29.4238H29.4238V11.9258Z" fill="black"/>
<path d="M181.074 11.9258H163.576V29.4238H181.074V11.9258Z" fill="black"/>
<path d="M29.4238 163.576H11.9258V181.074H29.4238V163.576Z" fill="black"/>
</svg>
