<svg width="25" height="25" viewBox="0 0 25 25" fill="none" xmlns="http://www.w3.org/2000/svg">
<g clip-path="url(#clip0_6431_11950)">
<path fill-rule="evenodd" clip-rule="evenodd" d="M23.2955 12.5C23.2955 18.4622 18.4622 23.2955 12.5 23.2955C6.53784 23.2955 1.70455 18.4622 1.70455 12.5C1.70455 6.53784 6.53784 1.70455 12.5 1.70455C18.4622 1.70455 23.2955 6.53784 23.2955 12.5ZM25 12.5C25 19.4036 19.4036 25 12.5 25C5.59644 25 0 19.4036 0 12.5C0 5.59644 5.59644 0 12.5 0C19.4036 0 25 5.59644 25 12.5ZM11.0846 15.2072V14.3126H13.2904C14.0257 14.3126 14.6814 14.1509 15.2577 13.8274C15.8439 13.5039 16.296 13.0541 16.6139 12.4779C16.9418 11.9017 17.1058 11.2447 17.1058 10.5067C17.1058 9.7486 16.9418 9.07133 16.6139 8.47493C16.296 7.87853 15.8439 7.41354 15.2577 7.07996C14.6814 6.74638 14.0257 6.57959 13.2904 6.57959H10.3096C10.0911 6.57959 9.90724 6.6554 9.75821 6.80703C9.60917 6.94855 9.53465 7.13556 9.53465 7.36805V12.857H8.65533C8.4268 12.857 8.24299 12.9277 8.10389 13.0692C7.96479 13.2007 7.89524 13.3776 7.89524 13.5999C7.89524 13.8122 7.96479 13.9841 8.10389 14.1155C8.24299 14.2469 8.4268 14.3126 8.65533 14.3126H9.53465V15.2072H8.65533C8.43674 15.2072 8.25293 15.2678 8.10389 15.3891C7.96479 15.5003 7.89524 15.6419 7.89524 15.8137C7.89524 15.9855 7.96479 16.1321 8.10389 16.2534C8.25293 16.3646 8.43674 16.4202 8.65533 16.4202H9.53465V17.6332C9.53465 17.8556 9.60917 18.0426 9.75821 18.1943C9.90724 18.3459 10.0911 18.4217 10.3096 18.4217C10.5382 18.4217 10.722 18.3459 10.8611 18.1943C11.0101 18.0426 11.0846 17.8556 11.0846 17.6332V16.4202H13.0072C13.2258 16.4202 13.4096 16.3646 13.5587 16.2534C13.7077 16.1321 13.7822 15.9855 13.7822 15.8137C13.7822 15.6419 13.7077 15.5003 13.5587 15.3891C13.4096 15.2678 13.2258 15.2072 13.0072 15.2072H11.0846ZM13.2904 12.857H11.0846V8.03521H13.2904C13.966 8.03521 14.5224 8.26771 14.9596 8.7327C15.3968 9.19769 15.6154 9.78904 15.6154 10.5067C15.6154 11.1941 15.3968 11.7602 14.9596 12.205C14.5224 12.6396 13.966 12.857 13.2904 12.857Z" fill="#ACACAC"/>
</g>
<defs>
<clipPath id="clip0_6431_11950">
<rect width="25" height="25" fill="white"/>
</clipPath>
</defs>
</svg>
