<svg width="18" height="18" viewBox="0 0 18 18" fill="none" xmlns="http://www.w3.org/2000/svg">
<path fill-rule="evenodd" clip-rule="evenodd" d="M8.04578 0.799805C4.05028 0.799805 0.799805 4.0503 0.799805 8.04583C0.799805 12.0416 4.05028 15.2919 8.04578 15.2919C9.73773 15.2919 11.2963 14.7089 12.5306 13.7336L15.7482 16.9512C15.9142 17.1172 16.132 17.2003 16.3495 17.2003C16.5667 17.2003 16.7846 17.1172 16.9507 16.9512C17.2829 16.6192 17.2829 16.0806 16.9507 15.7486L13.7332 12.5311C14.7086 11.2967 15.2918 9.73796 15.2918 8.04583C15.2918 4.05031 12.0415 0.799805 8.04578 0.799805ZM8.04578 13.5911C4.98837 13.5911 2.5006 11.1033 2.5006 8.04586C2.5006 4.98843 4.98838 2.50061 8.04578 2.50061C11.1032 2.50061 13.591 4.9884 13.591 8.04583C13.591 11.1033 11.1032 13.5911 8.04578 13.5911Z" fill="#5F4D54"/>
</svg>
