<svg width="15" height="14" viewBox="0 0 15 14" fill="none" xmlns="http://www.w3.org/2000/svg">
<path d="M11.9727 13.6599H2.97266C2.5251 13.6599 2.09588 13.4821 1.77941 13.1657C1.46295 12.8492 1.28516 12.42 1.28516 11.9724V6.34741C1.28516 6.19823 1.34442 6.05515 1.44991 5.94966C1.5554 5.84418 1.69847 5.78491 1.84766 5.78491C1.99684 5.78491 2.13991 5.84418 2.2454 5.94966C2.35089 6.05515 2.41016 6.19823 2.41016 6.34741V11.9724C2.41016 12.1216 2.46942 12.2647 2.57491 12.3702C2.6804 12.4756 2.82347 12.5349 2.97266 12.5349H11.9727C12.1218 12.5349 12.2649 12.4756 12.3704 12.3702C12.4759 12.2647 12.5352 12.1216 12.5352 11.9724V6.34741C12.5352 6.19823 12.5944 6.05515 12.6999 5.94966C12.8054 5.84418 12.9485 5.78491 13.0977 5.78491C13.2468 5.78491 13.3899 5.84418 13.4954 5.94966C13.6009 6.05515 13.6602 6.19823 13.6602 6.34741V11.9724C13.6602 12.42 13.4824 12.8492 13.1659 13.1657C12.8494 13.4821 12.4202 13.6599 11.9727 13.6599Z" fill="white"/>
<path d="M6.91016 13.6602H4.09766C3.94847 13.6602 3.8054 13.6009 3.69991 13.4954C3.59442 13.3899 3.53516 13.2468 3.53516 13.0977V9.72266C3.53516 9.2751 3.71295 8.84588 4.02941 8.52941C4.34588 8.21295 4.7751 8.03516 5.22266 8.03516H5.78516C6.23271 8.03516 6.66193 8.21295 6.9784 8.52941C7.29487 8.84588 7.47266 9.2751 7.47266 9.72266V13.0977C7.47266 13.2468 7.41339 13.3899 7.3079 13.4954C7.20241 13.6009 7.05934 13.6602 6.91016 13.6602ZM4.66016 12.5352H6.34766V9.72266C6.34766 9.57347 6.28839 9.4304 6.1829 9.32491C6.07741 9.21942 5.93434 9.16016 5.78516 9.16016H5.22266C5.07347 9.16016 4.9304 9.21942 4.82491 9.32491C4.71942 9.4304 4.66016 9.57347 4.66016 9.72266V12.5352Z" fill="white"/>
<path d="M12.5352 6.90991C11.9384 6.90991 11.3661 6.67286 10.9442 6.2509C10.5222 5.82895 10.2852 5.25665 10.2852 4.65991C10.2852 4.51073 10.3444 4.36765 10.4499 4.26217C10.5554 4.15668 10.6985 4.09741 10.8477 4.09741C10.9968 4.09741 11.1399 4.15668 11.2454 4.26217C11.3509 4.36765 11.4102 4.51073 11.4102 4.65991C11.4102 4.95828 11.5287 5.24443 11.7397 5.45541C11.9506 5.66639 12.2368 5.78491 12.5352 5.78491C12.8335 5.78491 13.1197 5.66639 13.3307 5.45541C13.5416 5.24443 13.6602 4.95828 13.6602 4.65991V4.23241L12.1864 1.28491H2.75891L1.28516 4.23241V4.65991C1.28516 4.95828 1.40368 5.24443 1.61466 5.45541C1.82564 5.66639 2.11179 5.78491 2.41016 5.78491C2.70852 5.78491 2.99467 5.66639 3.20565 5.45541C3.41663 5.24443 3.53516 4.95828 3.53516 4.65991C3.53516 4.51073 3.59442 4.36765 3.69991 4.26217C3.8054 4.15668 3.94847 4.09741 4.09766 4.09741C4.24684 4.09741 4.38991 4.15668 4.4954 4.26217C4.60089 4.36765 4.66016 4.51073 4.66016 4.65991C4.66016 5.25665 4.4231 5.82895 4.00115 6.2509C3.57919 6.67286 3.00689 6.90991 2.41016 6.90991C1.81342 6.90991 1.24112 6.67286 0.819166 6.2509C0.397209 5.82895 0.160156 5.25665 0.160156 4.65991V4.09741C0.160684 4.00936 0.181878 3.92266 0.222031 3.84429L1.90953 0.469287C1.95628 0.376523 2.02779 0.298513 2.11616 0.243906C2.20452 0.189299 2.30628 0.160227 2.41016 0.159912H12.5352C12.639 0.160227 12.7408 0.189299 12.8292 0.243906C12.9175 0.298513 12.989 0.376523 13.0358 0.469287L14.7233 3.84429C14.7634 3.92266 14.7846 4.00936 14.7852 4.09741V4.65991C14.7852 5.25665 14.5481 5.82895 14.1261 6.2509C13.7042 6.67286 13.1319 6.90991 12.5352 6.90991Z" fill="white"/>
<path d="M5.78516 6.90991C5.18842 6.90991 4.61612 6.67286 4.19417 6.2509C3.77221 5.82895 3.53516 5.25665 3.53516 4.65991C3.53516 4.51073 3.59442 4.36765 3.69991 4.26216C3.8054 4.15668 3.94847 4.09741 4.09766 4.09741C4.24684 4.09741 4.38991 4.15668 4.4954 4.26216C4.60089 4.36765 4.66016 4.51073 4.66016 4.65991C4.66016 4.95828 4.77868 5.24443 4.98966 5.45541C5.20064 5.66639 5.48679 5.78491 5.78516 5.78491C6.08352 5.78491 6.36967 5.66639 6.58065 5.45541C6.79163 5.24443 6.91016 4.95828 6.91016 4.65991C6.91016 4.51073 6.96942 4.36765 7.07491 4.26216C7.1804 4.15668 7.32347 4.09741 7.47266 4.09741C7.62184 4.09741 7.76492 4.15668 7.8704 4.26216C7.97589 4.36765 8.03516 4.51073 8.03516 4.65991C8.03516 5.25665 7.7981 5.82895 7.37615 6.2509C6.95419 6.67286 6.38189 6.90991 5.78516 6.90991Z" fill="white"/>
<path d="M9.16016 6.90991C8.56342 6.90991 7.99112 6.67286 7.56917 6.2509C7.14721 5.82895 6.91016 5.25665 6.91016 4.65991C6.91016 4.51073 6.96942 4.36765 7.07491 4.26216C7.1804 4.15668 7.32347 4.09741 7.47266 4.09741C7.62184 4.09741 7.76492 4.15668 7.8704 4.26216C7.97589 4.36765 8.03516 4.51073 8.03516 4.65991C8.03516 4.95828 8.15368 5.24443 8.36466 5.45541C8.57564 5.66639 8.86179 5.78491 9.16016 5.78491C9.45853 5.78491 9.74467 5.66639 9.95565 5.45541C10.1666 5.24443 10.2852 4.95828 10.2852 4.65991C10.2852 4.51073 10.3444 4.36765 10.4499 4.26216C10.5554 4.15668 10.6985 4.09741 10.8477 4.09741C10.9968 4.09741 11.1399 4.15668 11.2454 4.26216C11.3509 4.36765 11.4102 4.51073 11.4102 4.65991C11.4102 5.25665 11.1731 5.82895 10.7511 6.2509C10.3292 6.67286 9.75689 6.90991 9.16016 6.90991Z" fill="white"/>
<path d="M10.8496 9.72241H9.16211C9.01293 9.72241 8.86985 9.66315 8.76436 9.55766C8.65887 9.45217 8.59961 9.3091 8.59961 9.15991C8.59961 9.01073 8.65887 8.86765 8.76436 8.76216C8.86985 8.65667 9.01293 8.59741 9.16211 8.59741H10.8496C10.9988 8.59741 11.1419 8.65667 11.2474 8.76216C11.3528 8.86765 11.4121 9.01073 11.4121 9.15991C11.4121 9.3091 11.3528 9.45217 11.2474 9.55766C11.1419 9.66315 10.9988 9.72241 10.8496 9.72241Z" fill="white"/>
</svg>
