<svg width="18" height="20" viewBox="0 0 18 20" fill="none" xmlns="http://www.w3.org/2000/svg">
<path fill-rule="evenodd" clip-rule="evenodd" d="M14.625 7.1875C16.489 7.1875 18 5.67646 18 3.8125C18 1.94854 16.489 0.4375 14.625 0.4375C12.761 0.4375 11.25 1.94854 11.25 3.8125C11.25 4.15534 11.3011 4.48623 11.3961 4.79799L6.1001 7.44601C5.48608 6.60723 4.49415 6.0625 3.375 6.0625C1.51104 6.0625 0 7.57354 0 9.4375C0 11.3015 1.51104 12.8125 3.375 12.8125C4.35747 12.8125 5.24189 12.3927 5.85867 11.7227L11.3671 15.3031C11.2907 15.585 11.25 15.8815 11.25 16.1875C11.25 18.0515 12.761 19.5625 14.625 19.5625C16.489 19.5625 18 18.0515 18 16.1875C18 14.3235 16.489 12.8125 14.625 12.8125C13.4722 12.8125 12.4544 13.3905 11.8456 14.2724L6.47248 10.7799C6.65102 10.3685 6.75 9.91456 6.75 9.4375C6.75 9.09463 6.69887 8.76371 6.60383 8.45193L11.8999 5.80392C12.5139 6.64274 13.5058 7.1875 14.625 7.1875Z" fill="#5F4D54"/>
</svg>
