<svg width="14" height="13" viewBox="0 0 14 13" fill="none" xmlns="http://www.w3.org/2000/svg">
<mask id="path-1-inside-1_8_4512" fill="white">
<path d="M13.3025 5.82217C13.4325 5.69685 13.5244 5.5382 13.5678 5.36413C13.6113 5.19006 13.6045 5.00748 13.5483 4.837C13.4921 4.66652 13.3887 4.51492 13.2497 4.39929C13.1107 4.28367 12.9418 4.20864 12.7619 4.18265L9.46816 3.70932C9.39903 3.6995 9.33336 3.67322 9.27685 3.63276C9.22033 3.5923 9.17467 3.53887 9.1438 3.4771L7.67263 0.535607C7.592 0.374811 7.46738 0.239446 7.31283 0.144801C7.15828 0.0501552 6.97997 0 6.79804 0C6.6161 0 6.43779 0.0501552 6.28324 0.144801C6.12869 0.239446 6.00407 0.374811 5.92344 0.535607L4.45098 3.47836C4.42003 3.54007 4.37434 3.59345 4.31784 3.6339C4.26134 3.67435 4.19572 3.70066 4.12663 3.71059L0.834184 4.18138C0.65428 4.20737 0.485322 4.28241 0.346371 4.39803C0.20742 4.51365 0.104006 4.66525 0.047794 4.83573C-0.00841774 5.00621 -0.0151897 5.18879 0.0282422 5.36286C0.071674 5.53693 0.163581 5.69558 0.293596 5.8209L2.67605 8.10505C2.72764 8.15316 2.76638 8.21307 2.78883 8.27948C2.81129 8.3459 2.81676 8.41675 2.80476 8.48575L2.24229 11.7191C2.21473 11.8564 2.21857 11.998 2.25353 12.1337C2.28848 12.2694 2.35368 12.3956 2.44437 12.5033C2.58865 12.6702 2.78595 12.7842 3.00419 12.8265C3.22244 12.8689 3.44882 12.8373 3.64653 12.7368L6.59145 11.214C6.65343 11.1829 6.72202 11.1666 6.7916 11.1666C6.86118 11.1666 6.92977 11.1829 6.99175 11.214L9.93667 12.7368C10.0761 12.81 10.2317 12.8484 10.3897 12.8485C10.5337 12.8493 10.676 12.8188 10.8066 12.7591C10.9372 12.6995 11.0528 12.6121 11.1453 12.5033C11.237 12.3971 11.3037 12.2721 11.3404 12.1373C11.3771 12.0026 11.383 11.8614 11.3576 11.7242L10.7952 8.48702C10.7832 8.41802 10.7886 8.34717 10.8111 8.28075C10.8336 8.21434 10.8723 8.15442 10.9239 8.10632L13.3025 5.82217Z"/>
</mask>
<path d="M13.3025 5.82217C13.4325 5.69685 13.5244 5.5382 13.5678 5.36413C13.6113 5.19006 13.6045 5.00748 13.5483 4.837C13.4921 4.66652 13.3887 4.51492 13.2497 4.39929C13.1107 4.28367 12.9418 4.20864 12.7619 4.18265L9.46816 3.70932C9.39903 3.6995 9.33336 3.67322 9.27685 3.63276C9.22033 3.5923 9.17467 3.53887 9.1438 3.4771L7.67263 0.535607C7.592 0.374811 7.46738 0.239446 7.31283 0.144801C7.15828 0.0501552 6.97997 0 6.79804 0C6.6161 0 6.43779 0.0501552 6.28324 0.144801C6.12869 0.239446 6.00407 0.374811 5.92344 0.535607L4.45098 3.47836C4.42003 3.54007 4.37434 3.59345 4.31784 3.6339C4.26134 3.67435 4.19572 3.70066 4.12663 3.71059L0.834184 4.18138C0.65428 4.20737 0.485322 4.28241 0.346371 4.39803C0.20742 4.51365 0.104006 4.66525 0.047794 4.83573C-0.00841774 5.00621 -0.0151897 5.18879 0.0282422 5.36286C0.071674 5.53693 0.163581 5.69558 0.293596 5.8209L2.67605 8.10505C2.72764 8.15316 2.76638 8.21307 2.78883 8.27948C2.81129 8.3459 2.81676 8.41675 2.80476 8.48575L2.24229 11.7191C2.21473 11.8564 2.21857 11.998 2.25353 12.1337C2.28848 12.2694 2.35368 12.3956 2.44437 12.5033C2.58865 12.6702 2.78595 12.7842 3.00419 12.8265C3.22244 12.8689 3.44882 12.8373 3.64653 12.7368L6.59145 11.214C6.65343 11.1829 6.72202 11.1666 6.7916 11.1666C6.86118 11.1666 6.92977 11.1829 6.99175 11.214L9.93667 12.7368C10.0761 12.81 10.2317 12.8484 10.3897 12.8485C10.5337 12.8493 10.676 12.8188 10.8066 12.7591C10.9372 12.6995 11.0528 12.6121 11.1453 12.5033C11.237 12.3971 11.3037 12.2721 11.3404 12.1373C11.3771 12.0026 11.383 11.8614 11.3576 11.7242L10.7952 8.48702C10.7832 8.41802 10.7886 8.34717 10.8111 8.28075C10.8336 8.21434 10.8723 8.15442 10.9239 8.10632L13.3025 5.82217Z" stroke="#FF7905" stroke-width="2" mask="url(#path-1-inside-1_8_4512)"/>
</svg>
